<?xml version="1.0" encoding="UTF-8" standalone="no"?>
<svg
   xmlns:dc="http://purl.org/dc/elements/1.1/"
   xmlns:cc="http://creativecommons.org/ns#"
   xmlns:rdf="http://www.w3.org/1999/02/22-rdf-syntax-ns#"
   xmlns:svg="http://www.w3.org/2000/svg"
   xmlns="http://www.w3.org/2000/svg"
   xmlns:xlink="http://www.w3.org/1999/xlink"
   xmlns:sodipodi="http://sodipodi.sourceforge.net/DTD/sodipodi-0.dtd"
   xmlns:inkscape="http://www.inkscape.org/namespaces/inkscape"
   height="768"
   width="1024"
   id="svg2"
   version="1.1"
   inkscape:version="0.48.2 r9819"
   sodipodi:docname="divergence.svg">
  <metadata
     id="metadata26767">
    <rdf:RDF>
      <cc:Work
         rdf:about="">
        <dc:format>image/svg+xml</dc:format>
        <dc:type
           rdf:resource="http://purl.org/dc/dcmitype/StillImage" />
        <dc:title />
      </cc:Work>
    </rdf:RDF>
  </metadata>
  <defs
     id="defs26765">
    <marker
       inkscape:stockid="Arrow1Mend"
       orient="auto"
       refY="0.0"
       refX="0.0"
       id="Arrow1Mend"
       style="overflow:visible;">
      <path
         id="path5418"
         d="M 0.0,0.0 L 5.0,-5.0 L -12.5,0.0 L 5.0,5.0 L 0.0,0.0 z "
         style="fill-rule:evenodd;stroke:#000000;stroke-width:1.0pt;marker-start:none;"
         transform="scale(0.4) rotate(180) translate(10,0)" />
    </marker>
    <marker
       inkscape:stockid="Arrow1Mstart"
       orient="auto"
       refY="0.0"
       refX="0.0"
       id="Arrow1Mstart"
       style="overflow:visible">
      <path
         id="path5415"
         d="M 0.0,0.0 L 5.0,-5.0 L -12.5,0.0 L 5.0,5.0 L 0.0,0.0 z "
         style="fill-rule:evenodd;stroke:#000000;stroke-width:1.0pt;marker-start:none"
         transform="scale(0.4) translate(10,0)" />
    </marker>
    <linearGradient
       inkscape:collect="always"
       id="linearGradient7586">
      <stop
         style="stop-color:#000000;stop-opacity:1;"
         offset="0"
         id="stop7588" />
      <stop
         style="stop-color:#000000;stop-opacity:0;"
         offset="1"
         id="stop7590" />
    </linearGradient>
    <linearGradient
       inkscape:collect="always"
       xlink:href="#linearGradient7586"
       id="linearGradient7592"
       x1="676.41919"
       y1="357.89142"
       x2="926.55438"
       y2="252.14394"
       gradientUnits="userSpaceOnUse"
       gradientTransform="translate(0,60)" />
    <linearGradient
       inkscape:collect="always"
       xlink:href="#linearGradient7586"
       id="linearGradient3006"
       gradientUnits="userSpaceOnUse"
       gradientTransform="translate(0,60)"
       x1="676.41919"
       y1="357.89142"
       x2="926.55438"
       y2="252.14394" />
    <linearGradient
       inkscape:collect="always"
       xlink:href="#linearGradient7586"
       id="linearGradient3008"
       gradientUnits="userSpaceOnUse"
       gradientTransform="translate(0,60)"
       x1="676.41919"
       y1="357.89142"
       x2="926.55438"
       y2="252.14394" />
  </defs>
  <sodipodi:namedview
     pagecolor="#ffffff"
     bordercolor="#666666"
     borderopacity="1"
     objecttolerance="10"
     gridtolerance="10"
     guidetolerance="10"
     inkscape:pageopacity="0"
     inkscape:pageshadow="2"
     inkscape:window-width="1920"
     inkscape:window-height="1152"
     id="namedview26763"
     showgrid="false"
     inkscape:zoom="0.78488853"
     inkscape:cx="614.95705"
     inkscape:cy="318.77853"
     inkscape:window-x="0"
     inkscape:window-y="0"
     inkscape:window-maximized="1"
     inkscape:current-layer="svg2"
     showguides="true"
     inkscape:guide-bbox="true" />
  <rect
     style="fill:#ffffff;fill-opacity:1;stroke:none"
     id="divergence.cover"
     width="796.29144"
     height="470.13049"
     x="157.98421"
     y="178.10732"
     inkscape:label="#rect3016" />
  <g
     style="font-size:12px;font-style:normal;font-weight:normal;fill:#000000;fill-opacity:1;stroke:#000000;stroke-width:1;stroke-linecap:square;stroke-linejoin:miter;stroke-miterlimit:10;stroke-opacity:1;stroke-dasharray:none;stroke-dashoffset:0;font-family:Dialog"
     id="divergence.infinity"
     transform="matrix(0.25418659,0,0,0.25418659,901.23903,230.21368)"
     inkscape:label="#g11552">
    <g
       id="g11542">
      <g
         id="g11544">
        <path
           id="path11546"
           d="m 152.2969,311.9062 q 0,21.9376 -11.8125,34.3126 -10.4063,11.1093 -26.1563,11.1093 -21.6562,0 -36.2812,-31.0781 -12.7969,25.3125 -35.1563,25.3125 -16.1718,0 -26.6484,-11.25 -10.4766,-11.25 -10.4766,-28.6875 0,-18.1406 9.5625,-29.1094 9.2813,-10.4062 23.9063,-10.4062 19.6875,0 31.9218,24.75 6.0469,-16.3125 15.1172,-23.2735 9.0704,-6.9609 24.5391,-6.9609 18.2813,0 29.8828,12.7969 11.6016,12.7969 11.6016,32.4843 z m -6.8907,0 q 0,-15.1874 -8.6484,-25.5937 -8.6484,-10.4063 -21.3047,-10.4063 -11.3906,0 -18.7031,9.1407 -2.5312,3.2343 -7.4531,14.625 -7.1719,17.1562 -8.0157,18.8437 8.0157,15.6094 15.0469,22.2188 8.0157,7.4531 18.5625,7.4531 13.7813,0 22.1485,-9.7734 8.3671,-9.7735 8.3671,-26.5079 z m -77.4843,-6.6093 q -11.1094,-23.9063 -29.1094,-23.9063 -11.9531,0 -19.0547,8.4375 -7.1016,8.4375 -7.1016,21.7969 0,12.9375 7.2422,21.8672 7.2422,8.9297 16.9454,8.9297 18.9843,0 31.0781,-37.125 z"
           inkscape:connector-curvature="0"
           style="stroke:none" />
      </g>
    </g>
  </g>
  <g
     id="divergence.backdrop"
     inkscape:label="#g7981"
     transform="translate(0,60)">
    <path
       sodipodi:nodetypes="ccc"
       inkscape:connector-curvature="0"
       id="path4896"
       d="m 156.147,278.70322 0,312.61978 693.31613,0"
       style="fill:none;stroke:#000000;stroke-width:4;stroke-linecap:butt;stroke-linejoin:miter;stroke-miterlimit:4;stroke-opacity:1;stroke-dasharray:none;marker-start:url(#Arrow1Mstart);marker-end:url(#Arrow1Mend)" />
    <text
       sodipodi:linespacing="125%"
       id="text6222"
       y="637.34216"
       x="498.05334"
       style="font-size:40px;font-style:normal;font-variant:normal;font-weight:normal;font-stretch:normal;text-align:center;line-height:125%;letter-spacing:0px;word-spacing:0px;writing-mode:lr-tb;text-anchor:middle;fill:#000000;fill-opacity:1;stroke:none;font-family:Arial;-inkscape-font-specification:Arial"
       xml:space="preserve"><tspan
         y="637.34216"
         x="498.05334"
         id="tspan6224"
         sodipodi:role="line">Number of Particles</tspan></text>
    <text
       transform="matrix(0,-1,1,0,0,0)"
       xml:space="preserve"
       style="font-size:40px;font-style:normal;font-variant:normal;font-weight:normal;font-stretch:normal;text-align:center;line-height:125%;letter-spacing:0px;word-spacing:0px;writing-mode:lr-tb;text-anchor:middle;fill:#000000;fill-opacity:1;stroke:none;font-family:Arial;-inkscape-font-specification:Arial"
       x="-440.41949"
       y="130.82523"
       id="text6230"
       sodipodi:linespacing="125%"><tspan
         sodipodi:role="line"
         id="tspan6232"
         x="-440.41949"
         y="130.82523">Energy</tspan></text>
  </g>
  <text
     xml:space="preserve"
     style="font-size:70.86244202px;font-style:normal;font-variant:normal;font-weight:normal;font-stretch:normal;text-align:start;line-height:125%;letter-spacing:0px;word-spacing:0px;writing-mode:lr-tb;text-anchor:start;fill:#000000;fill-opacity:1;stroke:none;font-family:Arial;-inkscape-font-specification:Arial"
     x="437.72955"
     y="283.42715"
     id="divergence.function"
     sodipodi:linespacing="125%"
     inkscape:label="#text7988"><tspan
       sodipodi:role="line"
       id="tspan7990"
       x="437.72955"
       y="283.42715">E(n)</tspan></text>
  <path
     inkscape:label="#path6241"
     sodipodi:nodetypes="cc"
     inkscape:connector-curvature="0"
     id="divergence.curve"
     d="m 156.147,651.323 c 246.30331,-1.89559 513.65092,29.0487 769.90739,-340.59469"
     style="fill:none;stroke:url(#linearGradient3008);stroke-width:2;stroke-linecap:butt;stroke-linejoin:miter;stroke-miterlimit:4;stroke-opacity:1;stroke-dasharray:none;marker-end:none" />
</svg>
