<?xml version="1.0" encoding="UTF-8" standalone="no"?>
<svg
   xmlns:dc="http://purl.org/dc/elements/1.1/"
   xmlns:cc="http://creativecommons.org/ns#"
   xmlns:rdf="http://www.w3.org/1999/02/22-rdf-syntax-ns#"
   xmlns:svg="http://www.w3.org/2000/svg"
   xmlns="http://www.w3.org/2000/svg"
   xmlns:sodipodi="http://sodipodi.sourceforge.net/DTD/sodipodi-0.dtd"
   xmlns:inkscape="http://www.inkscape.org/namespaces/inkscape"
   height="768"
   width="1024"
   id="svg2"
   version="1.1"
   inkscape:version="0.48.2 r9819"
   sodipodi:docname="infinite_languages.svg">
  <metadata
     id="metadata26767">
    <rdf:RDF>
      <cc:Work
         rdf:about="">
        <dc:format>image/svg+xml</dc:format>
        <dc:type
           rdf:resource="http://purl.org/dc/dcmitype/StillImage" />
        <dc:title></dc:title>
      </cc:Work>
    </rdf:RDF>
  </metadata>
  <defs
     id="defs26765">
    <marker
       inkscape:stockid="Arrow1Mend"
       orient="auto"
       refY="0.0"
       refX="0.0"
       id="Arrow1Mend"
       style="overflow:visible;">
      <path
         id="path4343"
         d="M 0.0,0.0 L 5.0,-5.0 L -12.5,0.0 L 5.0,5.0 L 0.0,0.0 z "
         style="fill-rule:evenodd;stroke:#000000;stroke-width:1.0pt;marker-start:none;"
         transform="scale(0.4) rotate(180) translate(10,0)" />
    </marker>
    <marker
       inkscape:stockid="Arrow1Lend"
       orient="auto"
       refY="0.0"
       refX="0.0"
       id="Arrow1Lend"
       style="overflow:visible;">
      <path
         id="path4337"
         d="M 0.0,0.0 L 5.0,-5.0 L -12.5,0.0 L 5.0,5.0 L 0.0,0.0 z "
         style="fill-rule:evenodd;stroke:#000000;stroke-width:1.0pt;marker-start:none;"
         transform="scale(0.8) rotate(180) translate(12.5,0)" />
    </marker>
  </defs>
  <sodipodi:namedview
     pagecolor="#ffffff"
     bordercolor="#666666"
     borderopacity="1"
     objecttolerance="10"
     gridtolerance="10"
     guidetolerance="10"
     inkscape:pageopacity="0"
     inkscape:pageshadow="2"
     inkscape:window-width="1920"
     inkscape:window-height="1152"
     id="namedview26763"
     showgrid="true"
     inkscape:zoom="0.5"
     inkscape:cx="803.21423"
     inkscape:cy="531.45259"
     inkscape:window-x="0"
     inkscape:window-y="0"
     inkscape:window-maximized="1"
     inkscape:current-layer="svg2"
     showguides="true"
     inkscape:guide-bbox="true" />
  <rect
     y="-3.0517578e-05"
     x="2"
     width="1022"
     style="fill:#000000;fill-opacity:1;stroke:none;display:inline"
     id="rect3686"
     height="130" />
  <path
     style="font-size:12px;fill:#000000;fill-opacity:1;stroke:none"
     id="path608"
     d="m 37.79587,171.66187 c 3.66089,3.30643 25.12918,28.48007 31.49786,35.74692 -6.36868,6.63271 -24.13406,26.58919 -29.02204,32.54208 l 64.59646,0 0,-17.25716 c -5.72881,3.26065 -9.52652,6.821 -15.08001,10.47509 l -32.86092,0.12573 25.65852,-28.59756 0,-0.24654 -23.63287,-26.13223 c 7.4016,-0.28097 29.15249,0.37889 32.63585,0.13904 3.5689,2.98035 8.59236,7.30279 12.82929,10.21523 l 0,-17.0106 -66.62214,0 z"
     inkscape:connector-curvature="0" />
  <text
     xml:space="preserve"
     style="font-size:32.40000153px;font-style:normal;font-variant:normal;font-weight:normal;font-stretch:normal;text-align:start;line-height:125%;letter-spacing:0px;word-spacing:0px;writing-mode:lr-tb;text-anchor:start;fill:#000000;fill-opacity:1;stroke:none;font-family:Sans;-inkscape-font-specification:Sans"
     x="221.77585"
     y="216.74484"
     id="text3376"
     sodipodi:linespacing="125%"><tspan
       sodipodi:role="line"
       x="221.77585"
       y="216.74484"
       id="tspan3415">alphabet</tspan></text>
  <text
     xml:space="preserve"
     style="font-size:40px;font-style:normal;font-weight:normal;line-height:125%;letter-spacing:0px;word-spacing:0px;fill:#000000;fill-opacity:1;stroke:none;font-family:Sans"
     x="420.05292"
     y="385.69376"
     id="text4285"
     sodipodi:linespacing="125%"><tspan
       sodipodi:role="line"
       x="420.05292"
       y="385.69376"
       id="tspan4289" /></text>
  <path
     inkscape:connector-curvature="0"
     d="m 37.79587,339.66187 c 3.66089,3.30643 25.12918,28.48007 31.49786,35.74692 -6.36868,6.63271 -24.13406,26.58919 -29.02204,32.54208 l 64.59646,0 0,-17.25716 c -5.72881,3.26065 -9.52652,6.821 -15.08001,10.47509 l -32.86092,0.12573 25.65852,-28.59756 0,-0.24654 -23.63287,-26.13223 c 7.4016,-0.28097 29.15249,0.37889 32.63585,0.13904 3.5689,2.98035 8.59236,7.30279 12.82929,10.21523 l 0,-17.0106 -66.62214,0 z"
     id="path11128"
     style="font-size:12px;fill:#000000;fill-opacity:1;stroke:none" />
  <path
     style="font-size:12px;fill:#000000;fill-opacity:1;stroke:none"
     id="path11130"
     d="m 37.79587,645.66187 c 3.66089,3.30643 25.12918,28.48007 31.49786,35.74692 -6.36868,6.63271 -24.13406,26.58919 -29.02204,32.54208 l 64.59646,0 0,-17.25716 c -5.72881,3.26065 -9.52652,6.821 -15.08001,10.47509 l -32.86092,0.12573 25.65852,-28.59756 0,-0.24654 -23.63287,-26.13223 c 7.4016,-0.28097 29.15249,0.37889 32.63585,0.13904 3.5689,2.98035 8.59236,7.30279 12.82929,10.21523 l 0,-17.0106 -66.62214,0 z"
     inkscape:connector-curvature="0" />
  <path
     inkscape:connector-curvature="0"
     d="m 37.79587,483.66187 c 3.66089,3.30643 25.12918,28.48007 31.49786,35.74692 -6.36868,6.63271 -24.13406,26.58919 -29.02204,32.54208 l 64.59646,0 0,-17.25716 c -5.72881,3.26065 -9.52652,6.821 -15.08001,10.47509 l -32.86092,0.12573 25.65852,-28.59756 0,-0.24654 -23.63287,-26.13223 c 7.4016,-0.28097 29.15249,0.37889 32.63585,0.13904 3.5689,2.98035 8.59236,7.30279 12.82929,10.21523 l 0,-17.0106 -66.62214,0 z"
     id="path11132"
     style="font-size:12px;fill:#000000;fill-opacity:1;stroke:none" />
  <g
     id="g4297"
     transform="translate(31.7241,12.525999)">
    <path
       sodipodi:nodetypes="cc"
       inkscape:connector-curvature="0"
       id="path3445"
       d="m 126.79,187.474 30.97181,0"
       style="fill:none;stroke:#000000;stroke-width:4;stroke-linecap:butt;stroke-linejoin:miter;stroke-miterlimit:4;stroke-opacity:1;stroke-dasharray:none" />
    <path
       style="fill:none;stroke:#000000;stroke-width:4;stroke-linecap:butt;stroke-linejoin:miter;stroke-miterlimit:4;stroke-opacity:1;stroke-dasharray:none"
       d="m 126.79,197.474 30.97181,0"
       id="path3447"
       inkscape:connector-curvature="0"
       sodipodi:nodetypes="cc" />
  </g>
  <text
     xml:space="preserve"
     style="font-size:74px;font-style:normal;font-variant:normal;font-weight:normal;font-stretch:normal;text-align:start;line-height:125%;letter-spacing:0px;word-spacing:0px;writing-mode:lr-tb;text-anchor:start;fill:#000000;fill-opacity:1;stroke:none;font-family:Sans;-inkscape-font-specification:Sans"
     x="107.659"
     y="375.97604"
     id="text3427"
     sodipodi:linespacing="125%"><tspan
       sodipodi:role="line"
       id="tspan3429"
       x="107.659"
       y="375.97604">*</tspan></text>
  <text
     sodipodi:linespacing="125%"
     id="text11452"
     y="447.97604"
     x="107.659"
     style="font-size:74px;font-style:normal;font-variant:normal;font-weight:normal;font-stretch:normal;text-align:start;line-height:125%;letter-spacing:0px;word-spacing:0px;writing-mode:lr-tb;text-anchor:start;fill:#000000;fill-opacity:1;stroke:none;font-family:Sans;-inkscape-font-specification:Sans"
     xml:space="preserve"><tspan
       y="447.97604"
       x="107.659"
       id="tspan11454"
       sodipodi:role="line" /></text>
  <g
     style="font-size:12px;font-style:normal;font-weight:normal;fill:#000000;fill-opacity:1;stroke:#000000;stroke-width:1;stroke-linecap:square;stroke-linejoin:miter;stroke-miterlimit:10;stroke-opacity:1;stroke-dasharray:none;stroke-dashoffset:0;font-family:Dialog"
     id="g11552"
     transform="matrix(0.25418659,0,0,0.25418659,108.39756,567.69974)">
    <g
       id="g11542">
      <g
         id="g11544">
        <path
           id="path11546"
           d="m 152.2969,311.9062 q 0,21.9376 -11.8125,34.3126 -10.4063,11.1093 -26.1563,11.1093 -21.6562,0 -36.2812,-31.0781 -12.7969,25.3125 -35.1563,25.3125 -16.1718,0 -26.6484,-11.25 -10.4766,-11.25 -10.4766,-28.6875 0,-18.1406 9.5625,-29.1094 9.2813,-10.4062 23.9063,-10.4062 19.6875,0 31.9218,24.75 6.0469,-16.3125 15.1172,-23.2735 9.0704,-6.9609 24.5391,-6.9609 18.2813,0 29.8828,12.7969 11.6016,12.7969 11.6016,32.4843 z m -6.8907,0 q 0,-15.1874 -8.6484,-25.5937 -8.6484,-10.4063 -21.3047,-10.4063 -11.3906,0 -18.7031,9.1407 -2.5312,3.2343 -7.4531,14.625 -7.1719,17.1562 -8.0157,18.8437 8.0157,15.6094 15.0469,22.2188 8.0157,7.4531 18.5625,7.4531 13.7813,0 22.1485,-9.7734 8.3671,-9.7735 8.3671,-26.5079 z m -77.4843,-6.6093 q -11.1094,-23.9063 -29.1094,-23.9063 -11.9531,0 -19.0547,8.4375 -7.1016,8.4375 -7.1016,21.7969 0,12.9375 7.2422,21.8672 7.2422,8.9297 16.9454,8.9297 18.9843,0 31.0781,-37.125 z"
           inkscape:connector-curvature="0"
           style="stroke:none" />
      </g>
    </g>
  </g>
  <g
     style="font-size:12px;font-style:normal;font-weight:normal;fill:#000000;fill-opacity:1;stroke:#000000;stroke-width:1;stroke-linecap:square;stroke-linejoin:miter;stroke-miterlimit:10;stroke-opacity:1;stroke-dasharray:none;stroke-dashoffset:0;font-family:Dialog"
     id="g11628"
     transform="matrix(0.18530203,0,0,0.18530203,107.98692,427.99466)">
    <g
       id="g11618">
      <g
         id="g11620">
        <path
           id="path11622"
           d="m 188.2969,236.6719 q 22.2187,39.6562 22.2187,77.2031 0,36.2812 -15.3984,55.8984 -15.3984,19.6172 -39.3047,19.6172 -31.5,0 -45.5625,-33.75 -13.9219,33.75 -45.4219,33.75 -24.1875,0 -39.4453,-19.7578 Q 10.125,349.875 10.125,313.875 q 0,-37.5469 22.0781,-77.2031 l 24.4688,0 q -14.9063,34.4531 -18.0703,49.9922 -3.1641,15.539 -3.1641,28.0547 0,24.3281 9,39.5156 9,15.1875 23.2031,15.1875 12.9375,0 21.4453,-12.586 8.5079,-12.5859 8.5079,-34.1015 l 0,-48.6563 25.3124,0 0,48.6563 q 0,22.3594 8.1563,34.5234 8.1563,12.1641 21.7969,12.1641 14.2031,0 23.2734,-14.625 9.0703,-14.625 9.0703,-40.0781 0,-13.7813 -3.5156,-29.6719 -3.5156,-15.8907 -17.8594,-48.375 l 24.4688,0 z"
           inkscape:connector-curvature="0"
           style="stroke:none" />
      </g>
    </g>
  </g>
  <text
     sodipodi:linespacing="125%"
     id="text11633"
     y="384.74484"
     x="221.77585"
     style="font-size:32.40000153px;font-style:normal;font-variant:normal;font-weight:normal;font-stretch:normal;text-align:start;line-height:125%;letter-spacing:0px;word-spacing:0px;writing-mode:lr-tb;text-anchor:start;fill:#000000;fill-opacity:1;stroke:none;font-family:Sans;-inkscape-font-specification:Sans"
     xml:space="preserve"><tspan
       id="tspan11635"
       y="384.74484"
       x="221.77585"
       sodipodi:role="line">finite words</tspan></text>
  <g
     transform="translate(31.7241,180.526)"
     id="g11637">
    <path
       style="fill:none;stroke:#000000;stroke-width:4;stroke-linecap:butt;stroke-linejoin:miter;stroke-miterlimit:4;stroke-opacity:1;stroke-dasharray:none"
       d="m 126.79,187.474 30.97181,0"
       id="path11639"
       inkscape:connector-curvature="0"
       sodipodi:nodetypes="cc" />
    <path
       sodipodi:nodetypes="cc"
       inkscape:connector-curvature="0"
       id="path11641"
       d="m 126.79,197.474 30.97181,0"
       style="fill:none;stroke:#000000;stroke-width:4;stroke-linecap:butt;stroke-linejoin:miter;stroke-miterlimit:4;stroke-opacity:1;stroke-dasharray:none" />
  </g>
  <text
     xml:space="preserve"
     style="font-size:32.40000153px;font-style:normal;font-variant:normal;font-weight:normal;font-stretch:normal;text-align:start;line-height:125%;letter-spacing:0px;word-spacing:0px;writing-mode:lr-tb;text-anchor:start;fill:#000000;fill-opacity:1;stroke:none;font-family:Sans;-inkscape-font-specification:Sans"
     x="221.77585"
     y="528.74487"
     id="text11657"
     sodipodi:linespacing="125%"><tspan
       sodipodi:role="line"
       x="221.77585"
       y="528.74487"
       id="tspan11659">infinite words</tspan></text>
  <g
     id="g11661"
     transform="translate(31.7241,324.526)">
    <path
       sodipodi:nodetypes="cc"
       inkscape:connector-curvature="0"
       id="path11663"
       d="m 126.79,187.474 30.97181,0"
       style="fill:none;stroke:#000000;stroke-width:4;stroke-linecap:butt;stroke-linejoin:miter;stroke-miterlimit:4;stroke-opacity:1;stroke-dasharray:none" />
    <path
       style="fill:none;stroke:#000000;stroke-width:4;stroke-linecap:butt;stroke-linejoin:miter;stroke-miterlimit:4;stroke-opacity:1;stroke-dasharray:none"
       d="m 126.79,197.474 30.97181,0"
       id="path11665"
       inkscape:connector-curvature="0"
       sodipodi:nodetypes="cc" />
  </g>
  <g
     transform="translate(31.7241,486.526)"
     id="g11671">
    <path
       style="fill:none;stroke:#000000;stroke-width:4;stroke-linecap:butt;stroke-linejoin:miter;stroke-miterlimit:4;stroke-opacity:1;stroke-dasharray:none"
       d="m 126.79,187.474 30.97181,0"
       id="path11673"
       inkscape:connector-curvature="0"
       sodipodi:nodetypes="cc" />
    <path
       sodipodi:nodetypes="cc"
       inkscape:connector-curvature="0"
       id="path11675"
       d="m 126.79,197.474 30.97181,0"
       style="fill:none;stroke:#000000;stroke-width:4;stroke-linecap:butt;stroke-linejoin:miter;stroke-miterlimit:4;stroke-opacity:1;stroke-dasharray:none" />
  </g>
  <path
     style="font-size:12px;fill:#000000;fill-opacity:1;stroke:none"
     id="path11677"
     d="m 207.79587,645.66187 c 3.66089,3.30643 25.12918,28.48007 31.49786,35.74692 -6.36868,6.63271 -24.13406,26.58919 -29.02204,32.54208 l 64.59646,0 0,-17.25716 c -5.72881,3.26065 -9.52652,6.821 -15.08001,10.47509 l -32.86092,0.12573 25.65852,-28.59756 0,-0.24654 -23.63287,-26.13223 c 7.4016,-0.28097 29.15249,0.37889 32.63585,0.13904 3.5689,2.98035 8.59236,7.30279 12.82929,10.21523 l 0,-17.0106 -66.62214,0 z"
     inkscape:connector-curvature="0" />
  <text
     sodipodi:linespacing="125%"
     id="text11679"
     y="681.97607"
     x="277.659"
     style="font-size:74px;font-style:normal;font-variant:normal;font-weight:normal;font-stretch:normal;text-align:start;line-height:125%;letter-spacing:0px;word-spacing:0px;writing-mode:lr-tb;text-anchor:start;fill:#000000;fill-opacity:1;stroke:none;font-family:Sans;-inkscape-font-specification:Sans"
     xml:space="preserve"><tspan
       y="681.97607"
       x="277.659"
       id="tspan11681"
       sodipodi:role="line">*</tspan></text>
  <path
     style="font-size:12px;fill:#000000;fill-opacity:1;stroke:none"
     id="path11683"
     d="m 363.79587,645.66187 c 3.66089,3.30643 25.12918,28.48007 31.49786,35.74692 -6.36868,6.63271 -24.13406,26.58919 -29.02204,32.54208 l 64.59646,0 0,-17.25716 c -5.72881,3.26065 -9.52652,6.821 -15.08001,10.47509 l -32.86092,0.12573 25.65852,-28.59756 0,-0.24654 -23.63287,-26.13223 c 7.4016,-0.28097 29.15249,0.37889 32.63585,0.13904 3.5689,2.98035 8.59236,7.30279 12.82929,10.21523 l 0,-17.0106 -66.62214,0 z"
     inkscape:connector-curvature="0" />
  <g
     transform="matrix(0.18530203,0,0,0.18530203,433.98692,589.99466)"
     id="g11685"
     style="font-size:12px;font-style:normal;font-weight:normal;fill:#000000;fill-opacity:1;stroke:#000000;stroke-width:1;stroke-linecap:square;stroke-linejoin:miter;stroke-miterlimit:10;stroke-opacity:1;stroke-dasharray:none;stroke-dashoffset:0;font-family:Dialog">
    <g
       id="g11687">
      <g
         id="g11689">
        <path
           style="stroke:none"
           inkscape:connector-curvature="0"
           d="m 188.2969,236.6719 q 22.2187,39.6562 22.2187,77.2031 0,36.2812 -15.3984,55.8984 -15.3984,19.6172 -39.3047,19.6172 -31.5,0 -45.5625,-33.75 -13.9219,33.75 -45.4219,33.75 -24.1875,0 -39.4453,-19.7578 Q 10.125,349.875 10.125,313.875 q 0,-37.5469 22.0781,-77.2031 l 24.4688,0 q -14.9063,34.4531 -18.0703,49.9922 -3.1641,15.539 -3.1641,28.0547 0,24.3281 9,39.5156 9,15.1875 23.2031,15.1875 12.9375,0 21.4453,-12.586 8.5079,-12.5859 8.5079,-34.1015 l 0,-48.6563 25.3124,0 0,48.6563 q 0,22.3594 8.1563,34.5234 8.1563,12.1641 21.7969,12.1641 14.2031,0 23.2734,-14.625 9.0703,-14.625 9.0703,-40.0781 0,-13.7813 -3.5156,-29.6719 -3.5156,-15.8907 -17.8594,-48.375 l 24.4688,0 z"
           id="path11691" />
      </g>
    </g>
  </g>
  <path
     style="fill:none;stroke:#000000;stroke-width:4;stroke-linecap:butt;stroke-linejoin:miter;stroke-miterlimit:4;stroke-opacity:1;stroke-dasharray:none"
     d="m 322.77817,667.80761 0,11 c 0,0 -1.6414,16.85557 12.5,17 11.87868,0.12132 11.5,-17 11.5,-17 l 0,-11"
     id="path11693"
     inkscape:connector-curvature="0"
     sodipodi:nodetypes="ccscc" />
  <path
     sodipodi:nodetypes="cc"
     inkscape:connector-curvature="0"
     id="path3401"
     d="m 1026.589,287.3684 -1027.9980318,0"
     style="fill:none;stroke:#000000;stroke-width:2;stroke-linecap:butt;stroke-linejoin:miter;stroke-miterlimit:4;stroke-opacity:1;stroke-dasharray:none" />
  <path
     style="fill:none;stroke:#000000;stroke-width:2;stroke-linecap:butt;stroke-linejoin:miter;stroke-miterlimit:4;stroke-opacity:1;stroke-dasharray:none"
     d="m 1026.589,439.3684 -1027.9980318,0"
     id="path15299"
     inkscape:connector-curvature="0"
     sodipodi:nodetypes="cc" />
  <path
     sodipodi:nodetypes="cc"
     inkscape:connector-curvature="0"
     id="path15301"
     d="m 1026.589,597.3684 -1027.9980318,0"
     style="fill:none;stroke:#000000;stroke-width:2;stroke-linecap:butt;stroke-linejoin:miter;stroke-miterlimit:4;stroke-opacity:1;stroke-dasharray:none" />
  <path
     style="fill:none;stroke:#000000;stroke-width:2;stroke-linecap:butt;stroke-linejoin:miter;stroke-miterlimit:4;stroke-opacity:1;stroke-dasharray:none"
     d="m 499.81651,127.38608 2.3e-4,643.48498"
     id="path3372"
     inkscape:connector-curvature="0"
     sodipodi:nodetypes="cc" />
  <g
     id="g15573"
     transform="translate(25.99574,0)">
    <path
       class="punch_line_bottom_set punch_line_non_focus"
       style="font-size:12px;font-weight:normal;fill:#000000;fill-opacity:1;stroke:none;marker-end:none;font-family:Bitstream Vera Sans Mono"
       id="path627"
       d="m 685.71581,238.04666 0,5.28046 -1.89083,0 c -4.90432,0 -8.19357,-0.90451 -9.86774,-2.71361 -1.65447,-1.80902 -2.48171,-5.41488 -2.48171,-10.81757 l 0,-8.76409 c 0,-3.69144 -0.53179,-6.24609 -1.59537,-7.66399 -1.04391,-1.41791 -2.94458,-2.12685 -5.70203,-2.12685 l -1.83173,0 0,-5.24379 1.83173,0 c 2.77715,0 4.68767,-0.69672 5.73156,-2.09019 1.0439,-1.39344 1.56584,-3.92366 1.56584,-7.59065 l 0,-8.80076 c 0,-5.40268 0.82724,-8.99633 2.48171,-10.78093 1.67417,-1.80905 4.96342,-2.71357 9.86774,-2.71357 l 1.89083,0 0,5.24378 -2.06809,0 c -2.75744,0 -4.55966,0.53783 -5.40658,1.61348 -0.82723,1.0512 -1.24084,3.31251 -1.24084,6.78393 l 0,9.09412 c 0,3.83811 -0.45302,6.625 -1.35906,8.36072 -0.88632,1.7357 -2.41274,2.90913 -4.57932,3.52029 2.18626,0.66006 3.72257,1.85795 4.60888,3.59364 0.88633,1.73572 1.3295,4.5104 1.3295,8.32406 l 0,9.09412 c 0,3.49583 0.41361,5.76941 1.24084,6.82057 0.84692,1.0512 2.64914,1.57683 5.40658,1.57683 l 2.06809,0 z"
       inkscape:connector-curvature="0" />
    <path
       class="punch_line_bottom_set punch_line_non_focus"
       style="font-size:12px;font-weight:normal;fill:#000000;fill-opacity:1;stroke:none;marker-end:none;font-family:Bitstream Vera Sans Mono"
       id="path626"
       d="m 792.29269,238.04666 0,5.28046 1.89083,0 c 4.90433,0 8.19357,-0.90452 9.86774,-2.71362 1.65449,-1.80902 2.48171,-5.41488 2.48171,-10.81757 l 0,-8.76409 c 0,-3.69142 0.53179,-6.24609 1.59539,-7.66399 1.0439,-1.4179 2.94456,-2.12686 5.70199,-2.12686 l 1.83177,0 0,-5.24378 -1.83177,0 c -2.77716,0 -4.68764,-0.69672 -5.73152,-2.09018 -1.04394,-1.39346 -1.56586,-3.92368 -1.56586,-7.59066 l 0,-8.80075 c 0,-5.4027 -0.82723,-8.99633 -2.48172,-10.78093 -1.67416,-1.80906 -4.9634,-2.71357 -9.86774,-2.71357 l -1.89082,0 0,5.24379 2.0681,0 c 2.75744,0 4.55962,0.5378 5.40656,1.61346 0.82722,1.05121 1.24088,3.31251 1.24088,6.78392 l 0,9.09412 c 0,3.83811 0.45299,6.62501 1.35903,8.36073 0.88631,1.7357 2.41274,2.90913 4.57932,3.5203 -2.18624,0.66005 -3.72256,1.85794 -4.60887,3.59364 -0.88632,1.73571 -1.32948,4.51039 -1.32948,8.32406 l 0,9.09411 c 0,3.49583 -0.41366,5.76941 -1.24088,6.82056 -0.84694,1.05121 -2.64912,1.57685 -5.40656,1.57685 l -2.0681,0 z"
       inkscape:connector-curvature="0" />
    <text
       sodipodi:linespacing="125%"
       id="text4281"
       y="219.5921"
       x="692.15234"
       style="font-size:40px;font-style:normal;font-weight:normal;line-height:125%;letter-spacing:0px;word-spacing:0px;fill:#000000;fill-opacity:1;stroke:none;font-family:Sans"
       xml:space="preserve"><tspan
         id="tspan5883"
         y="219.5921"
         x="692.15234"
         sodipodi:role="line">a</tspan></text>
    <text
       xml:space="preserve"
       style="font-size:40px;font-style:normal;font-weight:normal;line-height:125%;letter-spacing:0px;word-spacing:0px;fill:#000000;fill-opacity:1;stroke:none;font-family:Sans"
       x="763.06934"
       y="219.61165"
       id="text5887"
       sodipodi:linespacing="125%"><tspan
         sodipodi:role="line"
         x="763.06934"
         y="219.61165"
         id="tspan5889">z</tspan></text>
    <path
       inkscape:connector-curvature="0"
       id="path5891"
       d="m 728,208 20,0"
       style="fill:none;stroke:#000000;stroke-width:4;stroke-linecap:butt;stroke-linejoin:miter;stroke-miterlimit:4;stroke-opacity:1;stroke-dasharray:none" />
  </g>
  <path
     sodipodi:type="arc"
     style="fill:#000000;fill-opacity:1;stroke:none;stroke-width:2;marker-end:none"
     id="path5915"
     sodipodi:cx="460"
     sodipodi:cy="373"
     sodipodi:rx="10"
     sodipodi:ry="15"
     d="m 470,373 a 10,15 0 1 1 -20,0 10,15 0 1 1 20,0 z"
     transform="matrix(0.60050772,0,0,0.4003385,273.76645,190.67882)" />
  <text
     xml:space="preserve"
     style="font-size:40px;font-style:normal;font-weight:normal;line-height:125%;letter-spacing:0px;word-spacing:0px;fill:#000000;fill-opacity:1;stroke:none;font-family:Sans"
     x="580"
     y="350.9328"
     id="text6285"
     sodipodi:linespacing="125%"><tspan
       sodipodi:role="line"
       id="tspan6287"
       x="580"
       y="350.9328">ε</tspan></text>
  <text
     xml:space="preserve"
     style="font-size:40px;font-style:normal;font-weight:normal;line-height:125%;letter-spacing:0px;word-spacing:0px;fill:#000000;fill-opacity:1;stroke:none;font-family:Sans"
     x="580.19531"
     y="658.92303"
     id="text6303"
     sodipodi:linespacing="125%"><tspan
       sodipodi:role="line"
       id="tspan6305"
       x="580.19531"
       y="658.92303">xxyyxyyz</tspan></text>
  <text
     xml:space="preserve"
     style="font-size:40px;font-style:normal;font-weight:normal;line-height:125%;letter-spacing:0px;word-spacing:0px;fill:#000000;fill-opacity:1;stroke:none;font-family:Sans"
     x="580.19531"
     y="498.91718"
     id="text6307"
     sodipodi:linespacing="125%"><tspan
       sodipodi:role="line"
       id="tspan6309"
       x="580.19531"
       y="498.91718">eeeeeeeeeeeeeee...</tspan></text>
  <path
     transform="matrix(0.60050772,0,0,0.4003385,273.76645,498.67882)"
     d="m 470,373 a 10,15 0 1 1 -20,0 10,15 0 1 1 20,0 z"
     sodipodi:ry="15"
     sodipodi:rx="10"
     sodipodi:cy="373"
     sodipodi:cx="460"
     id="path6311"
     style="fill:#000000;fill-opacity:1;stroke:none;stroke-width:2;marker-end:none"
     sodipodi:type="arc" />
  <path
     sodipodi:type="arc"
     style="fill:#000000;fill-opacity:1;stroke:none;stroke-width:2;marker-end:none"
     id="path6313"
     sodipodi:cx="460"
     sodipodi:cy="373"
     sodipodi:rx="10"
     sodipodi:ry="15"
     d="m 470,373 a 10,15 0 1 1 -20,0 10,15 0 1 1 20,0 z"
     transform="matrix(0.60050772,0,0,0.4003385,273.76645,334.67882)" />
  <path
     transform="matrix(0.60050772,0,0,0.4003385,273.76645,402.67882)"
     d="m 470,373 a 10,15 0 1 1 -20,0 10,15 0 1 1 20,0 z"
     sodipodi:ry="15"
     sodipodi:rx="10"
     sodipodi:cy="373"
     sodipodi:cx="460"
     id="path6333"
     style="fill:#000000;fill-opacity:1;stroke:none;stroke-width:2;marker-end:none"
     sodipodi:type="arc" />
  <text
     sodipodi:linespacing="125%"
     id="text15555"
     y="566.91718"
     x="580.19531"
     style="font-size:40px;font-style:normal;font-weight:normal;line-height:125%;letter-spacing:0px;word-spacing:0px;fill:#000000;fill-opacity:1;stroke:none;font-family:Sans"
     xml:space="preserve"><tspan
       y="566.91718"
       x="580.19531"
       id="tspan15557"
       sodipodi:role="line">abcabcabcabcabc...</tspan></text>
  <path
     sodipodi:type="arc"
     style="fill:#000000;fill-opacity:1;stroke:none;stroke-width:2;marker-end:none"
     id="path15559"
     sodipodi:cx="460"
     sodipodi:cy="373"
     sodipodi:rx="10"
     sodipodi:ry="15"
     d="m 470,373 a 10,15 0 1 1 -20,0 10,15 0 1 1 20,0 z"
     transform="matrix(0.60050772,0,0,0.4003385,273.76645,558.67882)" />
  <text
     xml:space="preserve"
     style="font-size:40px;font-style:normal;font-weight:normal;line-height:125%;letter-spacing:0px;word-spacing:0px;fill:#000000;fill-opacity:1;stroke:none;font-family:Sans"
     x="580.19531"
     y="722.91718"
     id="text15561"
     sodipodi:linespacing="125%"><tspan
       sodipodi:role="line"
       id="tspan15563"
       x="580.19531"
       y="722.91718">abbaaabbbbaaaaa...</tspan></text>
  <text
     sodipodi:linespacing="125%"
     id="text15565"
     y="408.92303"
     x="580.19531"
     style="font-size:40px;font-style:normal;font-weight:normal;line-height:125%;letter-spacing:0px;word-spacing:0px;fill:#000000;fill-opacity:1;stroke:none;font-family:Sans"
     xml:space="preserve"><tspan
       y="408.92303"
       x="580.19531"
       id="tspan15567"
       sodipodi:role="line">aaa</tspan></text>
  <path
     sodipodi:type="arc"
     style="fill:#000000;fill-opacity:1;stroke:none;stroke-width:2;marker-end:none"
     id="path15569"
     sodipodi:cx="460"
     sodipodi:cy="373"
     sodipodi:rx="10"
     sodipodi:ry="15"
     d="m 470,373 a 10,15 0 1 1 -20,0 10,15 0 1 1 20,0 z"
     transform="matrix(0.60050772,0,0,0.4003385,273.76645,248.67882)" />
</svg>
