<?xml version="1.0" encoding="UTF-8" standalone="no"?>
<svg
   xmlns:dc="http://purl.org/dc/elements/1.1/"
   xmlns:cc="http://creativecommons.org/ns#"
   xmlns:rdf="http://www.w3.org/1999/02/22-rdf-syntax-ns#"
   xmlns:svg="http://www.w3.org/2000/svg"
   xmlns="http://www.w3.org/2000/svg"
   xmlns:sodipodi="http://sodipodi.sourceforge.net/DTD/sodipodi-0.dtd"
   xmlns:inkscape="http://www.inkscape.org/namespaces/inkscape"
   height="768"
   width="1024"
   id="svg2"
   version="1.1"
   inkscape:version="0.48.2 r9819"
   sodipodi:docname="infinite_rational_operations.svg">
  <metadata
     id="metadata26767">
    <rdf:RDF>
      <cc:Work
         rdf:about="">
        <dc:format>image/svg+xml</dc:format>
        <dc:type
           rdf:resource="http://purl.org/dc/dcmitype/StillImage" />
        <dc:title></dc:title>
      </cc:Work>
    </rdf:RDF>
  </metadata>
  <defs
     id="defs26765" />
  <sodipodi:namedview
     pagecolor="#ffffff"
     bordercolor="#666666"
     borderopacity="1"
     objecttolerance="10"
     gridtolerance="10"
     guidetolerance="10"
     inkscape:pageopacity="0"
     inkscape:pageshadow="2"
     inkscape:window-width="1920"
     inkscape:window-height="1152"
     id="namedview26763"
     showgrid="false"
     inkscape:zoom="0.73058494"
     inkscape:cx="644.51738"
     inkscape:cy="326.81402"
     inkscape:window-x="0"
     inkscape:window-y="0"
     inkscape:window-maximized="1"
     inkscape:current-layer="svg2"
     showguides="true"
     inkscape:guide-bbox="true" />
  <rect
     style="fill:#1fd800;fill-opacity:0.06730772;stroke:#1fd800;stroke-opacity:1"
     id="rect16050"
     width="685.63873"
     height="61.05603"
     x="234.52493"
     y="500.88123" />
  <rect
     y="426.88123"
     x="235.89369"
     height="61.05603"
     width="665.92291"
     id="rect4704"
     style="fill:#1fd800;fill-opacity:0.06730772;stroke:#1fd800;stroke-opacity:1" />
  <rect
     style="fill:#0001d8;fill-opacity:0.06730772;stroke:#0800f2;stroke-opacity:1"
     id="rect4698"
     width="132.77032"
     height="46.53804"
     x="24.637793"
     y="431.65625" />
  <rect
     y="357.65625"
     x="24.637793"
     height="46.53804"
     width="132.77032"
     id="rect4696"
     style="fill:#0001d8;fill-opacity:0.06730772;stroke:#0800f2;stroke-opacity:1" />
  <rect
     style="fill:#0001d8;fill-opacity:0.06730772;stroke:#0800f2;stroke-opacity:1"
     id="rect4694"
     width="132.77032"
     height="46.53804"
     x="24.637793"
     y="207.65623" />
  <rect
     y="-3.0517578e-05"
     x="2"
     width="1022"
     style="fill:#000000;fill-opacity:1;stroke:none;display:inline"
     id="rect3686"
     height="130" />
  <text
     xml:space="preserve"
     style="font-size:40px;font-style:normal;font-variant:normal;font-weight:normal;font-stretch:normal;text-align:start;line-height:125%;letter-spacing:0px;word-spacing:0px;writing-mode:lr-tb;text-anchor:start;fill:#000000;fill-opacity:1;stroke:none;font-family:Arial;-inkscape-font-specification:Arial"
     x="32.770317"
     y="244.73233"
     id="text3062"
     sodipodi:linespacing="125%"><tspan
       sodipodi:role="line"
       id="tspan3064"
       x="32.770317"
       y="244.73233">X</tspan></text>
  <path
     sodipodi:type="arc"
     style="fill:#000000;fill-opacity:1;stroke:none"
     id="path3066"
     sodipodi:cx="247.74669"
     sodipodi:cy="325.88852"
     sodipodi:rx="3.4219155"
     sodipodi:ry="3.4219155"
     d="m 251.1686,325.88852 a 3.4219155,3.4219155 0 1 1 -6.84383,0 3.4219155,3.4219155 0 1 1 6.84383,0 z"
     transform="translate(-66,-104)" />
  <path
     transform="translate(-66,-88)"
     d="m 251.1686,325.88852 a 3.4219155,3.4219155 0 1 1 -6.84383,0 3.4219155,3.4219155 0 1 1 6.84383,0 z"
     sodipodi:ry="3.4219155"
     sodipodi:rx="3.4219155"
     sodipodi:cy="325.88852"
     sodipodi:cx="247.74669"
     id="path3074"
     style="fill:#000000;fill-opacity:1;stroke:none"
     sodipodi:type="arc" />
  <g
     id="g4358"
     transform="translate(6,-70)">
    <path
       inkscape:connector-curvature="0"
       id="path3070"
       d="m 186.43763,291.88852 21.90026,0"
       style="fill:none;stroke:#000000;stroke-width:4;stroke-linecap:butt;stroke-linejoin:miter;stroke-miterlimit:4;stroke-opacity:1;stroke-dasharray:none" />
    <path
       style="fill:none;stroke:#000000;stroke-width:4;stroke-linecap:butt;stroke-linejoin:miter;stroke-miterlimit:4;stroke-opacity:1;stroke-dasharray:none"
       d="m 186.43763,307.88852 21.90026,0"
       id="path3076"
       inkscape:connector-curvature="0" />
  </g>
  <path
     inkscape:connector-curvature="0"
     d="m 259.22077,252.7812 0,3.84946 -1.37842,0 c -3.57525,0 -5.97311,-0.65939 -7.19358,-1.97823 -1.20611,-1.31877 -1.80916,-3.94745 -1.80916,-7.886 l 0,-6.38903 c 0,-2.69106 -0.38768,-4.55339 -1.16303,-5.58704 -0.76101,-1.03366 -2.1466,-1.55048 -4.15678,-1.55048 l -1.33532,0 0,-3.82272 1.33532,0 c 2.02455,0 3.41731,-0.50791 4.17831,-1.52375 0.761,-1.01582 1.1415,-2.86035 1.1415,-5.53358 l 0,-6.41576 c 0,-3.93855 0.60305,-6.55833 1.80916,-7.8593 1.22047,-1.31879 3.61833,-1.97819 7.19358,-1.97819 l 1.37842,0 0,3.82272 -1.50764,0 c -2.01017,0 -3.32399,0.39207 -3.9414,1.17622 -0.60304,0.76633 -0.90456,2.41482 -0.90456,4.94549 l 0,6.62961 c 0,2.79799 -0.33026,4.82963 -0.99077,6.09497 -0.64612,1.26532 -1.75887,2.12075 -3.33832,2.56629 1.59379,0.48119 2.71376,1.35445 3.35988,2.61976 0.64613,1.26534 0.96921,3.28808 0.96921,6.06825 l 0,6.62961 c 0,2.54845 0.30152,4.20589 0.90456,4.9722 0.61741,0.76632 1.93123,1.1495 3.9414,1.1495 l 1.50764,0 z"
     id="path627"
     style="font-size:12px;font-weight:normal;fill:#000000;fill-opacity:1;stroke:none;marker-end:none;font-family:Bitstream Vera Sans Mono"
     class="punch_line_bottom_set punch_line_non_focus" />
  <path
     inkscape:connector-curvature="0"
     d="m 624.91532,252.7812 0,3.84946 1.37841,0 c 3.57526,0 5.97311,-0.6594 7.19358,-1.97823 1.20613,-1.31878 1.80917,-3.94745 1.80917,-7.88601 l 0,-6.38903 c 0,-2.69104 0.38767,-4.55339 1.16304,-5.58704 0.761,-1.03365 2.14658,-1.55049 4.15675,-1.55049 l 1.33535,0 0,-3.82271 -1.33535,0 c -2.02454,0 -3.41729,-0.50791 -4.17828,-1.52374 -0.76103,-1.01584 -1.14151,-2.86036 -1.14151,-5.53359 l 0,-6.41575 c 0,-3.93856 -0.60305,-6.55833 -1.80918,-7.8593 -1.22045,-1.3188 -3.61831,-1.97819 -7.19357,-1.97819 l -1.37841,0 0,3.82273 1.50764,0 c 2.01017,0 3.32397,0.39205 3.94138,1.17621 0.60304,0.76633 0.9046,2.41481 0.9046,4.94547 l 0,6.62961 c 0,2.79799 0.33023,4.82964 0.99074,6.09498 0.64612,1.26532 1.75888,2.12076 3.33832,2.5663 -1.59377,0.48118 -2.71375,1.35444 -3.35986,2.61976 -0.64613,1.26533 -0.9692,3.28807 -0.9692,6.06825 l 0,6.6296 c 0,2.54845 -0.30156,4.2059 -0.9046,4.97219 -0.61741,0.76633 -1.93121,1.14952 -3.94138,1.14952 l -1.50764,0 z"
     id="path626"
     style="font-size:12px;font-weight:normal;fill:#000000;fill-opacity:1;stroke:none;marker-end:none;font-family:Bitstream Vera Sans Mono"
     class="punch_line_bottom_set punch_line_non_focus" />
  <text
     xml:space="preserve"
     style="font-size:40px;font-style:normal;font-variant:normal;font-weight:normal;font-stretch:normal;text-align:start;line-height:125%;letter-spacing:0px;word-spacing:0px;writing-mode:lr-tb;text-anchor:start;fill:#000000;fill-opacity:1;stroke:none;font-family:Arial;-inkscape-font-specification:Arial"
     x="278.17395"
     y="243.45065"
     id="text4203"
     sodipodi:linespacing="125%"><tspan
       sodipodi:role="line"
       id="tspan4205"
       x="278.17395"
       y="243.45065">w      w is in X or Y</tspan></text>
  <path
     style="fill:none;stroke:#000000;stroke-width:4;stroke-linecap:butt;stroke-linejoin:miter;stroke-miterlimit:4;stroke-opacity:1;stroke-dasharray:none"
     d="m 340.94518,208.13989 0,46.45746"
     id="path4207"
     inkscape:connector-curvature="0" />
  <text
     xml:space="preserve"
     style="font-size:40px;font-style:normal;font-variant:normal;font-weight:normal;font-stretch:normal;text-align:start;line-height:125%;letter-spacing:0px;word-spacing:0px;writing-mode:lr-tb;text-anchor:start;fill:#000000;fill-opacity:1;stroke:none;font-family:Arial;-inkscape-font-specification:Arial"
     x="10.531041"
     y="178.49362"
     id="text4213"
     sodipodi:linespacing="125%"><tspan
       sodipodi:role="line"
       id="tspan4215"
       x="10.531041"
       y="178.49362">No precondition on X or Y:</tspan></text>
  <text
     sodipodi:linespacing="125%"
     id="text4277"
     y="244.73233"
     x="122.77032"
     style="font-size:40px;font-style:normal;font-variant:normal;font-weight:normal;font-stretch:normal;text-align:start;line-height:125%;letter-spacing:0px;word-spacing:0px;writing-mode:lr-tb;text-anchor:start;fill:#000000;fill-opacity:1;stroke:none;font-family:Arial;-inkscape-font-specification:Arial"
     xml:space="preserve"><tspan
       y="244.73233"
       x="122.77032"
       id="tspan4279"
       sodipodi:role="line">Y</tspan></text>
  <g
     id="g4340"
     transform="translate(0,-70)">
    <path
       inkscape:connector-curvature="0"
       id="path4281"
       d="m 93.882797,311.16824 0,-20.32514 0,22.26087"
       style="fill:none;stroke:#000000;stroke-width:3;stroke-linecap:butt;stroke-linejoin:miter;stroke-miterlimit:4;stroke-opacity:1;stroke-dasharray:none" />
    <path
       style="fill:none;stroke:#000000;stroke-width:3;stroke-linecap:butt;stroke-linejoin:miter;stroke-miterlimit:4;stroke-opacity:1;stroke-dasharray:none"
       d="m 84.688092,301.97354 20.325138,0 -22.260868,0"
       id="path4283"
       inkscape:connector-curvature="0" />
  </g>
  <rect
     style="fill:none;stroke:#000000;stroke-opacity:1"
     id="rect4285"
     width="1001.739"
     height="75.489883"
     x="12.582231"
     y="193.74292" />
  <text
     sodipodi:linespacing="125%"
     id="text4376"
     y="394.73233"
     x="32.770317"
     style="font-size:40px;font-style:normal;font-variant:normal;font-weight:normal;font-stretch:normal;text-align:start;line-height:125%;letter-spacing:0px;word-spacing:0px;writing-mode:lr-tb;text-anchor:start;fill:#000000;fill-opacity:1;stroke:none;font-family:Arial;-inkscape-font-specification:Arial"
     xml:space="preserve"><tspan
       y="394.73233"
       x="32.770317"
       id="tspan4378"
       sodipodi:role="line">X</tspan></text>
  <path
     transform="translate(-66,46)"
     d="m 251.1686,325.88852 a 3.4219155,3.4219155 0 1 1 -6.84383,0 3.4219155,3.4219155 0 1 1 6.84383,0 z"
     sodipodi:ry="3.4219155"
     sodipodi:rx="3.4219155"
     sodipodi:cy="325.88852"
     sodipodi:cx="247.74669"
     id="path4380"
     style="fill:#000000;fill-opacity:1;stroke:none"
     sodipodi:type="arc" />
  <path
     sodipodi:type="arc"
     style="fill:#000000;fill-opacity:1;stroke:none"
     id="path4382"
     sodipodi:cx="247.74669"
     sodipodi:cy="325.88852"
     sodipodi:rx="3.4219155"
     sodipodi:ry="3.4219155"
     d="m 251.1686,325.88852 a 3.4219155,3.4219155 0 1 1 -6.84383,0 3.4219155,3.4219155 0 1 1 6.84383,0 z"
     transform="translate(-66,62)" />
  <g
     id="g4384"
     transform="translate(6,80)">
    <path
       style="fill:none;stroke:#000000;stroke-width:4;stroke-linecap:butt;stroke-linejoin:miter;stroke-miterlimit:4;stroke-opacity:1;stroke-dasharray:none"
       d="m 186.43763,291.88852 21.90026,0"
       id="path4386"
       inkscape:connector-curvature="0" />
    <path
       inkscape:connector-curvature="0"
       id="path4388"
       d="m 186.43763,307.88852 21.90026,0"
       style="fill:none;stroke:#000000;stroke-width:4;stroke-linecap:butt;stroke-linejoin:miter;stroke-miterlimit:4;stroke-opacity:1;stroke-dasharray:none" />
  </g>
  <path
     class="punch_line_bottom_set punch_line_non_focus"
     style="font-size:12px;font-weight:normal;fill:#000000;fill-opacity:1;stroke:none;marker-end:none;font-family:Bitstream Vera Sans Mono"
     id="path4390"
     d="m 259.22077,402.7812 0,3.84946 -1.37842,0 c -3.57525,0 -5.97311,-0.65939 -7.19358,-1.97823 -1.20611,-1.31877 -1.80916,-3.94745 -1.80916,-7.886 l 0,-6.38903 c 0,-2.69106 -0.38768,-4.55339 -1.16303,-5.58704 -0.76101,-1.03366 -2.1466,-1.55048 -4.15678,-1.55048 l -1.33532,0 0,-3.82272 1.33532,0 c 2.02455,0 3.41731,-0.50791 4.17831,-1.52375 0.761,-1.01582 1.1415,-2.86035 1.1415,-5.53358 l 0,-6.41576 c 0,-3.93855 0.60305,-6.55833 1.80916,-7.8593 1.22047,-1.31879 3.61833,-1.97819 7.19358,-1.97819 l 1.37842,0 0,3.82272 -1.50764,0 c -2.01017,0 -3.32399,0.39207 -3.9414,1.17622 -0.60304,0.76633 -0.90456,2.41482 -0.90456,4.94549 l 0,6.62961 c 0,2.79799 -0.33026,4.82963 -0.99077,6.09497 -0.64612,1.26532 -1.75887,2.12075 -3.33832,2.56629 1.59379,0.48119 2.71376,1.35445 3.35988,2.61976 0.64613,1.26534 0.96921,3.28808 0.96921,6.06825 l 0,6.62961 c 0,2.54845 0.30152,4.20589 0.90456,4.9722 0.61741,0.76632 1.93123,1.1495 3.9414,1.1495 l 1.50764,0 z"
     inkscape:connector-curvature="0" />
  <path
     class="punch_line_bottom_set punch_line_non_focus"
     style="font-size:12px;font-weight:normal;fill:#000000;fill-opacity:1;stroke:none;marker-end:none;font-family:Bitstream Vera Sans Mono"
     id="path4392"
     d="m 774.91532,402.7812 0,3.84946 1.37841,0 c 3.57526,0 5.97311,-0.6594 7.19358,-1.97823 1.20613,-1.31878 1.80917,-3.94745 1.80917,-7.88601 l 0,-6.38903 c 0,-2.69104 0.38767,-4.55339 1.16304,-5.58704 0.761,-1.03365 2.14658,-1.55049 4.15675,-1.55049 l 1.33535,0 0,-3.82271 -1.33535,0 c -2.02454,0 -3.41729,-0.50791 -4.17828,-1.52374 -0.76103,-1.01584 -1.14151,-2.86036 -1.14151,-5.53359 l 0,-6.41575 c 0,-3.93856 -0.60305,-6.55833 -1.80918,-7.8593 -1.22045,-1.3188 -3.61831,-1.97819 -7.19357,-1.97819 l -1.37841,0 0,3.82273 1.50764,0 c 2.01017,0 3.32397,0.39205 3.94138,1.17621 0.60304,0.76633 0.9046,2.41481 0.9046,4.94547 l 0,6.62961 c 0,2.79799 0.33023,4.82964 0.99074,6.09498 0.64612,1.26532 1.75888,2.12076 3.33832,2.5663 -1.59377,0.48118 -2.71375,1.35444 -3.35986,2.61976 -0.64613,1.26533 -0.9692,3.28807 -0.9692,6.06825 l 0,6.6296 c 0,2.54845 -0.30156,4.2059 -0.9046,4.97219 -0.61741,0.76633 -1.93121,1.14952 -3.94138,1.14952 l -1.50764,0 z"
     inkscape:connector-curvature="0" />
  <text
     sodipodi:linespacing="125%"
     id="text4394"
     y="393.45065"
     x="278.17395"
     style="font-size:40px;font-style:normal;font-variant:normal;font-weight:normal;font-stretch:normal;text-align:start;line-height:125%;letter-spacing:0px;word-spacing:0px;writing-mode:lr-tb;text-anchor:start;fill:#000000;fill-opacity:1;stroke:none;font-family:Arial;-inkscape-font-specification:Arial"
     xml:space="preserve"><tspan
       y="393.45065"
       x="278.17395"
       id="tspan4396"
       sodipodi:role="line">xy      x is in X and y is in Y</tspan></text>
  <path
     inkscape:connector-curvature="0"
     id="path4398"
     d="m 350.94518,358.13989 0,46.45746"
     style="fill:none;stroke:#000000;stroke-width:4;stroke-linecap:butt;stroke-linejoin:miter;stroke-miterlimit:4;stroke-opacity:1;stroke-dasharray:none" />
  <text
     xml:space="preserve"
     style="font-size:40px;font-style:normal;font-variant:normal;font-weight:normal;font-stretch:normal;text-align:start;line-height:125%;letter-spacing:0px;word-spacing:0px;writing-mode:lr-tb;text-anchor:start;fill:#000000;fill-opacity:1;stroke:none;font-family:Arial;-inkscape-font-specification:Arial"
     x="122.77032"
     y="394.73233"
     id="text4404"
     sodipodi:linespacing="125%"><tspan
       sodipodi:role="line"
       id="tspan4406"
       x="122.77032"
       y="394.73233">Y</tspan></text>
  <rect
     y="344.44699"
     x="12.567411"
     height="224.23378"
     width="1001.7687"
     id="rect4414"
     style="fill:none;stroke:#000000;stroke-width:0.97036099;stroke-opacity:1" />
  <path
     sodipodi:type="arc"
     style="fill:#000000;fill-opacity:1;stroke:none"
     id="path4456"
     sodipodi:cx="247.74669"
     sodipodi:cy="325.88852"
     sodipodi:rx="3.4219155"
     sodipodi:ry="3.4219155"
     d="m 251.1686,325.88852 a 3.4219155,3.4219155 0 1 1 -6.84383,0 3.4219155,3.4219155 0 1 1 6.84383,0 z"
     transform="translate(-66,124)" />
  <path
     transform="translate(-66,140)"
     d="m 251.1686,325.88852 a 3.4219155,3.4219155 0 1 1 -6.84383,0 3.4219155,3.4219155 0 1 1 6.84383,0 z"
     sodipodi:ry="3.4219155"
     sodipodi:rx="3.4219155"
     sodipodi:cy="325.88852"
     sodipodi:cx="247.74669"
     id="path4458"
     style="fill:#000000;fill-opacity:1;stroke:none"
     sodipodi:type="arc" />
  <g
     transform="translate(6,158)"
     id="g4460">
    <path
       inkscape:connector-curvature="0"
       id="path4462"
       d="m 186.43763,291.88852 21.90026,0"
       style="fill:none;stroke:#000000;stroke-width:4;stroke-linecap:butt;stroke-linejoin:miter;stroke-miterlimit:4;stroke-opacity:1;stroke-dasharray:none" />
    <path
       style="fill:none;stroke:#000000;stroke-width:4;stroke-linecap:butt;stroke-linejoin:miter;stroke-miterlimit:4;stroke-opacity:1;stroke-dasharray:none"
       d="m 186.43763,307.88852 21.90026,0"
       id="path4464"
       inkscape:connector-curvature="0" />
  </g>
  <path
     sodipodi:type="arc"
     style="fill:#000000;fill-opacity:1;stroke:none"
     id="path4528"
     sodipodi:cx="93.398865"
     sodipodi:cy="461.67108"
     sodipodi:rx="5.3232512"
     sodipodi:ry="5.3232512"
     d="m 98.722116,461.67108 a 5.3232512,5.3232512 0 1 1 -10.646503,0 5.3232512,5.3232512 0 1 1 10.646503,0 z"
     transform="matrix(1.331,0,0,1.331,-30.915025,-232.81313)" />
  <text
     xml:space="preserve"
     style="font-size:40px;font-style:normal;font-variant:normal;font-weight:normal;font-stretch:normal;text-align:start;line-height:125%;letter-spacing:0px;word-spacing:0px;writing-mode:lr-tb;text-anchor:start;fill:#000000;fill-opacity:1;stroke:none;font-family:Arial;-inkscape-font-specification:Arial"
     x="68.692818"
     y="471.74554"
     id="text4452"
     sodipodi:linespacing="125%"><tspan
       sodipodi:role="line"
       id="tspan4454"
       x="68.692818"
       y="471.74554">X</tspan></text>
  <text
     xml:space="preserve"
     style="font-size:52.70760345px;font-style:normal;font-variant:normal;font-weight:normal;font-stretch:normal;text-align:start;line-height:125%;letter-spacing:0px;word-spacing:0px;writing-mode:lr-tb;text-anchor:start;fill:#000000;fill-opacity:1;stroke:none;font-family:Arial;-inkscape-font-specification:Arial"
     x="96.32534"
     y="473.68604"
     id="text4546"
     sodipodi:linespacing="125%"><tspan
       sodipodi:role="line"
       id="tspan4548"
       x="96.32534"
       y="473.68604">*</tspan></text>
  <text
     sodipodi:linespacing="125%"
     id="text4560"
     y="471.74554"
     x="242.79677"
     style="font-size:40px;font-style:normal;font-variant:normal;font-weight:normal;font-stretch:normal;text-align:start;line-height:125%;letter-spacing:0px;word-spacing:0px;writing-mode:lr-tb;text-anchor:start;fill:#000000;fill-opacity:1;stroke:none;font-family:Arial;-inkscape-font-specification:Arial"
     xml:space="preserve"><tspan
       y="471.74554"
       x="242.79677"
       id="tspan4562"
       sodipodi:role="line">X</tspan></text>
  <text
     sodipodi:linespacing="125%"
     id="text4580"
     y="453.59576"
     x="272.75195"
     style="font-size:25.20988464px;font-style:normal;font-variant:normal;font-weight:normal;font-stretch:normal;text-align:start;line-height:125%;letter-spacing:0px;word-spacing:0px;writing-mode:lr-tb;text-anchor:start;fill:#000000;fill-opacity:1;stroke:none;font-family:Arial;-inkscape-font-specification:Arial"
     xml:space="preserve"><tspan
       y="453.59576"
       x="272.75195"
       id="tspan4582"
       sodipodi:role="line">0</tspan></text>
  <text
     xml:space="preserve"
     style="font-size:40px;font-style:normal;font-variant:normal;font-weight:normal;font-stretch:normal;text-align:start;line-height:125%;letter-spacing:0px;word-spacing:0px;writing-mode:lr-tb;text-anchor:start;fill:#000000;fill-opacity:1;stroke:none;font-family:Arial;-inkscape-font-specification:Arial"
     x="362.79675"
     y="471.74554"
     id="text4584"
     sodipodi:linespacing="125%"><tspan
       sodipodi:role="line"
       id="tspan4586"
       x="362.79675"
       y="471.74554">X</tspan></text>
  <text
     xml:space="preserve"
     style="font-size:25.20988464px;font-style:normal;font-variant:normal;font-weight:normal;font-stretch:normal;text-align:start;line-height:125%;letter-spacing:0px;word-spacing:0px;writing-mode:lr-tb;text-anchor:start;fill:#000000;fill-opacity:1;stroke:none;font-family:Arial;-inkscape-font-specification:Arial"
     x="392.75195"
     y="453.59576"
     id="text4588"
     sodipodi:linespacing="125%"><tspan
       sodipodi:role="line"
       id="tspan4590"
       x="392.75195"
       y="453.59576">1</tspan></text>
  <text
     sodipodi:linespacing="125%"
     id="text4592"
     y="471.74554"
     x="482.79675"
     style="font-size:40px;font-style:normal;font-variant:normal;font-weight:normal;font-stretch:normal;text-align:start;line-height:125%;letter-spacing:0px;word-spacing:0px;writing-mode:lr-tb;text-anchor:start;fill:#000000;fill-opacity:1;stroke:none;font-family:Arial;-inkscape-font-specification:Arial"
     xml:space="preserve"><tspan
       y="471.74554"
       x="482.79675"
       id="tspan4594"
       sodipodi:role="line">X</tspan></text>
  <text
     sodipodi:linespacing="125%"
     id="text4596"
     y="453.59576"
     x="512.75195"
     style="font-size:25.20988464px;font-style:normal;font-variant:normal;font-weight:normal;font-stretch:normal;text-align:start;line-height:125%;letter-spacing:0px;word-spacing:0px;writing-mode:lr-tb;text-anchor:start;fill:#000000;fill-opacity:1;stroke:none;font-family:Arial;-inkscape-font-specification:Arial"
     xml:space="preserve"><tspan
       y="453.59576"
       x="512.75195"
       id="tspan4598"
       sodipodi:role="line">2</tspan></text>
  <text
     xml:space="preserve"
     style="font-size:40px;font-style:normal;font-variant:normal;font-weight:normal;font-stretch:normal;text-align:start;line-height:125%;letter-spacing:0px;word-spacing:0px;writing-mode:lr-tb;text-anchor:start;fill:#000000;fill-opacity:1;stroke:none;font-family:Arial;-inkscape-font-specification:Arial"
     x="602.79675"
     y="471.74554"
     id="text4600"
     sodipodi:linespacing="125%"><tspan
       sodipodi:role="line"
       id="tspan4602"
       x="602.79675"
       y="471.74554">X</tspan></text>
  <text
     xml:space="preserve"
     style="font-size:25.20988464px;font-style:normal;font-variant:normal;font-weight:normal;font-stretch:normal;text-align:start;line-height:125%;letter-spacing:0px;word-spacing:0px;writing-mode:lr-tb;text-anchor:start;fill:#000000;fill-opacity:1;stroke:none;font-family:Arial;-inkscape-font-specification:Arial"
     x="632.75195"
     y="453.59576"
     id="text4604"
     sodipodi:linespacing="125%"><tspan
       sodipodi:role="line"
       id="tspan4606"
       x="632.75195"
       y="453.59576">3</tspan></text>
  <text
     sodipodi:linespacing="125%"
     id="text4608"
     y="471.74554"
     x="722.79675"
     style="font-size:40px;font-style:normal;font-variant:normal;font-weight:normal;font-stretch:normal;text-align:start;line-height:125%;letter-spacing:0px;word-spacing:0px;writing-mode:lr-tb;text-anchor:start;fill:#000000;fill-opacity:1;stroke:none;font-family:Arial;-inkscape-font-specification:Arial"
     xml:space="preserve"><tspan
       y="471.74554"
       x="722.79675"
       id="tspan4610"
       sodipodi:role="line">X</tspan></text>
  <text
     sodipodi:linespacing="125%"
     id="text4612"
     y="453.59576"
     x="752.75195"
     style="font-size:25.20988464px;font-style:normal;font-variant:normal;font-weight:normal;font-stretch:normal;text-align:start;line-height:125%;letter-spacing:0px;word-spacing:0px;writing-mode:lr-tb;text-anchor:start;fill:#000000;fill-opacity:1;stroke:none;font-family:Arial;-inkscape-font-specification:Arial"
     xml:space="preserve"><tspan
       y="453.59576"
       x="752.75195"
       id="tspan4614"
       sodipodi:role="line">4</tspan></text>
  <g
     transform="translate(230,156)"
     id="g4616">
    <path
       style="fill:none;stroke:#000000;stroke-width:3;stroke-linecap:butt;stroke-linejoin:miter;stroke-miterlimit:4;stroke-opacity:1;stroke-dasharray:none"
       d="m 93.882797,311.16824 0,-20.32514 0,22.26087"
       id="path4618"
       inkscape:connector-curvature="0" />
    <path
       inkscape:connector-curvature="0"
       id="path4620"
       d="m 84.688092,301.97354 20.325138,0 -22.260868,0"
       style="fill:none;stroke:#000000;stroke-width:3;stroke-linecap:butt;stroke-linejoin:miter;stroke-miterlimit:4;stroke-opacity:1;stroke-dasharray:none" />
  </g>
  <g
     id="g4622"
     transform="translate(350,156)">
    <path
       inkscape:connector-curvature="0"
       id="path4624"
       d="m 93.882797,311.16824 0,-20.32514 0,22.26087"
       style="fill:none;stroke:#000000;stroke-width:3;stroke-linecap:butt;stroke-linejoin:miter;stroke-miterlimit:4;stroke-opacity:1;stroke-dasharray:none" />
    <path
       style="fill:none;stroke:#000000;stroke-width:3;stroke-linecap:butt;stroke-linejoin:miter;stroke-miterlimit:4;stroke-opacity:1;stroke-dasharray:none"
       d="m 84.688092,301.97354 20.325138,0 -22.260868,0"
       id="path4626"
       inkscape:connector-curvature="0" />
  </g>
  <g
     transform="translate(470,156)"
     id="g4628">
    <path
       style="fill:none;stroke:#000000;stroke-width:3;stroke-linecap:butt;stroke-linejoin:miter;stroke-miterlimit:4;stroke-opacity:1;stroke-dasharray:none"
       d="m 93.882797,311.16824 0,-20.32514 0,22.26087"
       id="path4630"
       inkscape:connector-curvature="0" />
    <path
       inkscape:connector-curvature="0"
       id="path4632"
       d="m 84.688092,301.97354 20.325138,0 -22.260868,0"
       style="fill:none;stroke:#000000;stroke-width:3;stroke-linecap:butt;stroke-linejoin:miter;stroke-miterlimit:4;stroke-opacity:1;stroke-dasharray:none" />
  </g>
  <g
     id="g4634"
     transform="translate(590,156)">
    <path
       inkscape:connector-curvature="0"
       id="path4636"
       d="m 93.882797,311.16824 0,-20.32514 0,22.26087"
       style="fill:none;stroke:#000000;stroke-width:3;stroke-linecap:butt;stroke-linejoin:miter;stroke-miterlimit:4;stroke-opacity:1;stroke-dasharray:none" />
    <path
       style="fill:none;stroke:#000000;stroke-width:3;stroke-linecap:butt;stroke-linejoin:miter;stroke-miterlimit:4;stroke-opacity:1;stroke-dasharray:none"
       d="m 84.688092,301.97354 20.325138,0 -22.260868,0"
       id="path4638"
       inkscape:connector-curvature="0" />
  </g>
  <g
     transform="translate(710,156)"
     id="g4658">
    <path
       style="fill:none;stroke:#000000;stroke-width:3;stroke-linecap:butt;stroke-linejoin:miter;stroke-miterlimit:4;stroke-opacity:1;stroke-dasharray:none"
       d="m 93.882797,311.16824 0,-20.32514 0,22.26087"
       id="path4660"
       inkscape:connector-curvature="0" />
    <path
       inkscape:connector-curvature="0"
       id="path4662"
       d="m 84.688092,301.97354 20.325138,0 -22.260868,0"
       style="fill:none;stroke:#000000;stroke-width:3;stroke-linecap:butt;stroke-linejoin:miter;stroke-miterlimit:4;stroke-opacity:1;stroke-dasharray:none" />
  </g>
  <path
     sodipodi:type="arc"
     style="fill:#000000;fill-opacity:1;stroke:none"
     id="path4664"
     sodipodi:cx="93.398865"
     sodipodi:cy="461.67108"
     sodipodi:rx="5.3232512"
     sodipodi:ry="5.3232512"
     d="m 98.722116,461.67108 a 5.3232512,5.3232512 0 1 1 -10.646503,0 5.3232512,5.3232512 0 1 1 10.646503,0 z"
     transform="matrix(0.8732691,0,0,0.8732691,768.50572,56.3681)" />
  <path
     transform="matrix(0.8732691,0,0,0.8732691,786.50572,56.3681)"
     d="m 98.722116,461.67108 a 5.3232512,5.3232512 0 1 1 -10.646503,0 5.3232512,5.3232512 0 1 1 10.646503,0 z"
     sodipodi:ry="5.3232512"
     sodipodi:rx="5.3232512"
     sodipodi:cy="461.67108"
     sodipodi:cx="93.398865"
     id="path4666"
     style="fill:#000000;fill-opacity:1;stroke:none"
     sodipodi:type="arc" />
  <path
     sodipodi:type="arc"
     style="fill:#000000;fill-opacity:1;stroke:none"
     id="path4668"
     sodipodi:cx="93.398865"
     sodipodi:cy="461.67108"
     sodipodi:rx="5.3232512"
     sodipodi:ry="5.3232512"
     d="m 98.722116,461.67108 a 5.3232512,5.3232512 0 1 1 -10.646503,0 5.3232512,5.3232512 0 1 1 10.646503,0 z"
     transform="matrix(0.8732691,0,0,0.8732691,804.50572,56.3681)" />
  <path
     inkscape:connector-curvature="0"
     id="path4672"
     d="m 12.582231,420.102 1003.674869,3.7e-4"
     style="fill:none;stroke:#000000;stroke-width:1;stroke-linecap:butt;stroke-linejoin:miter;stroke-miterlimit:4;stroke-opacity:1;stroke-dasharray:1, 1;stroke-dashoffset:0"
     sodipodi:nodetypes="cc" />
  <rect
     y="200.8812"
     x="234.52493"
     height="61.056"
     width="412.70114"
     id="rect4700"
     style="fill:#1fd800;fill-opacity:0.06730772;stroke:#1fd800;stroke-opacity:1" />
  <rect
     style="fill:#1fd800;fill-opacity:0.06730772;stroke:#1fd800;stroke-opacity:1"
     id="rect4702"
     width="557.79034"
     height="61.056"
     x="237.26247"
     y="350.8812" />
  <flowRoot
     xml:space="preserve"
     id="flowRoot5311"
     style="fill:black;stroke:none;stroke-opacity:1;stroke-width:1px;stroke-linejoin:miter;stroke-linecap:butt;fill-opacity:1;font-family:Arial;font-style:normal;font-weight:normal;font-size:40px;line-height:125%;letter-spacing:0px;word-spacing:0px;-inkscape-font-specification:Arial;font-stretch:normal;font-variant:normal;text-anchor:start;text-align:start;writing-mode:lr"><flowRegion
       id="flowRegion5313"><rect
         id="rect5315"
         width="1270.2151"
         height="84.86351"
         x="-125.92649"
         y="570.89764" /></flowRegion><flowPara
       id="flowPara5317" /></flowRoot>  <rect
     y="505.65625"
     x="24.637793"
     height="46.53804"
     width="132.77032"
     id="rect15812"
     style="fill:#0001d8;fill-opacity:0.06730772;stroke:#0800f2;stroke-opacity:1" />
  <path
     transform="translate(-66,198)"
     d="m 251.1686,325.88852 a 3.4219155,3.4219155 0 1 1 -6.84383,0 3.4219155,3.4219155 0 1 1 6.84383,0 z"
     sodipodi:ry="3.4219155"
     sodipodi:rx="3.4219155"
     sodipodi:cy="325.88852"
     sodipodi:cx="247.74669"
     id="path15814"
     style="fill:#000000;fill-opacity:1;stroke:none"
     sodipodi:type="arc" />
  <path
     sodipodi:type="arc"
     style="fill:#000000;fill-opacity:1;stroke:none"
     id="path15816"
     sodipodi:cx="247.74669"
     sodipodi:cy="325.88852"
     sodipodi:rx="3.4219155"
     sodipodi:ry="3.4219155"
     d="m 251.1686,325.88852 a 3.4219155,3.4219155 0 1 1 -6.84383,0 3.4219155,3.4219155 0 1 1 6.84383,0 z"
     transform="translate(-66,214)" />
  <g
     id="g15818"
     transform="translate(6,232)">
    <path
       style="fill:none;stroke:#000000;stroke-width:4;stroke-linecap:butt;stroke-linejoin:miter;stroke-miterlimit:4;stroke-opacity:1;stroke-dasharray:none"
       d="m 186.43763,291.88852 21.90026,0"
       id="path15820"
       inkscape:connector-curvature="0" />
    <path
       inkscape:connector-curvature="0"
       id="path15822"
       d="m 186.43763,307.88852 21.90026,0"
       style="fill:none;stroke:#000000;stroke-width:4;stroke-linecap:butt;stroke-linejoin:miter;stroke-miterlimit:4;stroke-opacity:1;stroke-dasharray:none" />
  </g>
  <text
     sodipodi:linespacing="125%"
     id="text15826"
     y="545.74554"
     x="68.692818"
     style="font-size:40px;font-style:normal;font-variant:normal;font-weight:normal;font-stretch:normal;text-align:start;line-height:125%;letter-spacing:0px;word-spacing:0px;writing-mode:lr-tb;text-anchor:start;fill:#000000;fill-opacity:1;stroke:none;font-family:Arial;-inkscape-font-specification:Arial"
     xml:space="preserve"><tspan
       y="545.74554"
       x="68.692818"
       id="tspan15828"
       sodipodi:role="line">X</tspan></text>
  <text
     sodipodi:linespacing="125%"
     id="text15910"
     y="330.72589"
     x="10.996293"
     style="font-size:40px;font-style:normal;font-variant:normal;font-weight:normal;font-stretch:normal;text-align:start;line-height:125%;letter-spacing:0px;word-spacing:0px;writing-mode:lr-tb;text-anchor:start;fill:#000000;fill-opacity:1;stroke:none;font-family:Arial;-inkscape-font-specification:Arial"
     xml:space="preserve"><tspan
       y="330.72589"
       x="10.996293"
       id="tspan15912"
       sodipodi:role="line">Precondition:  X contains no infinite words, but Y might:</tspan></text>
  <g
     transform="matrix(0.10941899,0,0,0.10941899,97.74906,482.24057)"
     id="g11685"
     style="font-size:12px;font-style:normal;font-weight:normal;fill:#000000;fill-opacity:1;stroke:#000000;stroke-width:1;stroke-linecap:square;stroke-linejoin:miter;stroke-miterlimit:10;stroke-opacity:1;stroke-dasharray:none;stroke-dashoffset:0;font-family:Dialog">
    <g
       id="g11687">
      <g
         id="g11689">
        <path
           style="stroke:none"
           inkscape:connector-curvature="0"
           d="m 188.2969,236.6719 q 22.2187,39.6562 22.2187,77.2031 0,36.2812 -15.3984,55.8984 -15.3984,19.6172 -39.3047,19.6172 -31.5,0 -45.5625,-33.75 -13.9219,33.75 -45.4219,33.75 -24.1875,0 -39.4453,-19.7578 Q 10.125,349.875 10.125,313.875 q 0,-37.5469 22.0781,-77.2031 l 24.4688,0 q -14.9063,34.4531 -18.0703,49.9922 -3.1641,15.539 -3.1641,28.0547 0,24.3281 9,39.5156 9,15.1875 23.2031,15.1875 12.9375,0 21.4453,-12.586 8.5079,-12.5859 8.5079,-34.1015 l 0,-48.6563 25.3124,0 0,48.6563 q 0,22.3594 8.1563,34.5234 8.1563,12.1641 21.7969,12.1641 14.2031,0 23.2734,-14.625 9.0703,-14.625 9.0703,-40.0781 0,-13.7813 -3.5156,-29.6719 -3.5156,-15.8907 -17.8594,-48.375 l 24.4688,0 z"
           id="path11691" />
      </g>
    </g>
  </g>
  <path
     sodipodi:nodetypes="cc"
     style="fill:none;stroke:#000000;stroke-width:1;stroke-linecap:butt;stroke-linejoin:miter;stroke-miterlimit:4;stroke-opacity:1;stroke-dasharray:1, 1;stroke-dashoffset:0"
     d="m 12.582231,494.102 1003.674869,3.7e-4"
     id="path15941"
     inkscape:connector-curvature="0" />
  <text
     xml:space="preserve"
     style="font-size:36px;font-style:normal;font-variant:normal;font-weight:normal;font-stretch:normal;text-align:start;line-height:125%;letter-spacing:0px;word-spacing:0px;writing-mode:lr-tb;text-anchor:start;fill:#000000;fill-opacity:1;stroke:none;font-family:Arial;-inkscape-font-specification:Arial"
     x="14.850037"
     y="612.82068"
     id="text15943"
     sodipodi:linespacing="125%"><tspan
       sodipodi:role="line"
       x="14.850037"
       y="612.82068"
       id="tspan16007">The set of ω-rational languages is obtained by starting with</tspan><tspan
       sodipodi:role="line"
       x="14.850037"
       y="657.82068"
       id="tspan16018">the set of (finite) rational languages, closing this set under</tspan><tspan
       sodipodi:role="line"
       x="14.850037"
       y="702.82068"
       id="tspan16020">the above rational operations, and then taking only the words</tspan><tspan
       sodipodi:role="line"
       x="14.850037"
       y="747.82068"
       id="tspan16022">of infinite length.</tspan></text>
  <path
     class="punch_line_bottom_set punch_line_non_focus"
     style="font-size:12px;font-weight:normal;fill:#000000;fill-opacity:1;stroke:none;marker-end:none;font-family:Bitstream Vera Sans Mono"
     id="path16040"
     d="m 259.22077,552.7812 0,3.84946 -1.37842,0 c -3.57525,0 -5.97311,-0.65939 -7.19358,-1.97823 -1.20611,-1.31877 -1.80916,-3.94745 -1.80916,-7.886 l 0,-6.38903 c 0,-2.69106 -0.38768,-4.55339 -1.16303,-5.58704 -0.76101,-1.03366 -2.1466,-1.55048 -4.15678,-1.55048 l -1.33532,0 0,-3.82272 1.33532,0 c 2.02455,0 3.41731,-0.50791 4.17831,-1.52375 0.761,-1.01582 1.1415,-2.86035 1.1415,-5.53358 l 0,-6.41576 c 0,-3.93855 0.60305,-6.55833 1.80916,-7.8593 1.22047,-1.31879 3.61833,-1.97819 7.19358,-1.97819 l 1.37842,0 0,3.82272 -1.50764,0 c -2.01017,0 -3.32399,0.39207 -3.9414,1.17622 -0.60304,0.76633 -0.90456,2.41482 -0.90456,4.94549 l 0,6.62961 c 0,2.79799 -0.33026,4.82963 -0.99077,6.09497 -0.64612,1.26532 -1.75887,2.12075 -3.33832,2.56629 1.59379,0.48119 2.71376,1.35445 3.35988,2.61976 0.64613,1.26534 0.96921,3.28808 0.96921,6.06825 l 0,6.62961 c 0,2.54845 0.30152,4.20589 0.90456,4.9722 0.61741,0.76632 1.93123,1.1495 3.9414,1.1495 l 1.50764,0 z"
     inkscape:connector-curvature="0" />
  <path
     class="punch_line_bottom_set punch_line_non_focus"
     style="font-size:12px;font-weight:normal;fill:#000000;fill-opacity:1;stroke:none;marker-end:none;font-family:Bitstream Vera Sans Mono"
     id="path16042"
     d="m 894.91532,552.7812 0,3.84946 1.37841,0 c 3.57526,0 5.97311,-0.6594 7.19358,-1.97823 1.20613,-1.31878 1.80917,-3.94745 1.80917,-7.88601 l 0,-6.38903 c 0,-2.69104 0.38767,-4.55339 1.16304,-5.58704 0.761,-1.03365 2.14658,-1.55049 4.15675,-1.55049 l 1.33535,0 0,-3.82271 -1.33535,0 c -2.02454,0 -3.41729,-0.50791 -4.17828,-1.52374 -0.76103,-1.01584 -1.14151,-2.86036 -1.14151,-5.53359 l 0,-6.41575 c 0,-3.93856 -0.60305,-6.55833 -1.80918,-7.8593 -1.22045,-1.3188 -3.61831,-1.97819 -7.19357,-1.97819 l -1.37841,0 0,3.82273 1.50764,0 c 2.01017,0 3.32397,0.39205 3.94138,1.17621 0.60304,0.76633 0.9046,2.41481 0.9046,4.94547 l 0,6.62961 c 0,2.79799 0.33023,4.82964 0.99074,6.09498 0.64612,1.26532 1.75888,2.12076 3.33832,2.5663 -1.59377,0.48118 -2.71375,1.35444 -3.35986,2.61976 -0.64613,1.26533 -0.9692,3.28807 -0.9692,6.06825 l 0,6.6296 c 0,2.54845 -0.30156,4.2059 -0.9046,4.97219 -0.61741,0.76633 -1.93121,1.14952 -3.94138,1.14952 l -1.50764,0 z"
     inkscape:connector-curvature="0" />
  <text
     sodipodi:linespacing="125%"
     id="text16044"
     y="543.45068"
     x="278.17395"
     style="font-size:40px;font-style:normal;font-variant:normal;font-weight:normal;font-stretch:normal;text-align:start;line-height:125%;letter-spacing:0px;word-spacing:0px;writing-mode:lr-tb;text-anchor:start;fill:#000000;fill-opacity:1;stroke:none;font-family:Arial;-inkscape-font-specification:Arial"
     xml:space="preserve"><tspan
       y="543.45068"
       x="278.17395"
       id="tspan16046"
       sodipodi:role="line">x  x  x  ...      x  , x  , x  , ... are in X</tspan></text>
  <path
     inkscape:connector-curvature="0"
     id="path16048"
     d="m 468.94518,508.13989 0,46.45746"
     style="fill:none;stroke:#000000;stroke-width:4;stroke-linecap:butt;stroke-linejoin:miter;stroke-miterlimit:4;stroke-opacity:1;stroke-dasharray:none" />
  <text
     sodipodi:linespacing="125%"
     id="text16052"
     y="549.59576"
     x="296.75195"
     style="font-size:25.20988464px;font-style:normal;font-variant:normal;font-weight:normal;font-stretch:normal;text-align:start;line-height:125%;letter-spacing:0px;word-spacing:0px;writing-mode:lr-tb;text-anchor:start;fill:#000000;fill-opacity:1;stroke:none;font-family:Arial;-inkscape-font-specification:Arial"
     xml:space="preserve"><tspan
       y="549.59576"
       x="296.75195"
       id="tspan16054"
       sodipodi:role="line">1</tspan></text>
  <text
     xml:space="preserve"
     style="font-size:25.20988464px;font-style:normal;font-variant:normal;font-weight:normal;font-stretch:normal;text-align:start;line-height:125%;letter-spacing:0px;word-spacing:0px;writing-mode:lr-tb;text-anchor:start;fill:#000000;fill-opacity:1;stroke:none;font-family:Arial;-inkscape-font-specification:Arial"
     x="342.75195"
     y="549.59576"
     id="text16056"
     sodipodi:linespacing="125%"><tspan
       sodipodi:role="line"
       id="tspan16058"
       x="342.75195"
       y="549.59576">2</tspan></text>
  <text
     sodipodi:linespacing="125%"
     id="text16060"
     y="549.43573"
     x="384.75195"
     style="font-size:25.20988464px;font-style:normal;font-variant:normal;font-weight:normal;font-stretch:normal;text-align:start;line-height:125%;letter-spacing:0px;word-spacing:0px;writing-mode:lr-tb;text-anchor:start;fill:#000000;fill-opacity:1;stroke:none;font-family:Arial;-inkscape-font-specification:Arial"
     xml:space="preserve"><tspan
       y="549.43573"
       x="384.75195"
       id="tspan16062"
       sodipodi:role="line">3</tspan></text>
  <text
     xml:space="preserve"
     style="font-size:25.20988464px;font-style:normal;font-variant:normal;font-weight:normal;font-stretch:normal;text-align:start;line-height:125%;letter-spacing:0px;word-spacing:0px;writing-mode:lr-tb;text-anchor:start;fill:#000000;fill-opacity:1;stroke:none;font-family:Arial;-inkscape-font-specification:Arial"
     x="522.75195"
     y="549.59576"
     id="text16064"
     sodipodi:linespacing="125%"><tspan
       sodipodi:role="line"
       id="tspan16066"
       x="522.75195"
       y="549.59576">1</tspan></text>
  <text
     sodipodi:linespacing="125%"
     id="text16068"
     y="549.59576"
     x="588.75195"
     style="font-size:25.20988464px;font-style:normal;font-variant:normal;font-weight:normal;font-stretch:normal;text-align:start;line-height:125%;letter-spacing:0px;word-spacing:0px;writing-mode:lr-tb;text-anchor:start;fill:#000000;fill-opacity:1;stroke:none;font-family:Arial;-inkscape-font-specification:Arial"
     xml:space="preserve"><tspan
       y="549.59576"
       x="588.75195"
       id="tspan16070"
       sodipodi:role="line">2</tspan></text>
  <text
     xml:space="preserve"
     style="font-size:25.20988464px;font-style:normal;font-variant:normal;font-weight:normal;font-stretch:normal;text-align:start;line-height:125%;letter-spacing:0px;word-spacing:0px;writing-mode:lr-tb;text-anchor:start;fill:#000000;fill-opacity:1;stroke:none;font-family:Arial;-inkscape-font-specification:Arial"
     x="654.75195"
     y="549.43573"
     id="text16072"
     sodipodi:linespacing="125%"><tspan
       sodipodi:role="line"
       id="tspan16074"
       x="654.75195"
       y="549.43573">3</tspan></text>
  <path
     style="fill:none;stroke:#000000;stroke-width:1px;stroke-linecap:butt;stroke-linejoin:miter;stroke-opacity:1"
     d="m 876.88468,330.52552 105.49717,0"
     id="path16076"
     inkscape:connector-curvature="0" />
</svg>
