<?xml version="1.0" encoding="UTF-8" standalone="no"?>
<svg
   xmlns:dc="http://purl.org/dc/elements/1.1/"
   xmlns:cc="http://creativecommons.org/ns#"
   xmlns:rdf="http://www.w3.org/1999/02/22-rdf-syntax-ns#"
   xmlns:svg="http://www.w3.org/2000/svg"
   xmlns="http://www.w3.org/2000/svg"
   xmlns:sodipodi="http://sodipodi.sourceforge.net/DTD/sodipodi-0.dtd"
   xmlns:inkscape="http://www.inkscape.org/namespaces/inkscape"
   height="768"
   width="1024"
   id="svg2"
   version="1.1"
   inkscape:version="0.48.2 r9819"
   sodipodi:docname="languages.svg">
  <metadata
     id="metadata26767">
    <rdf:RDF>
      <cc:Work
         rdf:about="">
        <dc:format>image/svg+xml</dc:format>
        <dc:type
           rdf:resource="http://purl.org/dc/dcmitype/StillImage" />
        <dc:title />
      </cc:Work>
    </rdf:RDF>
  </metadata>
  <defs
     id="defs26765">
    <marker
       inkscape:stockid="Arrow1Mend"
       orient="auto"
       refY="0.0"
       refX="0.0"
       id="Arrow1Mend"
       style="overflow:visible;">
      <path
         id="path4343"
         d="M 0.0,0.0 L 5.0,-5.0 L -12.5,0.0 L 5.0,5.0 L 0.0,0.0 z "
         style="fill-rule:evenodd;stroke:#000000;stroke-width:1.0pt;marker-start:none;"
         transform="scale(0.4) rotate(180) translate(10,0)" />
    </marker>
    <marker
       inkscape:stockid="Arrow1Lend"
       orient="auto"
       refY="0.0"
       refX="0.0"
       id="Arrow1Lend"
       style="overflow:visible;">
      <path
         id="path4337"
         d="M 0.0,0.0 L 5.0,-5.0 L -12.5,0.0 L 5.0,5.0 L 0.0,0.0 z "
         style="fill-rule:evenodd;stroke:#000000;stroke-width:1.0pt;marker-start:none;"
         transform="scale(0.8) rotate(180) translate(12.5,0)" />
    </marker>
  </defs>
  <sodipodi:namedview
     pagecolor="#ffffff"
     bordercolor="#666666"
     borderopacity="1"
     objecttolerance="10"
     gridtolerance="10"
     guidetolerance="10"
     inkscape:pageopacity="0"
     inkscape:pageshadow="2"
     inkscape:window-width="1920"
     inkscape:window-height="1152"
     id="namedview26763"
     showgrid="true"
     inkscape:zoom="0.70710678"
     inkscape:cx="545.1662"
     inkscape:cy="328.60988"
     inkscape:window-x="0"
     inkscape:window-y="0"
     inkscape:window-maximized="1"
     inkscape:current-layer="svg2"
     showguides="true"
     inkscape:guide-bbox="true" />
  <path
     style="font-size:12px;fill:#000000;fill-opacity:1;stroke:none"
     id="path608"
     d="m 30.795873,167.66187 c 3.66089,3.30643 25.12918,28.48007 31.49786,35.74692 -6.36868,6.63271 -24.13406,26.58919 -29.02204,32.54208 l 64.596461,0 0,-17.25716 c -5.72881,3.26065 -9.52652,6.821 -15.080011,10.47509 l -32.86092,0.12573 25.65852,-28.59756 0,-0.24654 -23.63287,-26.13223 c 7.4016,-0.28097 29.15249,0.37889 32.635842,0.13904 3.568909,2.98035 8.592369,7.30279 12.829299,10.21523 l 0,-17.0106 -66.622141,0 z"
     inkscape:connector-curvature="0" />
  <path
     style="fill:none;stroke:#000000;stroke-width:2;stroke-linecap:butt;stroke-linejoin:miter;stroke-miterlimit:4;stroke-opacity:1;stroke-dasharray:none"
     d="m 419.81651,127.38608 2.3e-4,643.48498"
     id="path3372"
     inkscape:connector-curvature="0"
     sodipodi:nodetypes="cc" />
  <text
     xml:space="preserve"
     style="font-size:32.40000153px;font-style:normal;font-variant:normal;font-weight:normal;font-stretch:normal;text-align:center;line-height:125%;letter-spacing:0px;word-spacing:0px;writing-mode:lr-tb;text-anchor:middle;fill:#000000;fill-opacity:1;stroke:none;font-family:Sans;-inkscape-font-specification:Sans"
     x="292.77585"
     y="210.74484"
     id="text3376"
     sodipodi:linespacing="125%"><tspan
       sodipodi:role="line"
       x="292.77585"
       y="210.74484"
       id="tspan3415">alphabet</tspan></text>
  <path
     inkscape:connector-curvature="0"
     d="m 517.71581,258.04666 0,5.28046 -1.89083,0 c -4.90432,0 -8.19357,-0.90451 -9.86774,-2.71361 -1.65447,-1.80902 -2.48171,-5.41488 -2.48171,-10.81757 l 0,-8.76409 c 0,-3.69144 -0.53179,-6.24609 -1.59537,-7.66399 -1.04391,-1.41791 -2.94458,-2.12685 -5.70203,-2.12685 l -1.83173,0 0,-5.24379 1.83173,0 c 2.77715,0 4.68767,-0.69672 5.73156,-2.09019 1.0439,-1.39344 1.56584,-3.92366 1.56584,-7.59065 l 0,-8.80076 c 0,-5.40268 0.82724,-8.99633 2.48171,-10.78093 1.67417,-1.80905 4.96342,-2.71357 9.86774,-2.71357 l 1.89083,0 0,5.24378 -2.06809,0 c -2.75744,0 -4.55966,0.53783 -5.40658,1.61348 -0.82723,1.0512 -1.24084,3.31251 -1.24084,6.78393 l 0,9.09412 c 0,3.83811 -0.45302,6.625 -1.35906,8.36072 -0.88632,1.7357 -2.41274,2.90913 -4.57932,3.52029 2.18626,0.66006 3.72257,1.85795 4.60888,3.59364 0.88633,1.73572 1.3295,4.5104 1.3295,8.32406 l 0,9.09412 c 0,3.49583 0.41361,5.76941 1.24084,6.82057 0.84692,1.0512 2.64914,1.57683 5.40658,1.57683 l 2.06809,0 z"
     id="path627"
     style="font-size:12px;font-weight:normal;fill:#000000;fill-opacity:1;stroke:none;marker-end:none;font-family:Bitstream Vera Sans Mono"
     class="punch_line_bottom_set punch_line_non_focus" />
  <path
     inkscape:connector-curvature="0"
     d="m 624.29269,258.04666 0,5.28046 1.89083,0 c 4.90433,0 8.19357,-0.90452 9.86774,-2.71362 1.65449,-1.80902 2.48171,-5.41488 2.48171,-10.81757 l 0,-8.76409 c 0,-3.69142 0.53179,-6.24609 1.59539,-7.66399 1.0439,-1.4179 2.94456,-2.12686 5.70199,-2.12686 l 1.83177,0 0,-5.24378 -1.83177,0 c -2.77716,0 -4.68764,-0.69672 -5.73152,-2.09018 -1.04394,-1.39346 -1.56586,-3.92368 -1.56586,-7.59066 l 0,-8.80075 c 0,-5.4027 -0.82723,-8.99633 -2.48172,-10.78093 -1.67416,-1.80906 -4.9634,-2.71357 -9.86774,-2.71357 l -1.89082,0 0,5.24379 2.0681,0 c 2.75744,0 4.55962,0.5378 5.40656,1.61346 0.82722,1.05121 1.24088,3.31251 1.24088,6.78392 l 0,9.09412 c 0,3.83811 0.45299,6.62501 1.35903,8.36073 0.88631,1.7357 2.41274,2.90913 4.57932,3.5203 -2.18624,0.66005 -3.72256,1.85794 -4.60887,3.59364 -0.88632,1.73571 -1.32948,4.51039 -1.32948,8.32406 l 0,9.09411 c 0,3.49583 -0.41366,5.76941 -1.24088,6.82056 -0.84694,1.05121 -2.64912,1.57685 -5.40656,1.57685 l -2.0681,0 z"
     id="path626"
     style="font-size:12px;font-weight:normal;fill:#000000;fill-opacity:1;stroke:none;marker-end:none;font-family:Bitstream Vera Sans Mono"
     class="punch_line_bottom_set punch_line_non_focus" />
  <path
     sodipodi:nodetypes="cc"
     inkscape:connector-curvature="0"
     id="path3401"
     d="m 1026.999,331.75305 -1027.997981,0"
     style="fill:none;stroke:#000000;stroke-width:2;stroke-linecap:butt;stroke-linejoin:miter;stroke-miterlimit:4;stroke-opacity:1;stroke-dasharray:none" />
  <path
     style="fill:none;stroke:#000000;stroke-width:2;stroke-linecap:butt;stroke-linejoin:miter;stroke-miterlimit:4;stroke-opacity:1;stroke-dasharray:none"
     d="m 1026.999,548.20157 -1027.997981,0"
     id="path3403"
     inkscape:connector-curvature="0"
     sodipodi:nodetypes="cc" />
  <path
     inkscape:connector-curvature="0"
     d="m 32.164639,369.45583 c 3.66089,3.30643 25.12918,28.48007 31.49786,35.74692 -6.36868,6.63271 -24.13406,26.58919 -29.02204,32.54208 l 64.596461,0 0,-17.25716 c -5.72881,3.26065 -9.52652,6.821 -15.080011,10.47509 l -32.86092,0.12573 25.65852,-28.59756 0,-0.24654 -23.63287,-26.13223 c 7.4016,-0.28097 29.15249,0.37889 32.635842,0.13904 3.568909,2.98035 8.592369,7.30279 12.829299,10.21523 l 0,-17.0106 -66.622141,0 z"
     id="path3425"
     style="font-size:12px;fill:#000000;fill-opacity:1;stroke:none" />
  <text
     xml:space="preserve"
     style="font-size:74px;font-style:normal;font-variant:normal;font-weight:normal;font-stretch:normal;text-align:start;line-height:125%;letter-spacing:0px;word-spacing:0px;writing-mode:lr-tb;text-anchor:start;fill:#000000;fill-opacity:1;stroke:none;font-family:Sans;-inkscape-font-specification:Sans"
     x="103.94617"
     y="405.99481"
     id="text3427"
     sodipodi:linespacing="125%"><tspan
       sodipodi:role="line"
       id="tspan3429"
       x="103.94617"
       y="405.99481">*</tspan></text>
  <text
     sodipodi:linespacing="100%"
     id="text3431"
     y="396.33881"
     x="293.36121"
     style="font-size:32.40000153px;font-style:normal;font-variant:normal;font-weight:normal;font-stretch:normal;text-align:center;line-height:100%;letter-spacing:0px;word-spacing:0px;writing-mode:lr-tb;text-anchor:middle;fill:#000000;fill-opacity:1;stroke:none;font-family:Sans;-inkscape-font-specification:Sans"
     xml:space="preserve"><tspan
       id="tspan3433"
       y="396.33881"
       x="293.36121"
       sodipodi:role="line">words</tspan><tspan
       y="428.7388"
       x="293.36121"
       sodipodi:role="line"
       id="tspan4309">(or strings)</tspan></text>
  <text
     xml:space="preserve"
     style="font-size:22.68000031px;font-style:normal;font-variant:normal;font-weight:normal;font-stretch:normal;text-align:center;line-height:125%;letter-spacing:0px;word-spacing:0px;writing-mode:lr-tb;text-anchor:middle;fill:#000000;fill-opacity:1;stroke:none;font-family:Sans;-inkscape-font-specification:Sans"
     x="293.76859"
     y="276"
     id="text3439"
     sodipodi:linespacing="125%"><tspan
       sodipodi:role="line"
       x="293.76859"
       y="276"
       id="tspan4229">set of objects called</tspan><tspan
       sodipodi:role="line"
       x="293.76859"
       y="304.35001"
       id="tspan4295">letters or symbols</tspan></text>
  <g
     id="g4297"
     transform="translate(28.119095,9.33237)">
    <path
       sodipodi:nodetypes="cc"
       inkscape:connector-curvature="0"
       id="path3445"
       d="m 126.79,187.474 30.97181,0"
       style="fill:none;stroke:#000000;stroke-width:4;stroke-linecap:butt;stroke-linejoin:miter;stroke-miterlimit:4;stroke-opacity:1;stroke-dasharray:none" />
    <path
       style="fill:none;stroke:#000000;stroke-width:4;stroke-linecap:butt;stroke-linejoin:miter;stroke-miterlimit:4;stroke-opacity:1;stroke-dasharray:none"
       d="m 126.79,197.474 30.97181,0"
       id="path3447"
       inkscape:connector-curvature="0"
       sodipodi:nodetypes="cc" />
  </g>
  <g
     id="g5911"
     transform="translate(0,0.60033)">
    <path
       sodipodi:nodetypes="cc"
       inkscape:connector-curvature="0"
       id="path4223"
       d="m 180,388 c -30,0 -30,30 0,30"
       style="fill:none;stroke:#000000;stroke-width:4;stroke-linecap:butt;stroke-linejoin:miter;stroke-miterlimit:4;stroke-opacity:1;stroke-dasharray:none" />
    <path
       sodipodi:nodetypes="cc"
       inkscape:connector-curvature="0"
       id="path4225"
       d="m 157.75,403 22,0"
       style="fill:none;stroke:#000000;stroke-width:4;stroke-linecap:butt;stroke-linejoin:miter;stroke-miterlimit:4;stroke-opacity:1;stroke-dasharray:none" />
  </g>
  <text
     sodipodi:linespacing="125%"
     id="text4231"
     y="489.68225"
     x="293.29791"
     style="font-size:22.68000031px;font-style:normal;font-variant:normal;font-weight:normal;font-stretch:normal;text-align:center;line-height:125%;letter-spacing:0px;word-spacing:0px;writing-mode:lr-tb;text-anchor:middle;fill:#000000;fill-opacity:1;stroke:none;font-family:Sans;-inkscape-font-specification:Sans"
     xml:space="preserve"><tspan
       id="tspan4235"
       y="489.68225"
       x="293.29791"
       sodipodi:role="line">sequence of symbols</tspan><tspan
       y="518.03223"
       x="293.29791"
       sodipodi:role="line"
       id="tspan4239">from the alphabet</tspan></text>
  <path
     style="font-size:12px;fill:#000000;fill-opacity:1;stroke:none"
     id="path4247"
     d="m 32.164639,589.45583 c 3.66089,3.30643 25.12918,28.48007 31.49786,35.74692 -6.36868,6.63271 -24.13406,26.58919 -29.02204,32.54208 l 64.596461,0 0,-17.25716 c -5.72881,3.26065 -9.52652,6.821 -15.080011,10.47509 l -32.86092,0.12573 25.65852,-28.59756 0,-0.24654 -23.63287,-26.13223 c 7.4016,-0.28097 29.15249,0.37889 32.635842,0.13904 3.568909,2.98035 8.592369,7.30279 12.829299,10.21523 l 0,-17.0106 -66.622141,0 z"
     inkscape:connector-curvature="0" />
  <text
     sodipodi:linespacing="125%"
     id="text4249"
     y="625.99481"
     x="103.94617"
     style="font-size:74px;font-style:normal;font-variant:normal;font-weight:normal;font-stretch:normal;text-align:start;line-height:125%;letter-spacing:0px;word-spacing:0px;writing-mode:lr-tb;text-anchor:start;fill:#000000;fill-opacity:1;stroke:none;font-family:Sans;-inkscape-font-specification:Sans"
     xml:space="preserve"><tspan
       y="625.99481"
       x="103.94617"
       id="tspan4251"
       sodipodi:role="line">*</tspan></text>
  <text
     sodipodi:linespacing="125%"
     id="text4267"
     y="632.53882"
     x="292.6572"
     style="font-size:32.40000153px;font-style:normal;font-variant:normal;font-weight:normal;font-stretch:normal;text-align:center;line-height:125%;letter-spacing:0px;word-spacing:0px;writing-mode:lr-tb;text-anchor:middle;fill:#000000;fill-opacity:1;stroke:none;font-family:Sans;-inkscape-font-specification:Sans"
     xml:space="preserve"><tspan
       id="tspan4269"
       y="632.53882"
       x="292.6572"
       sodipodi:role="line">language</tspan></text>
  <text
     xml:space="preserve"
     style="font-size:22.68000031px;font-style:normal;font-variant:normal;font-weight:normal;font-stretch:normal;text-align:start;line-height:125%;letter-spacing:0px;word-spacing:0px;writing-mode:lr-tb;text-anchor:start;fill:#000000;fill-opacity:1;stroke:none;font-family:Sans;-inkscape-font-specification:Sans"
     x="230"
     y="700"
     id="text4271"
     sodipodi:linespacing="125%"><tspan
       id="tspan4275"
       sodipodi:role="line"
       x="230"
       y="700">set of words</tspan></text>
  <g
     id="g4305"
     transform="translate(-4.605,-9.39967)">
    <path
       sodipodi:nodetypes="cc"
       inkscape:connector-curvature="0"
       id="path4265"
       d="m 190,648 -30,0"
       style="fill:none;stroke:#000000;stroke-width:4;stroke-linecap:butt;stroke-linejoin:miter;stroke-miterlimit:4;stroke-opacity:1;stroke-dasharray:none" />
    <path
       sodipodi:nodetypes="ccscc"
       inkscape:connector-curvature="0"
       id="path4279"
       d="m 190,618 -20,0 c 0,0 -10,0 -10,10 0,10 10,10 10,10 l 20,0"
       style="fill:none;stroke:#000000;stroke-width:4;stroke-linecap:butt;stroke-linejoin:miter;stroke-miterlimit:4;stroke-opacity:1;stroke-dasharray:none" />
  </g>
  <text
     xml:space="preserve"
     style="font-size:40px;font-style:normal;font-weight:normal;line-height:125%;letter-spacing:0px;word-spacing:0px;fill:#000000;fill-opacity:1;stroke:none;font-family:Sans"
     x="524.15234"
     y="239.5921"
     id="text4281"
     sodipodi:linespacing="125%"><tspan
       sodipodi:role="line"
       x="524.15234"
       y="239.5921"
       id="tspan5883">a</tspan></text>
  <text
     xml:space="preserve"
     style="font-size:40px;font-style:normal;font-weight:normal;line-height:125%;letter-spacing:0px;word-spacing:0px;fill:#000000;fill-opacity:1;stroke:none;font-family:Sans"
     x="420.05292"
     y="385.69376"
     id="text4285"
     sodipodi:linespacing="125%"><tspan
       sodipodi:role="line"
       x="420.05292"
       y="385.69376"
       id="tspan4289" /></text>
  <path
     style="fill:none;stroke:#000000;stroke-width:2;stroke-linecap:butt;stroke-linejoin:miter;stroke-miterlimit:4;stroke-opacity:1;stroke-dasharray:none;marker-end:url(#Arrow1Mend)"
     d="m 293.35329,222 0,30"
     id="path4329"
     inkscape:connector-curvature="0" />
  <path
     inkscape:connector-curvature="0"
     id="path5143"
     d="m 293.35329,436 0,30"
     style="fill:none;stroke:#000000;stroke-width:2;stroke-linecap:butt;stroke-linejoin:miter;stroke-miterlimit:4;stroke-opacity:1;stroke-dasharray:none;marker-end:url(#Arrow1Mend)" />
  <path
     style="fill:none;stroke:#000000;stroke-width:2;stroke-linecap:butt;stroke-linejoin:miter;stroke-miterlimit:4;stroke-opacity:1;stroke-dasharray:none;marker-end:url(#Arrow1Mend)"
     d="m 293.35329,644 0,30"
     id="path5145"
     inkscape:connector-curvature="0" />
  <text
     sodipodi:linespacing="125%"
     id="text5887"
     y="239.61163"
     x="595.06934"
     style="font-size:40px;font-style:normal;font-weight:normal;line-height:125%;letter-spacing:0px;word-spacing:0px;fill:#000000;fill-opacity:1;stroke:none;font-family:Sans"
     xml:space="preserve"><tspan
       id="tspan5889"
       y="239.61163"
       x="595.06934"
       sodipodi:role="line">z</tspan></text>
  <path
     style="fill:none;stroke:#000000;stroke-width:4;stroke-linecap:butt;stroke-linejoin:miter;stroke-miterlimit:4;stroke-opacity:1;stroke-dasharray:none"
     d="m 560,228 20,0"
     id="path5891"
     inkscape:connector-curvature="0" />
  <path
     sodipodi:nodetypes="cc"
     inkscape:connector-curvature="0"
     id="path5893"
     d="m 719.81651,127.38608 2.3e-4,643.48498"
     style="fill:none;stroke:#000000;stroke-width:2;stroke-linecap:butt;stroke-linejoin:miter;stroke-miterlimit:4;stroke-opacity:1;stroke-dasharray:none" />
  <path
     class="punch_line_bottom_set punch_line_non_focus"
     style="font-size:12px;font-weight:normal;fill:#000000;fill-opacity:1;stroke:none;marker-end:none;font-family:Bitstream Vera Sans Mono"
     id="path5895"
     d="m 817.71581,258.04666 0,5.28046 -1.89083,0 c -4.90432,0 -8.19357,-0.90451 -9.86774,-2.71361 -1.65447,-1.80902 -2.48171,-5.41488 -2.48171,-10.81757 l 0,-8.76409 c 0,-3.69144 -0.53179,-6.24609 -1.59537,-7.66399 -1.04391,-1.41791 -2.94458,-2.12685 -5.70203,-2.12685 l -1.83173,0 0,-5.24379 1.83173,0 c 2.77715,0 4.68767,-0.69672 5.73156,-2.09019 1.0439,-1.39344 1.56584,-3.92366 1.56584,-7.59065 l 0,-8.80076 c 0,-5.40268 0.82724,-8.99633 2.48171,-10.78093 1.67417,-1.80905 4.96342,-2.71357 9.86774,-2.71357 l 1.89083,0 0,5.24378 -2.06809,0 c -2.75744,0 -4.55966,0.53783 -5.40658,1.61348 -0.82723,1.0512 -1.24084,3.31251 -1.24084,6.78393 l 0,9.09412 c 0,3.83811 -0.45302,6.625 -1.35906,8.36072 -0.88632,1.7357 -2.41274,2.90913 -4.57932,3.52029 2.18626,0.66006 3.72257,1.85795 4.60888,3.59364 0.88633,1.73572 1.3295,4.5104 1.3295,8.32406 l 0,9.09412 c 0,3.49583 0.41361,5.76941 1.24084,6.82057 0.84692,1.0512 2.64914,1.57683 5.40658,1.57683 l 2.06809,0 z"
     inkscape:connector-curvature="0" />
  <path
     class="punch_line_bottom_set punch_line_non_focus"
     style="font-size:12px;font-weight:normal;fill:#000000;fill-opacity:1;stroke:none;marker-end:none;font-family:Bitstream Vera Sans Mono"
     id="path5897"
     d="m 924.29269,258.04666 0,5.28046 1.89083,0 c 4.90433,0 8.19357,-0.90452 9.86774,-2.71362 1.65449,-1.80902 2.48171,-5.41488 2.48171,-10.81757 l 0,-8.76409 c 0,-3.69142 0.53179,-6.24609 1.59543,-7.66399 1.0439,-1.4179 2.9445,-2.12686 5.702,-2.12686 l 1.8317,0 0,-5.24378 -1.8317,0 c -2.7772,0 -4.6877,-0.69672 -5.7316,-2.09018 -1.04391,-1.39346 -1.56583,-3.92368 -1.56583,-7.59066 l 0,-8.80075 c 0,-5.4027 -0.82723,-8.99633 -2.48172,-10.78093 -1.67416,-1.80906 -4.9634,-2.71357 -9.86774,-2.71357 l -1.89082,0 0,5.24379 2.0681,0 c 2.75744,0 4.55962,0.5378 5.40656,1.61346 0.82722,1.05121 1.24088,3.31251 1.24088,6.78392 l 0,9.09412 c 0,3.83811 0.45299,6.62501 1.35903,8.36073 0.88631,1.7357 2.41274,2.90913 4.57932,3.5203 -2.18624,0.66005 -3.72256,1.85794 -4.60887,3.59364 -0.88632,1.73571 -1.32948,4.51039 -1.32948,8.32406 l 0,9.09411 c 0,3.49583 -0.41366,5.76941 -1.24088,6.82056 -0.84694,1.05121 -2.64912,1.57685 -5.40656,1.57685 l -2.0681,0 z"
     inkscape:connector-curvature="0" />
  <text
     sodipodi:linespacing="125%"
     id="text5899"
     y="241.19365"
     x="832.15234"
     style="font-size:40px;font-style:normal;font-weight:normal;line-height:125%;letter-spacing:0px;word-spacing:0px;fill:#000000;fill-opacity:1;stroke:none;font-family:Sans"
     xml:space="preserve"><tspan
       id="tspan5901"
       y="241.19365"
       x="832.15234"
       sodipodi:role="line">0, 1</tspan></text>
  <path
     sodipodi:type="arc"
     style="fill:#000000;fill-opacity:1;stroke:none;stroke-width:2;marker-end:none"
     id="path5915"
     sodipodi:cx="460"
     sodipodi:cy="373"
     sodipodi:rx="10"
     sodipodi:ry="15"
     d="m 470,373 a 10,15 0 1 1 -20,0 10,15 0 1 1 20,0 z"
     transform="matrix(0.60050772,0,0,0.4003385,173.76645,218.67882)" />
  <text
     xml:space="preserve"
     style="font-size:40px;font-style:normal;font-weight:normal;line-height:125%;letter-spacing:0px;word-spacing:0px;fill:#000000;fill-opacity:1;stroke:none;font-family:Sans"
     x="480"
     y="378.9328"
     id="text6285"
     sodipodi:linespacing="125%"><tspan
       sodipodi:role="line"
       id="tspan6287"
       x="480"
       y="378.9328">ε</tspan></text>
  <text
     xml:space="preserve"
     style="font-size:22.68000031px;font-style:normal;font-variant:normal;font-weight:normal;font-stretch:normal;text-align:center;line-height:125%;letter-spacing:0px;word-spacing:0px;writing-mode:lr-tb;text-anchor:middle;fill:#000000;fill-opacity:1;stroke:none;font-family:Sans;-inkscape-font-specification:Sans"
     x="72"
     y="476"
     id="text6289"
     sodipodi:linespacing="125%"><tspan
       sodipodi:role="line"
       x="72"
       y="476"
       id="tspan6293">ε refers to</tspan><tspan
       sodipodi:role="line"
       x="72"
       y="504.35001"
       id="tspan6299">the empty</tspan><tspan
       sodipodi:role="line"
       x="72"
       y="532.70001"
       id="tspan6295">word</tspan></text>
  <path
     style="fill:none;stroke:#000000;stroke-width:2;stroke-linecap:butt;stroke-linejoin:miter;stroke-miterlimit:4;stroke-opacity:1;stroke-dasharray:none;marker-end:url(#Arrow1Mend)"
     d="m 172,500 -30,0"
     id="path6301"
     inkscape:connector-curvature="0" />
  <text
     xml:space="preserve"
     style="font-size:40px;font-style:normal;font-weight:normal;line-height:125%;letter-spacing:0px;word-spacing:0px;fill:#000000;fill-opacity:1;stroke:none;font-family:Sans"
     x="480.19531"
     y="448.92303"
     id="text6303"
     sodipodi:linespacing="125%"><tspan
       sodipodi:role="line"
       id="tspan6305"
       x="480.19531"
       y="448.92303">aaa</tspan></text>
  <text
     xml:space="preserve"
     style="font-size:40px;font-style:normal;font-weight:normal;line-height:125%;letter-spacing:0px;word-spacing:0px;fill:#000000;fill-opacity:1;stroke:none;font-family:Sans"
     x="480.19531"
     y="522.91718"
     id="text6307"
     sodipodi:linespacing="125%"><tspan
       sodipodi:role="line"
       id="tspan6309"
       x="480.19531"
       y="522.91718">zxzzxy</tspan></text>
  <path
     transform="matrix(0.60050772,0,0,0.4003385,173.76645,288.67882)"
     d="m 470,373 a 10,15 0 1 1 -20,0 10,15 0 1 1 20,0 z"
     sodipodi:ry="15"
     sodipodi:rx="10"
     sodipodi:cy="373"
     sodipodi:cx="460"
     id="path6311"
     style="fill:#000000;fill-opacity:1;stroke:none;stroke-width:2;marker-end:none"
     sodipodi:type="arc" />
  <path
     sodipodi:type="arc"
     style="fill:#000000;fill-opacity:1;stroke:none;stroke-width:2;marker-end:none"
     id="path6313"
     sodipodi:cx="460"
     sodipodi:cy="373"
     sodipodi:rx="10"
     sodipodi:ry="15"
     d="m 470,373 a 10,15 0 1 1 -20,0 10,15 0 1 1 20,0 z"
     transform="matrix(0.60050772,0,0,0.4003385,173.76645,358.67882)" />
  <path
     transform="matrix(0.60050772,0,0,0.4003385,473.76645,218.67882)"
     d="m 470,373 a 10,15 0 1 1 -20,0 10,15 0 1 1 20,0 z"
     sodipodi:ry="15"
     sodipodi:rx="10"
     sodipodi:cy="373"
     sodipodi:cx="460"
     id="path6315"
     style="fill:#000000;fill-opacity:1;stroke:none;stroke-width:2;marker-end:none"
     sodipodi:type="arc" />
  <text
     sodipodi:linespacing="125%"
     id="text6317"
     y="378.9328"
     x="780"
     style="font-size:40px;font-style:normal;font-weight:normal;line-height:125%;letter-spacing:0px;word-spacing:0px;fill:#000000;fill-opacity:1;stroke:none;font-family:Sans"
     xml:space="preserve"><tspan
       y="378.9328"
       x="780"
       id="tspan6319"
       sodipodi:role="line">ε</tspan></text>
  <text
     sodipodi:linespacing="125%"
     id="text6321"
     y="448.92303"
     x="780.19531"
     style="font-size:40px;font-style:normal;font-weight:normal;line-height:125%;letter-spacing:0px;word-spacing:0px;fill:#000000;fill-opacity:1;stroke:none;font-family:Sans"
     xml:space="preserve"><tspan
       y="448.92303"
       x="780.19531"
       id="tspan6323"
       sodipodi:role="line">001</tspan></text>
  <text
     sodipodi:linespacing="125%"
     id="text6325"
     y="522.91718"
     x="780.19531"
     style="font-size:40px;font-style:normal;font-weight:normal;line-height:125%;letter-spacing:0px;word-spacing:0px;fill:#000000;fill-opacity:1;stroke:none;font-family:Sans"
     xml:space="preserve"><tspan
       y="522.91718"
       x="780.19531"
       id="tspan6327"
       sodipodi:role="line">10101</tspan></text>
  <path
     sodipodi:type="arc"
     style="fill:#000000;fill-opacity:1;stroke:none;stroke-width:2;marker-end:none"
     id="path6329"
     sodipodi:cx="460"
     sodipodi:cy="373"
     sodipodi:rx="10"
     sodipodi:ry="15"
     d="m 470,373 a 10,15 0 1 1 -20,0 10,15 0 1 1 20,0 z"
     transform="matrix(0.60050772,0,0,0.4003385,473.76645,288.67882)" />
  <path
     transform="matrix(0.60050772,0,0,0.4003385,473.76645,358.67882)"
     d="m 470,373 a 10,15 0 1 1 -20,0 10,15 0 1 1 20,0 z"
     sodipodi:ry="15"
     sodipodi:rx="10"
     sodipodi:cy="373"
     sodipodi:cx="460"
     id="path6331"
     style="fill:#000000;fill-opacity:1;stroke:none;stroke-width:2;marker-end:none"
     sodipodi:type="arc" />
  <path
     transform="matrix(0.60050772,0,0,0.4003385,173.76645,438.67882)"
     d="m 470,373 a 10,15 0 1 1 -20,0 10,15 0 1 1 20,0 z"
     sodipodi:ry="15"
     sodipodi:rx="10"
     sodipodi:cy="373"
     sodipodi:cx="460"
     id="path6333"
     style="fill:#000000;fill-opacity:1;stroke:none;stroke-width:2;marker-end:none"
     sodipodi:type="arc" />
  <text
     sodipodi:linespacing="110%"
     id="text6339"
     y="651.42615"
     x="480.19531"
     style="font-size:22px;font-style:normal;font-variant:normal;font-weight:normal;font-stretch:normal;text-align:start;line-height:110%;letter-spacing:0px;word-spacing:0px;writing-mode:lr;text-anchor:start;fill:#000000;fill-opacity:1;stroke:none;font-family:Sans;-inkscape-font-specification:Sans"
     xml:space="preserve"><tspan
       y="651.42615"
       x="480.19531"
       id="tspan6341"
       sodipodi:role="line">set of strings</tspan><tspan
       y="677.82617"
       x="480.19531"
       sodipodi:role="line"
       id="tspan6373">with only vowels</tspan></text>
  <path
     sodipodi:type="arc"
     style="fill:#000000;fill-opacity:1;stroke:none;stroke-width:2;marker-end:none"
     id="path6347"
     sodipodi:cx="460"
     sodipodi:cy="373"
     sodipodi:rx="10"
     sodipodi:ry="15"
     d="m 470,373 a 10,15 0 1 1 -20,0 10,15 0 1 1 20,0 z"
     transform="matrix(0.60050772,0,0,0.4003385,173.76645,508.67882)" />
  <path
     transform="matrix(0.60050772,0,0,0.4003385,173.76645,578.67882)"
     d="m 470,373 a 10,15 0 1 1 -20,0 10,15 0 1 1 20,0 z"
     sodipodi:ry="15"
     sodipodi:rx="10"
     sodipodi:cy="373"
     sodipodi:cx="460"
     id="path6349"
     style="fill:#000000;fill-opacity:1;stroke:none;stroke-width:2;marker-end:none"
     sodipodi:type="arc" />
  <path
     sodipodi:type="arc"
     style="fill:#000000;fill-opacity:1;stroke:none;stroke-width:2;marker-end:none"
     id="path6351"
     sodipodi:cx="460"
     sodipodi:cy="373"
     sodipodi:rx="10"
     sodipodi:ry="15"
     d="m 470,373 a 10,15 0 1 1 -20,0 10,15 0 1 1 20,0 z"
     transform="matrix(0.60050772,0,0,0.4003385,473.76645,438.67882)" />
  <path
     transform="matrix(0.60050772,0,0,0.4003385,473.76645,508.67882)"
     d="m 470,373 a 10,15 0 1 1 -20,0 10,15 0 1 1 20,0 z"
     sodipodi:ry="15"
     sodipodi:rx="10"
     sodipodi:cy="373"
     sodipodi:cx="460"
     id="path6365"
     style="fill:#000000;fill-opacity:1;stroke:none;stroke-width:2;marker-end:none"
     sodipodi:type="arc" />
  <path
     sodipodi:type="arc"
     style="fill:#000000;fill-opacity:1;stroke:none;stroke-width:2;marker-end:none"
     id="path6367"
     sodipodi:cx="460"
     sodipodi:cy="373"
     sodipodi:rx="10"
     sodipodi:ry="15"
     d="m 470,373 a 10,15 0 1 1 -20,0 10,15 0 1 1 20,0 z"
     transform="matrix(0.60050772,0,0,0.4003385,473.76645,578.67882)" />
  <g
     id="g6438"
     transform="matrix(0.729,0,0,0.729,121.56513,152.20892)">
    <text
       xml:space="preserve"
       style="font-size:40px;font-style:normal;font-weight:normal;line-height:125%;letter-spacing:0px;word-spacing:0px;fill:#000000;fill-opacity:1;stroke:none;font-family:Sans"
       x="510"
       y="610.9328"
       id="text6335"
       sodipodi:linespacing="125%"><tspan
         sodipodi:role="line"
         id="tspan6337"
         x="510"
         y="610.9328">ε, qu, t</tspan></text>
    <path
       inkscape:connector-curvature="0"
       d="m 499.84062,624.46588 0,4.27717 -1.53158,0 c -3.9725,0 -6.63678,-0.73265 -7.99287,-2.19802 -1.34012,-1.46531 -2.01018,-4.38606 -2.01018,-8.76223 l 0,-7.09892 c 0,-2.99007 -0.43075,-5.05933 -1.29225,-6.20783 -0.84557,-1.14851 -2.38511,-1.72275 -4.61865,-1.72275 l -1.48369,0 0,-4.24747 1.48369,0 c 2.2495,0 3.79702,-0.56434 4.64257,-1.69305 0.84556,-1.12869 1.26833,-3.17817 1.26833,-6.14843 l 0,-7.12861 c 0,-4.37617 0.67006,-7.28704 2.01018,-8.73256 1.35609,-1.46533 4.02037,-2.19799 7.99287,-2.19799 l 1.53158,0 0,4.24746 -1.67516,0 c -2.23352,0 -3.69332,0.43564 -4.37933,1.30692 -0.67006,0.85147 -1.00507,2.68313 -1.00507,5.49498 l 0,7.36624 c 0,3.10887 -0.36695,5.36625 -1.10085,6.77219 -0.71792,1.40591 -1.95431,2.35639 -3.70925,2.85143 1.77088,0.53465 3.01529,1.50494 3.7332,2.91084 0.71792,1.40594 1.0769,3.65343 1.0769,6.7425 l 0,7.36624 c 0,2.83161 0.33501,4.67321 1.00507,5.52466 0.68601,0.85147 2.14581,1.27723 4.37933,1.27723 l 1.67516,0 z"
       id="path6369"
       style="font-size:12px;font-weight:normal;fill:#000000;fill-opacity:1;stroke:none;marker-end:none;font-family:Bitstream Vera Sans Mono"
       class="punch_line_bottom_set punch_line_non_focus" />
    <path
       inkscape:connector-curvature="0"
       d="m 674.16789,624.46588 0,4.27717 1.53157,0 c 3.97251,0 6.63679,-0.73266 7.99287,-2.19803 1.34014,-1.46531 2.01019,-4.38605 2.01019,-8.76223 l 0,-7.09892 c 0,-2.99005 0.43074,-5.05933 1.29226,-6.20783 0.84556,-1.1485 2.38509,-1.72276 4.61861,-1.72276 l 1.48373,0 0,-4.24746 -1.48373,0 c -2.24949,0 -3.79698,-0.56434 -4.64253,-1.69304 -0.84559,-1.12871 -1.26834,-3.17818 -1.26834,-6.14844 l 0,-7.1286 c 0,-4.37619 -0.67006,-7.28704 -2.0102,-8.73256 -1.35607,-1.46534 -4.02035,-2.19799 -7.99287,-2.19799 l -1.53156,0 0,4.24747 1.67516,0 c 2.23352,0 3.69329,0.43562 4.37931,1.3069 0.67005,0.85148 1.00511,2.68313 1.00511,5.49497 l 0,7.36624 c 0,3.10887 0.36692,5.36626 1.10082,6.7722 0.71791,1.40592 1.95432,2.35639 3.70925,2.85144 -1.77086,0.53464 -3.01528,1.50493 -3.73319,2.91084 -0.71791,1.40593 -1.07688,3.65342 -1.07688,6.7425 l 0,7.36623 c 0,2.83161 -0.33506,4.67322 -1.00511,5.52465 -0.68602,0.85148 -2.14579,1.27725 -4.37931,1.27725 l -1.67516,0 z"
       id="path6371"
       style="font-size:12px;font-weight:normal;fill:#000000;fill-opacity:1;stroke:none;marker-end:none;font-family:Bitstream Vera Sans Mono"
       class="punch_line_bottom_set punch_line_non_focus" />
  </g>
  <text
     xml:space="preserve"
     style="font-size:22px;font-style:normal;font-variant:normal;font-weight:normal;font-stretch:normal;text-align:start;line-height:110%;letter-spacing:0px;word-spacing:0px;writing-mode:lr;text-anchor:start;fill:#000000;fill-opacity:1;stroke:none;font-family:Sans;-inkscape-font-specification:Sans"
     x="480.19531"
     y="734.62616"
     id="text6375"
     sodipodi:linespacing="110%"><tspan
       sodipodi:role="line"
       x="480.19531"
       y="734.62616"
       id="tspan6383">set of English words</tspan></text>
  <text
     xml:space="preserve"
     style="font-size:22px;font-style:normal;font-variant:normal;font-weight:normal;font-stretch:normal;text-align:start;line-height:110.00000238%;letter-spacing:0px;word-spacing:0px;writing-mode:lr-tb;text-anchor:start;fill:#000000;fill-opacity:1;stroke:none;font-family:Sans;-inkscape-font-specification:Sans"
     x="780.19531"
     y="654.10675"
     id="text6412"
     sodipodi:linespacing="110%"><tspan
       sodipodi:role="line"
       x="780.19531"
       y="654.10675"
       id="tspan6426">set of prime</tspan><tspan
       sodipodi:role="line"
       x="780.19531"
       y="678.30676"
       id="tspan6430">numbers in base 2</tspan></text>
  <text
     sodipodi:linespacing="110%"
     id="text6418"
     y="722.67615"
     x="780.44244"
     style="font-size:19.44000053px;font-style:normal;font-variant:normal;font-weight:normal;font-stretch:normal;text-align:start;line-height:110.00000238%;letter-spacing:0px;word-spacing:0px;writing-mode:lr-tb;text-anchor:start;fill:#000000;fill-opacity:1;stroke:none;font-family:Sans;-inkscape-font-specification:Sans"
     xml:space="preserve"><tspan
       y="722.67615"
       x="780.44244"
       sodipodi:role="line"
       id="tspan6420">set of binary encodings</tspan><tspan
       id="tspan6422"
       y="744.06012"
       x="780.44244"
       sodipodi:role="line">of the proof that P = NP</tspan></text>
  <text
     xml:space="preserve"
     style="font-size:29.15999985px;font-style:normal;font-weight:normal;line-height:125%;letter-spacing:0px;word-spacing:0px;fill:#000000;fill-opacity:1;stroke:none;font-family:Sans"
     x="803.3551"
     y="599.22711"
     id="text6446"
     sodipodi:linespacing="125%"><tspan
       sodipodi:role="line"
       id="tspan6448"
       x="803.3551"
       y="599.22711">0, 01, 001</tspan></text>
  <path
     inkscape:connector-curvature="0"
     d="m 795.94894,607.44455 0,3.11805 -1.11652,0 c -2.89595,0 -4.83821,-0.5341 -5.8268,-1.60235 -0.97695,-1.06821 -1.46542,-3.19744 -1.46542,-6.38767 l 0,-5.17511 c 0,-2.17976 -0.31402,-3.68825 -0.94205,-4.52551 -0.61642,-0.83726 -1.73875,-1.25588 -3.367,-1.25588 l -1.08161,0 0,-3.09641 1.08161,0 c 1.63989,0 2.76803,-0.4114 3.38443,-1.23423 0.61642,-0.82282 0.92462,-2.31689 0.92462,-4.48221 l 0,-5.19676 c 0,-3.19022 0.48847,-5.31225 1.46542,-6.36603 0.98859,-1.06823 2.93085,-1.60234 5.8268,-1.60234 l 1.11652,0 0,3.0964 -1.22119,0 c -1.62824,0 -2.69243,0.31758 -3.19253,0.95275 -0.48847,0.62072 -0.7327,1.956 -0.7327,4.00584 l 0,5.36999 c 0,2.26636 -0.2675,3.91199 -0.80252,4.93692 -0.52336,1.02491 -1.42469,1.71781 -2.70404,2.07869 1.29097,0.38976 2.19815,1.09711 2.7215,2.12201 0.52337,1.02493 0.78506,2.66335 0.78506,4.91528 l 0,5.36999 c 0,2.06424 0.24423,3.40677 0.7327,4.02748 0.5001,0.62072 1.56429,0.9311 3.19253,0.9311 l 1.22119,0 z"
     id="path6450"
     style="font-size:12px;font-weight:normal;fill:#000000;fill-opacity:1;stroke:none;marker-end:none;font-family:Bitstream Vera Sans Mono"
     class="punch_line_bottom_set punch_line_non_focus" />
  <path
     inkscape:connector-curvature="0"
     d="m 957.03352,607.44455 0,3.11805 1.11652,0 c 2.89596,0 4.83822,-0.53411 5.8268,-1.60236 0.97696,-1.06821 1.46543,-3.19743 1.46543,-6.38767 l 0,-5.17511 c 0,-2.17975 0.31401,-3.68825 0.94205,-4.52551 0.61642,-0.83725 1.73874,-1.25589 3.36697,-1.25589 l 1.08164,0 0,-3.0964 -1.08164,0 c -1.63988,0 -2.768,-0.4114 -3.3844,-1.23422 -0.61644,-0.82283 -0.92462,-2.3169 -0.92462,-4.48222 l 0,-5.19675 c 0,-3.19024 -0.48848,-5.31225 -1.46544,-6.36603 -0.98857,-1.06823 -2.93083,-1.60234 -5.8268,-1.60234 l -1.11651,0 0,3.09641 1.22119,0 c 1.62824,0 2.69241,0.31757 3.19252,0.95273 0.48847,0.62073 0.73273,1.956 0.73273,4.00583 l 0,5.36999 c 0,2.26637 0.26748,3.912 0.80249,4.93694 0.52336,1.02491 1.4247,1.7178 2.70405,2.07869 -1.29096,0.38976 -2.19814,1.0971 -2.7215,2.12201 -0.52336,1.02492 -0.78504,2.66334 -0.78504,4.91528 l 0,5.36998 c 0,2.06425 -0.24426,3.40678 -0.73273,4.02747 -0.50011,0.62073 -1.56428,0.93112 -3.19252,0.93112 l -1.22119,0 z"
     id="path6452"
     style="font-size:12px;font-weight:normal;fill:#000000;fill-opacity:1;stroke:none;marker-end:none;font-family:Bitstream Vera Sans Mono"
     class="punch_line_bottom_set punch_line_non_focus" />
</svg>
