<?xml version="1.0" encoding="UTF-8" standalone="no"?>
<svg
   xmlns:dc="http://purl.org/dc/elements/1.1/"
   xmlns:cc="http://creativecommons.org/ns#"
   xmlns:rdf="http://www.w3.org/1999/02/22-rdf-syntax-ns#"
   xmlns:svg="http://www.w3.org/2000/svg"
   xmlns="http://www.w3.org/2000/svg"
   xmlns:sodipodi="http://sodipodi.sourceforge.net/DTD/sodipodi-0.dtd"
   xmlns:inkscape="http://www.inkscape.org/namespaces/inkscape"
   height="768"
   width="1024"
   id="svg2"
   version="1.1"
   inkscape:version="0.48.2 r9819"
   sodipodi:docname="rational_languages.svg">
  <metadata
     id="metadata26767">
    <rdf:RDF>
      <cc:Work
         rdf:about="">
        <dc:format>image/svg+xml</dc:format>
        <dc:type
           rdf:resource="http://purl.org/dc/dcmitype/StillImage" />
        <dc:title></dc:title>
      </cc:Work>
    </rdf:RDF>
  </metadata>
  <defs
     id="defs26765" />
  <sodipodi:namedview
     pagecolor="#ffffff"
     bordercolor="#666666"
     borderopacity="1"
     objecttolerance="10"
     gridtolerance="10"
     guidetolerance="10"
     inkscape:pageopacity="0"
     inkscape:pageshadow="2"
     inkscape:window-width="1920"
     inkscape:window-height="1152"
     id="namedview26763"
     showgrid="false"
     inkscape:zoom="0.82987515"
     inkscape:cx="379.32557"
     inkscape:cy="317.97741"
     inkscape:window-x="0"
     inkscape:window-y="0"
     inkscape:window-maximized="1"
     inkscape:current-layer="svg2" />
  <rect
     y="-3.0517578e-05"
     x="2"
     width="1022"
     style="fill:#000000;fill-opacity:1;stroke:none;display:inline"
     id="rect3686"
     height="130" />
  <text
     xml:space="preserve"
     style="font-size:40px;font-style:normal;font-variant:normal;font-weight:normal;font-stretch:normal;text-align:start;line-height:125%;letter-spacing:0px;word-spacing:0px;writing-mode:lr-tb;text-anchor:start;fill:#000000;fill-opacity:1;stroke:none;font-family:Arial;-inkscape-font-specification:Arial"
     x="15.164461"
     y="180.57089"
     id="text5331"
     sodipodi:linespacing="125%"><tspan
       sodipodi:role="line"
       id="tspan5333"
       x="15.164461"
       y="180.57089">The following are examples of rational languages:</tspan></text>
  <text
     xml:space="preserve"
     style="font-size:40px;font-style:normal;font-variant:normal;font-weight:normal;font-stretch:normal;text-align:start;line-height:125%;letter-spacing:0px;word-spacing:0px;writing-mode:lr-tb;text-anchor:start;fill:#000000;fill-opacity:1;stroke:none;font-family:Arial;-inkscape-font-specification:Arial"
     x="82.268433"
     y="269.55011"
     id="text5337"
     sodipodi:linespacing="125%"><tspan
       sodipodi:role="line"
       id="tspan5339"
       x="82.268433"
       y="269.55011" /></text>
  <text
     xml:space="preserve"
     style="font-size:40px;font-style:normal;font-variant:normal;font-weight:normal;font-stretch:normal;text-align:start;line-height:125%;letter-spacing:0px;word-spacing:0px;writing-mode:lr-tb;text-anchor:start;fill:#000000;fill-opacity:1;stroke:none;font-family:Arial;-inkscape-font-specification:Arial"
     x="82.268433"
     y="269.55011"
     id="text5337-9"
     sodipodi:linespacing="125%"><tspan
       sodipodi:role="line"
       id="tspan5339-9"
       x="82.268433"
       y="269.55011" /></text>
  <text
     xml:space="preserve"
     style="font-size:40px;font-style:normal;font-variant:normal;font-weight:normal;font-stretch:normal;text-align:start;line-height:125%;letter-spacing:0px;word-spacing:0px;writing-mode:lr-tb;text-anchor:start;fill:#000000;fill-opacity:1;stroke:none;font-family:Arial;-inkscape-font-specification:Arial"
     x="82.268433"
     y="269.55011"
     id="text5337-4"
     sodipodi:linespacing="125%"><tspan
       sodipodi:role="line"
       id="tspan5339-94"
       x="82.268433"
       y="269.55011" /></text>
  <text
     xml:space="preserve"
     style="font-size:40px;font-style:normal;font-variant:normal;font-weight:normal;font-stretch:normal;text-align:start;line-height:125%;letter-spacing:0px;word-spacing:0px;writing-mode:lr-tb;text-anchor:start;fill:#000000;fill-opacity:1;stroke:none;font-family:Arial;-inkscape-font-specification:Arial"
     x="82.268433"
     y="269.55011"
     id="text5337-0"
     sodipodi:linespacing="125%"><tspan
       sodipodi:role="line"
       id="tspan5339-8"
       x="82.268433"
       y="269.55011" /></text>
  <text
     xml:space="preserve"
     style="font-size:40px;font-style:normal;font-variant:normal;font-weight:normal;font-stretch:normal;text-align:start;line-height:125%;letter-spacing:0px;word-spacing:0px;writing-mode:lr-tb;text-anchor:start;fill:#000000;fill-opacity:1;stroke:none;font-family:Arial;-inkscape-font-specification:Arial"
     x="82.268433"
     y="269.55011"
     id="text5337-05"
     sodipodi:linespacing="125%"><tspan
       sodipodi:role="line"
       id="tspan5339-7"
       x="82.268433"
       y="269.55011" /></text>
  <path
     inkscape:connector-curvature="0"
     d="m 43.67096,274.18763 0,3.84946 -1.37842,0 c -3.57525,0 -5.97311,-0.65939 -7.19358,-1.97823 -1.20611,-1.31877 -1.80916,-3.94745 -1.80916,-7.886 l 0,-6.38903 c 0,-2.69106 -0.38768,-4.55339 -1.16303,-5.58704 -0.76101,-1.03366 -2.1466,-1.55048 -4.15678,-1.55048 l -1.33532,0 0,-3.82272 1.33532,0 c 2.02455,0 3.41731,-0.50791 4.17831,-1.52375 0.761,-1.01582 1.1415,-2.86035 1.1415,-5.53358 l 0,-6.41576 c 0,-3.93855 0.60305,-6.55833 1.80916,-7.8593 1.22047,-1.31879 3.61833,-1.97819 7.19358,-1.97819 l 1.37842,0 0,3.82272 -1.50764,0 c -2.01017,0 -3.32399,0.39207 -3.9414,1.17622 -0.60304,0.76633 -0.90456,2.41482 -0.90456,4.94549 l 0,6.62961 c 0,2.79799 -0.33026,4.82963 -0.99077,6.09497 -0.64612,1.26532 -1.75887,2.12075 -3.33832,2.56629 1.59379,0.48119 2.71376,1.35445 3.35988,2.61976 0.64613,1.26534 0.96921,3.28808 0.96921,6.06825 l 0,6.62961 c 0,2.54845 0.30152,4.20589 0.90456,4.9722 0.61741,0.76632 1.93123,1.1495 3.9414,1.1495 l 1.50764,0 z"
     id="path4416"
     style="font-size:12px;font-weight:normal;fill:#000000;fill-opacity:1;stroke:none;marker-end:none;font-family:Bitstream Vera Sans Mono"
     class="punch_line_bottom_set punch_line_non_focus" />
  <path
     inkscape:connector-curvature="0"
     d="m 49.36551,274.18763 0,3.84946 1.37841,0 c 3.57526,0 5.97311,-0.6594 7.19358,-1.97823 1.20613,-1.31878 1.80917,-3.94745 1.80917,-7.88601 l 0,-6.38903 c 0,-2.69104 0.38767,-4.55339 1.16304,-5.58704 0.761,-1.03365 2.14658,-1.55049 4.15675,-1.55049 l 1.33535,0 0,-3.82271 -1.33535,0 c -2.02454,0 -3.41729,-0.50791 -4.17828,-1.52374 -0.76103,-1.01584 -1.14151,-2.86036 -1.14151,-5.53359 l 0,-6.41575 c 0,-3.93856 -0.60305,-6.55833 -1.80918,-7.8593 -1.22045,-1.3188 -3.61831,-1.97819 -7.19357,-1.97819 l -1.37841,0 0,3.82273 1.50764,0 c 2.01017,0 3.32397,0.39205 3.94138,1.17621 0.60304,0.76633 0.9046,2.41481 0.9046,4.94547 l 0,6.62961 c 0,2.79799 0.33023,4.82964 0.99074,6.09498 0.64612,1.26532 1.75888,2.12076 3.33832,2.5663 -1.59377,0.48118 -2.71375,1.35444 -3.35986,2.61976 -0.64613,1.26533 -0.9692,3.28807 -0.9692,6.06825 l 0,6.6296 c 0,2.54845 -0.30156,4.2059 -0.9046,4.97219 -0.61741,0.76633 -1.93121,1.14952 -3.94138,1.14952 l -1.50764,0 z"
     id="path4418"
     style="font-size:12px;font-weight:normal;fill:#000000;fill-opacity:1;stroke:none;marker-end:none;font-family:Bitstream Vera Sans Mono"
     class="punch_line_bottom_set punch_line_non_focus" />
  <text
     xml:space="preserve"
     style="font-size:36px;font-style:normal;font-variant:normal;font-weight:normal;font-stretch:normal;text-align:start;line-height:125%;letter-spacing:0px;word-spacing:0px;writing-mode:lr-tb;text-anchor:start;fill:#000000;fill-opacity:1;stroke:none;font-family:Arial;-inkscape-font-specification:Arial"
     x="174.48393"
     y="426.58893"
     id="text5459"
     sodipodi:linespacing="125%"><tspan
       sodipodi:role="line"
       id="tspan5461"
       x="174.48393"
       y="426.58893">the set of all strings containing only 0</tspan></text>
  <g
     id="g5888"
     transform="translate(0,-10)">
    <path
       inkscape:connector-curvature="0"
       d="m 43.67096,446.68509 0,3.84946 -1.37842,0 c -3.57525,0 -5.97311,-0.65939 -7.19358,-1.97823 -1.20611,-1.31877 -1.80916,-3.94745 -1.80916,-7.886 l 0,-6.38903 c 0,-2.69106 -0.38768,-4.55339 -1.16303,-5.58704 -0.76101,-1.03366 -2.1466,-1.55048 -4.15678,-1.55048 l -1.33532,0 0,-3.82272 1.33532,0 c 2.02455,0 3.41731,-0.50791 4.17831,-1.52375 0.761,-1.01582 1.1415,-2.86035 1.1415,-5.53358 l 0,-6.41576 c 0,-3.93855 0.60305,-6.55833 1.80916,-7.8593 1.22047,-1.31879 3.61833,-1.97819 7.19358,-1.97819 l 1.37842,0 0,3.82272 -1.50764,0 c -2.01017,0 -3.32399,0.39207 -3.9414,1.17622 -0.60304,0.76633 -0.90456,2.41482 -0.90456,4.94549 l 0,6.62961 c 0,2.79799 -0.33026,4.82963 -0.99077,6.09497 -0.64612,1.26532 -1.75887,2.12075 -3.33832,2.56629 1.59379,0.48119 2.71376,1.35445 3.35988,2.61976 0.64613,1.26534 0.96921,3.28808 0.96921,6.06825 l 0,6.62961 c 0,2.54845 0.30152,4.20589 0.90456,4.9722 0.61741,0.76632 1.93123,1.1495 3.9414,1.1495 l 1.50764,0 z"
       id="path4492"
       style="font-size:12px;font-weight:normal;fill:#000000;fill-opacity:1;stroke:none;marker-end:none;font-family:Bitstream Vera Sans Mono"
       class="punch_line_bottom_set punch_line_non_focus" />
    <path
       inkscape:connector-curvature="0"
       d="m 71.36551,446.68509 0,3.84946 1.37841,0 c 3.57526,0 5.97311,-0.6594 7.19358,-1.97823 1.20613,-1.31878 1.80917,-3.94745 1.80917,-7.88601 l 0,-6.38903 c 0,-2.69104 0.38767,-4.55339 1.16304,-5.58704 0.761,-1.03365 2.14658,-1.55049 4.15675,-1.55049 l 1.33535,0 0,-3.82271 -1.33535,0 c -2.02454,0 -3.41729,-0.50791 -4.17828,-1.52374 -0.76103,-1.01584 -1.14151,-2.86036 -1.14151,-5.53359 l 0,-6.41575 c 0,-3.93856 -0.60305,-6.55833 -1.80918,-7.8593 -1.22045,-1.3188 -3.61831,-1.97819 -7.19357,-1.97819 l -1.37841,0 0,3.82273 1.50764,0 c 2.01017,0 3.32397,0.39205 3.94138,1.17621 0.60304,0.76633 0.9046,2.41481 0.9046,4.94547 l 0,6.62961 c 0,2.79799 0.33023,4.82964 0.99074,6.09498 0.64612,1.26532 1.75888,2.12076 3.33832,2.5663 -1.59377,0.48118 -2.71375,1.35444 -3.35986,2.61976 -0.64613,1.26533 -0.9692,3.28807 -0.9692,6.06825 l 0,6.6296 c 0,2.54845 -0.30156,4.2059 -0.9046,4.97219 -0.61741,0.76633 -1.93121,1.14952 -3.94138,1.14952 l -1.50764,0 z"
       id="path4494"
       style="font-size:12px;font-weight:normal;fill:#000000;fill-opacity:1;stroke:none;marker-end:none;font-family:Bitstream Vera Sans Mono"
       class="punch_line_bottom_set punch_line_non_focus" />
    <text
       xml:space="preserve"
       style="font-size:40px;font-style:normal;font-variant:normal;font-weight:normal;font-stretch:normal;text-align:start;line-height:125%;letter-spacing:0px;word-spacing:0px;writing-mode:lr-tb;text-anchor:start;fill:#000000;fill-opacity:1;stroke:none;font-family:Arial;-inkscape-font-specification:Arial"
       x="46.883743"
       y="438.75693"
       id="text4496"
       sodipodi:linespacing="125%"><tspan
         sodipodi:role="line"
         id="tspan4498"
         x="46.883743"
         y="438.75693">0</tspan></text>
  </g>
  <g
     id="g4514"
     transform="translate(-57.549814,115.38399)">
    <path
       style="fill:none;stroke:#000000;stroke-width:4;stroke-linecap:butt;stroke-linejoin:miter;stroke-miterlimit:4;stroke-opacity:1;stroke-dasharray:none"
       d="m 186.43763,291.88852 21.90026,0"
       id="path4516"
       inkscape:connector-curvature="0" />
    <path
       inkscape:connector-curvature="0"
       id="path4518"
       d="m 186.43763,307.88852 21.90026,0"
       style="fill:none;stroke:#000000;stroke-width:4;stroke-linecap:butt;stroke-linejoin:miter;stroke-miterlimit:4;stroke-opacity:1;stroke-dasharray:none" />
  </g>
  <text
     sodipodi:linespacing="125%"
     id="text4564"
     y="429.94595"
     x="87.64743"
     style="font-size:58.56400299px;font-style:normal;font-variant:normal;font-weight:normal;font-stretch:normal;text-align:start;line-height:125%;letter-spacing:0px;word-spacing:0px;writing-mode:lr-tb;text-anchor:start;fill:#000000;fill-opacity:1;stroke:none;font-family:Arial;-inkscape-font-specification:Arial"
     xml:space="preserve"><tspan
       y="429.94595"
       x="87.64743"
       id="tspan4566"
       sodipodi:role="line">*</tspan></text>
  <g
     transform="translate(82.45019,197.38399)"
     id="g5566">
    <path
       inkscape:connector-curvature="0"
       id="path5568"
       d="m 186.43763,291.88852 21.90026,0"
       style="fill:none;stroke:#000000;stroke-width:4;stroke-linecap:butt;stroke-linejoin:miter;stroke-miterlimit:4;stroke-opacity:1;stroke-dasharray:none" />
    <path
       style="fill:none;stroke:#000000;stroke-width:4;stroke-linecap:butt;stroke-linejoin:miter;stroke-miterlimit:4;stroke-opacity:1;stroke-dasharray:none"
       d="m 186.43763,307.88852 21.90026,0"
       id="path5570"
       inkscape:connector-curvature="0" />
  </g>
  <text
     xml:space="preserve"
     style="font-size:58.56400299px;font-style:normal;font-variant:normal;font-weight:normal;font-stretch:normal;text-align:start;line-height:125%;letter-spacing:0px;word-spacing:0px;writing-mode:lr-tb;text-anchor:start;fill:#000000;fill-opacity:1;stroke:none;font-family:Arial;-inkscape-font-specification:Arial"
     x="225.64743"
     y="511.94592"
     id="text5572"
     sodipodi:linespacing="125%"><tspan
       sodipodi:role="line"
       id="tspan5574"
       x="225.64743"
       y="511.94592">*</tspan></text>
  <path
     transform="matrix(1.331,0,0,1.331,2.20436,-118.56206)"
     d="m 98.722116,461.67108 a 5.3232512,5.3232512 0 1 1 -10.646503,0 5.3232512,5.3232512 0 1 1 10.646503,0 z"
     sodipodi:ry="5.3232512"
     sodipodi:rx="5.3232512"
     sodipodi:cy="461.67108"
     sodipodi:cx="93.398865"
     id="path5585"
     style="fill:#000000;fill-opacity:1;stroke:none"
     sodipodi:type="arc" />
  <text
     xml:space="preserve"
     style="font-size:61.42243958px;font-style:normal;font-variant:normal;font-weight:normal;font-stretch:normal;text-align:start;line-height:125%;letter-spacing:0px;word-spacing:0px;writing-mode:lr-tb;text-anchor:start;fill:#000000;fill-opacity:1;stroke:none;font-family:Arial;-inkscape-font-specification:Arial"
     x="23.775879"
     y="536.99298"
     id="text5587"
     sodipodi:linespacing="125%"
     transform="scale(1.0488088,0.95346263)"><tspan
       sodipodi:role="line"
       id="tspan5589"
       x="23.775879"
       y="536.99298">(</tspan></text>
  <g
     id="g5792"
     transform="translate(-60,12)">
    <path
       class="punch_line_bottom_set punch_line_non_focus"
       style="font-size:12px;font-weight:normal;fill:#000000;fill-opacity:1;stroke:none;marker-end:none;font-family:Bitstream Vera Sans Mono"
       id="path5602"
       d="m 123.67096,506.68509 0,3.84946 -1.37842,0 c -3.57525,0 -5.97311,-0.65939 -7.19358,-1.97823 -1.20611,-1.31877 -1.80916,-3.94745 -1.80916,-7.886 l 0,-6.38903 c 0,-2.69106 -0.38768,-4.55339 -1.16303,-5.58704 -0.76101,-1.03366 -2.1466,-1.55048 -4.15678,-1.55048 l -1.33532,0 0,-3.82272 1.33532,0 c 2.02455,0 3.41731,-0.50791 4.17831,-1.52375 0.761,-1.01582 1.1415,-2.86035 1.1415,-5.53358 l 0,-6.41576 c 0,-3.93855 0.60305,-6.55833 1.80916,-7.8593 1.22047,-1.31879 3.61833,-1.97819 7.19358,-1.97819 l 1.37842,0 0,3.82272 -1.50764,0 c -2.01017,0 -3.32399,0.39207 -3.9414,1.17622 -0.60304,0.76633 -0.90456,2.41482 -0.90456,4.94549 l 0,6.62961 c 0,2.79799 -0.33026,4.82963 -0.99077,6.09497 -0.64612,1.26532 -1.75887,2.12075 -3.33832,2.56629 1.59379,0.48119 2.71376,1.35445 3.35988,2.61976 0.64613,1.26534 0.96921,3.28808 0.96921,6.06825 l 0,6.62961 c 0,2.54845 0.30152,4.20589 0.90456,4.9722 0.61741,0.76632 1.93123,1.1495 3.9414,1.1495 l 1.50764,0 z"
       inkscape:connector-curvature="0" />
    <path
       class="punch_line_bottom_set punch_line_non_focus"
       style="font-size:12px;font-weight:normal;fill:#000000;fill-opacity:1;stroke:none;marker-end:none;font-family:Bitstream Vera Sans Mono"
       id="path5604"
       d="m 151.36551,506.68509 0,3.84946 1.37841,0 c 3.57526,0 5.97311,-0.6594 7.19358,-1.97823 1.20613,-1.31878 1.80917,-3.94745 1.80917,-7.88601 l 0,-6.38903 c 0,-2.69104 0.38767,-4.55339 1.16304,-5.58704 0.761,-1.03365 2.14658,-1.55049 4.15675,-1.55049 l 1.33535,0 0,-3.82271 -1.33535,0 c -2.02454,0 -3.41729,-0.50791 -4.17828,-1.52374 -0.76103,-1.01584 -1.14151,-2.86036 -1.14151,-5.53359 l 0,-6.41575 c 0,-3.93856 -0.60305,-6.55833 -1.80918,-7.8593 -1.22045,-1.3188 -3.61831,-1.97819 -7.19357,-1.97819 l -1.37841,0 0,3.82273 1.50764,0 c 2.01017,0 3.32397,0.39205 3.94138,1.17621 0.60304,0.76633 0.9046,2.41481 0.9046,4.94547 l 0,6.62961 c 0,2.79799 0.33023,4.82964 0.99074,6.09498 0.64612,1.26532 1.75888,2.12076 3.33832,2.5663 -1.59377,0.48118 -2.71375,1.35444 -3.35986,2.61976 -0.64613,1.26533 -0.9692,3.28807 -0.9692,6.06825 l 0,6.6296 c 0,2.54845 -0.30156,4.2059 -0.9046,4.97219 -0.61741,0.76633 -1.93121,1.14952 -3.94138,1.14952 l -1.50764,0 z"
       inkscape:connector-curvature="0" />
    <text
       sodipodi:linespacing="125%"
       id="text5606"
       y="500.75693"
       x="126.88374"
       style="font-size:40px;font-style:normal;font-variant:normal;font-weight:normal;font-stretch:normal;text-align:start;line-height:125%;letter-spacing:0px;word-spacing:0px;writing-mode:lr-tb;text-anchor:start;fill:#000000;fill-opacity:1;stroke:none;font-family:Arial;-inkscape-font-specification:Arial"
       xml:space="preserve"><tspan
         y="500.75693"
         x="126.88374"
         id="tspan5608"
         sodipodi:role="line">0</tspan></text>
  </g>
  <g
     id="g5804"
     transform="translate(-60,12)">
    <path
       inkscape:connector-curvature="0"
       d="m 221.67096,506.68509 0,3.84946 -1.37842,0 c -3.57525,0 -5.97311,-0.65939 -7.19358,-1.97823 -1.20611,-1.31877 -1.80916,-3.94745 -1.80916,-7.886 l 0,-6.38903 c 0,-2.69106 -0.38768,-4.55339 -1.16303,-5.58704 -0.76101,-1.03366 -2.1466,-1.55048 -4.15678,-1.55048 l -1.33532,0 0,-3.82272 1.33532,0 c 2.02455,0 3.41731,-0.50791 4.17831,-1.52375 0.761,-1.01582 1.1415,-2.86035 1.1415,-5.53358 l 0,-6.41576 c 0,-3.93855 0.60305,-6.55833 1.80916,-7.8593 1.22047,-1.31879 3.61833,-1.97819 7.19358,-1.97819 l 1.37842,0 0,3.82272 -1.50764,0 c -2.01017,0 -3.32399,0.39207 -3.9414,1.17622 -0.60304,0.76633 -0.90456,2.41482 -0.90456,4.94549 l 0,6.62961 c 0,2.79799 -0.33026,4.82963 -0.99077,6.09497 -0.64612,1.26532 -1.75887,2.12075 -3.33832,2.56629 1.59379,0.48119 2.71376,1.35445 3.35988,2.61976 0.64613,1.26534 0.96921,3.28808 0.96921,6.06825 l 0,6.62961 c 0,2.54845 0.30152,4.20589 0.90456,4.9722 0.61741,0.76632 1.93123,1.1495 3.9414,1.1495 l 1.50764,0 z"
       id="path5610"
       style="font-size:12px;font-weight:normal;fill:#000000;fill-opacity:1;stroke:none;marker-end:none;font-family:Bitstream Vera Sans Mono"
       class="punch_line_bottom_set punch_line_non_focus" />
    <path
       inkscape:connector-curvature="0"
       d="m 249.36551,506.68509 0,3.84946 1.37841,0 c 3.57526,0 5.97311,-0.6594 7.19358,-1.97823 1.20613,-1.31878 1.80917,-3.94745 1.80917,-7.88601 l 0,-6.38903 c 0,-2.69104 0.38767,-4.55339 1.16304,-5.58704 0.761,-1.03365 2.14658,-1.55049 4.15675,-1.55049 l 1.33535,0 0,-3.82271 -1.33535,0 c -2.02454,0 -3.41729,-0.50791 -4.17828,-1.52374 -0.76103,-1.01584 -1.14151,-2.86036 -1.14151,-5.53359 l 0,-6.41575 c 0,-3.93856 -0.60305,-6.55833 -1.80918,-7.8593 -1.22045,-1.3188 -3.61831,-1.97819 -7.19357,-1.97819 l -1.37841,0 0,3.82273 1.50764,0 c 2.01017,0 3.32397,0.39205 3.94138,1.17621 0.60304,0.76633 0.9046,2.41481 0.9046,4.94547 l 0,6.62961 c 0,2.79799 0.33023,4.82964 0.99074,6.09498 0.64612,1.26532 1.75888,2.12076 3.33832,2.5663 -1.59377,0.48118 -2.71375,1.35444 -3.35986,2.61976 -0.64613,1.26533 -0.9692,3.28807 -0.9692,6.06825 l 0,6.6296 c 0,2.54845 -0.30156,4.2059 -0.9046,4.97219 -0.61741,0.76633 -1.93121,1.14952 -3.94138,1.14952 l -1.50764,0 z"
       id="path5612"
       style="font-size:12px;font-weight:normal;fill:#000000;fill-opacity:1;stroke:none;marker-end:none;font-family:Bitstream Vera Sans Mono"
       class="punch_line_bottom_set punch_line_non_focus" />
    <text
       xml:space="preserve"
       style="font-size:40px;font-style:normal;font-variant:normal;font-weight:normal;font-stretch:normal;text-align:start;line-height:125%;letter-spacing:0px;word-spacing:0px;writing-mode:lr-tb;text-anchor:start;fill:#000000;fill-opacity:1;stroke:none;font-family:Arial;-inkscape-font-specification:Arial"
       x="224.88373"
       y="500.75693"
       id="text5614"
       sodipodi:linespacing="125%"><tspan
         sodipodi:role="line"
         id="tspan5616"
         x="224.88373"
         y="500.75693">1</tspan></text>
  </g>
  <text
     transform="scale(-1.0488088,0.95346263)"
     sodipodi:linespacing="125%"
     id="text5618"
     y="536.99298"
     x="-217.35289"
     style="font-size:61.42243958px;font-style:normal;font-variant:normal;font-weight:normal;font-stretch:normal;text-align:start;line-height:125%;letter-spacing:0px;word-spacing:0px;writing-mode:lr-tb;text-anchor:start;fill:#000000;fill-opacity:1;stroke:none;font-family:Arial;-inkscape-font-specification:Arial"
     xml:space="preserve"><tspan
       y="536.99298"
       x="-217.35289"
       id="tspan5620"
       sodipodi:role="line">(</tspan></text>
  <text
     sodipodi:linespacing="125%"
     id="text5622"
     y="506.58893"
     x="314.48395"
     style="font-size:36px;font-style:normal;font-variant:normal;font-weight:normal;font-stretch:normal;text-align:start;line-height:125%;letter-spacing:0px;word-spacing:0px;writing-mode:lr-tb;text-anchor:start;fill:#000000;fill-opacity:1;stroke:none;font-family:Arial;-inkscape-font-specification:Arial"
     xml:space="preserve"><tspan
       y="506.58893"
       x="314.48395"
       sodipodi:role="line"
       id="tspan5626">the set of all strings containing 0 and 1</tspan></text>
  <text
     sodipodi:linespacing="125%"
     id="text5636"
     y="675.94592"
     x="85.64743"
     style="font-size:58.56400299px;font-style:normal;font-variant:normal;font-weight:normal;font-stretch:normal;text-align:start;line-height:125%;letter-spacing:0px;word-spacing:0px;writing-mode:lr-tb;text-anchor:start;fill:#000000;fill-opacity:1;stroke:none;font-family:Arial;-inkscape-font-specification:Arial"
     xml:space="preserve"><tspan
       y="675.94592"
       x="85.64743"
       id="tspan5638"
       sodipodi:role="line">*</tspan></text>
  <path
     sodipodi:type="arc"
     style="fill:#000000;fill-opacity:1;stroke:none"
     id="path5640"
     sodipodi:cx="93.398865"
     sodipodi:cy="461.67108"
     sodipodi:rx="5.3232512"
     sodipodi:ry="5.3232512"
     d="m 98.722116,461.67108 a 5.3232512,5.3232512 0 1 1 -10.646503,0 5.3232512,5.3232512 0 1 1 10.646503,0 z"
     transform="matrix(1.331,0,0,1.331,-7.79564,45.43794)" />
  <g
     id="g5786"
     transform="translate(-60,-24)">
    <path
       inkscape:connector-curvature="0"
       d="m 103.67096,706.68509 0,3.84946 -1.37842,0 c -3.57525,0 -5.97311,-0.65939 -7.19358,-1.97823 -1.20611,-1.31877 -1.80916,-3.94745 -1.80916,-7.886 l 0,-6.38903 c 0,-2.69106 -0.38768,-4.55339 -1.16303,-5.58704 -0.76101,-1.03366 -2.1466,-1.55048 -4.15678,-1.55048 l -1.33532,0 0,-3.82272 1.33532,0 c 2.02455,0 3.41731,-0.50791 4.17831,-1.52375 0.761,-1.01582 1.1415,-2.86035 1.1415,-5.53358 l 0,-6.41576 c 0,-3.93855 0.60305,-6.55833 1.80916,-7.8593 1.22047,-1.31879 3.61833,-1.97819 7.19358,-1.97819 l 1.37842,0 0,3.82272 -1.50764,0 c -2.01017,0 -3.32399,0.39207 -3.9414,1.17622 -0.60304,0.76633 -0.90456,2.41482 -0.90456,4.94549 l 0,6.62961 c 0,2.79799 -0.33026,4.82963 -0.99077,6.09497 -0.64612,1.26532 -1.75887,2.12075 -3.33832,2.56629 1.59379,0.48119 2.71376,1.35445 3.35988,2.61976 0.64613,1.26534 0.96921,3.28808 0.96921,6.06825 l 0,6.62961 c 0,2.54845 0.30152,4.20589 0.90456,4.9722 0.61741,0.76632 1.93123,1.1495 3.9414,1.1495 l 1.50764,0 z"
       id="path5646"
       style="font-size:12px;font-weight:normal;fill:#000000;fill-opacity:1;stroke:none;marker-end:none;font-family:Bitstream Vera Sans Mono"
       class="punch_line_bottom_set punch_line_non_focus" />
    <path
       inkscape:connector-curvature="0"
       d="m 131.36551,706.68509 0,3.84946 1.37841,0 c 3.57526,0 5.97311,-0.6594 7.19358,-1.97823 1.20613,-1.31878 1.80917,-3.94745 1.80917,-7.88601 l 0,-6.38903 c 0,-2.69104 0.38767,-4.55339 1.16304,-5.58704 0.761,-1.03365 2.14658,-1.55049 4.15675,-1.55049 l 1.33535,0 0,-3.82271 -1.33535,0 c -2.02454,0 -3.41729,-0.50791 -4.17828,-1.52374 -0.76103,-1.01584 -1.14151,-2.86036 -1.14151,-5.53359 l 0,-6.41575 c 0,-3.93856 -0.60305,-6.55833 -1.80918,-7.8593 -1.22045,-1.3188 -3.61831,-1.97819 -7.19357,-1.97819 l -1.37841,0 0,3.82273 1.50764,0 c 2.01017,0 3.32397,0.39205 3.94138,1.17621 0.60304,0.76633 0.9046,2.41481 0.9046,4.94547 l 0,6.62961 c 0,2.79799 0.33023,4.82964 0.99074,6.09498 0.64612,1.26532 1.75888,2.12076 3.33832,2.5663 -1.59377,0.48118 -2.71375,1.35444 -3.35986,2.61976 -0.64613,1.26533 -0.9692,3.28807 -0.9692,6.06825 l 0,6.6296 c 0,2.54845 -0.30156,4.2059 -0.9046,4.97219 -0.61741,0.76633 -1.93121,1.14952 -3.94138,1.14952 l -1.50764,0 z"
       id="path5648"
       style="font-size:12px;font-weight:normal;fill:#000000;fill-opacity:1;stroke:none;marker-end:none;font-family:Bitstream Vera Sans Mono"
       class="punch_line_bottom_set punch_line_non_focus" />
    <text
       xml:space="preserve"
       style="font-size:40px;font-style:normal;font-variant:normal;font-weight:normal;font-stretch:normal;text-align:start;line-height:125%;letter-spacing:0px;word-spacing:0px;writing-mode:lr-tb;text-anchor:start;fill:#000000;fill-opacity:1;stroke:none;font-family:Arial;-inkscape-font-specification:Arial"
       x="106.88374"
       y="700.75696"
       id="text5650"
       sodipodi:linespacing="125%"><tspan
         sodipodi:role="line"
         id="tspan5652"
         x="106.88374"
         y="700.75696">0</tspan></text>
  </g>
  <path
     inkscape:connector-curvature="0"
     d="m 151.67096,682.68509 0,3.84946 -1.37842,0 c -3.57525,0 -5.97311,-0.65939 -7.19358,-1.97823 -1.20611,-1.31877 -1.80916,-3.94745 -1.80916,-7.886 l 0,-6.38903 c 0,-2.69106 -0.38768,-4.55339 -1.16303,-5.58704 -0.76101,-1.03366 -2.1466,-1.55048 -4.15678,-1.55048 l -1.33532,0 0,-3.82272 1.33532,0 c 2.02455,0 3.41731,-0.50791 4.17831,-1.52375 0.761,-1.01582 1.1415,-2.86035 1.1415,-5.53358 l 0,-6.41576 c 0,-3.93855 0.60305,-6.55833 1.80916,-7.8593 1.22047,-1.31879 3.61833,-1.97819 7.19358,-1.97819 l 1.37842,0 0,3.82272 -1.50764,0 c -2.01017,0 -3.32399,0.39207 -3.9414,1.17622 -0.60304,0.76633 -0.90456,2.41482 -0.90456,4.94549 l 0,6.62961 c 0,2.79799 -0.33026,4.82963 -0.99077,6.09497 -0.64612,1.26532 -1.75887,2.12075 -3.33832,2.56629 1.59379,0.48119 2.71376,1.35445 3.35988,2.61976 0.64613,1.26534 0.96921,3.28808 0.96921,6.06825 l 0,6.62961 c 0,2.54845 0.30152,4.20589 0.90456,4.9722 0.61741,0.76632 1.93123,1.1495 3.9414,1.1495 l 1.50764,0 z"
     id="path5654"
     style="font-size:12px;font-weight:normal;fill:#000000;fill-opacity:1;stroke:none;marker-end:none;font-family:Bitstream Vera Sans Mono"
     class="punch_line_bottom_set punch_line_non_focus" />
  <path
     inkscape:connector-curvature="0"
     d="m 179.36551,682.68509 0,3.84946 1.37841,0 c 3.57526,0 5.97311,-0.6594 7.19358,-1.97823 1.20613,-1.31878 1.80917,-3.94745 1.80917,-7.88601 l 0,-6.38903 c 0,-2.69104 0.38767,-4.55339 1.16304,-5.58704 0.761,-1.03365 2.14658,-1.55049 4.15675,-1.55049 l 1.33535,0 0,-3.82271 -1.33535,0 c -2.02454,0 -3.41729,-0.50791 -4.17828,-1.52374 -0.76103,-1.01584 -1.14151,-2.86036 -1.14151,-5.53359 l 0,-6.41575 c 0,-3.93856 -0.60305,-6.55833 -1.80918,-7.8593 -1.22045,-1.3188 -3.61831,-1.97819 -7.19357,-1.97819 l -1.37841,0 0,3.82273 1.50764,0 c 2.01017,0 3.32397,0.39205 3.94138,1.17621 0.60304,0.76633 0.9046,2.41481 0.9046,4.94547 l 0,6.62961 c 0,2.79799 0.33023,4.82964 0.99074,6.09498 0.64612,1.26532 1.75888,2.12076 3.33832,2.5663 -1.59377,0.48118 -2.71375,1.35444 -3.35986,2.61976 -0.64613,1.26533 -0.9692,3.28807 -0.9692,6.06825 l 0,6.6296 c 0,2.54845 -0.30156,4.2059 -0.9046,4.97219 -0.61741,0.76633 -1.93121,1.14952 -3.94138,1.14952 l -1.50764,0 z"
     id="path5656"
     style="font-size:12px;font-weight:normal;fill:#000000;fill-opacity:1;stroke:none;marker-end:none;font-family:Bitstream Vera Sans Mono"
     class="punch_line_bottom_set punch_line_non_focus" />
  <text
     xml:space="preserve"
     style="font-size:40px;font-style:normal;font-variant:normal;font-weight:normal;font-stretch:normal;text-align:start;line-height:125%;letter-spacing:0px;word-spacing:0px;writing-mode:lr-tb;text-anchor:start;fill:#000000;fill-opacity:1;stroke:none;font-family:Arial;-inkscape-font-specification:Arial"
     x="154.88373"
     y="676.75696"
     id="text5658"
     sodipodi:linespacing="125%"><tspan
       sodipodi:role="line"
       id="tspan5660"
       x="154.88373"
       y="676.75696">1</tspan></text>
  <text
     xml:space="preserve"
     style="font-size:58.56400299px;font-style:normal;font-variant:normal;font-weight:normal;font-stretch:normal;text-align:start;line-height:125%;letter-spacing:0px;word-spacing:0px;writing-mode:lr-tb;text-anchor:start;fill:#000000;fill-opacity:1;stroke:none;font-family:Arial;-inkscape-font-specification:Arial"
     x="285.64743"
     y="675.94592"
     id="text5672"
     sodipodi:linespacing="125%"><tspan
       sodipodi:role="line"
       id="tspan5674"
       x="285.64743"
       y="675.94592">*</tspan></text>
  <path
     inkscape:connector-curvature="0"
     d="m 243.67096,682.68509 0,3.84946 -1.37842,0 c -3.57525,0 -5.97311,-0.65939 -7.19358,-1.97823 -1.20611,-1.31877 -1.80916,-3.94745 -1.80916,-7.886 l 0,-6.38903 c 0,-2.69106 -0.38768,-4.55339 -1.16303,-5.58704 -0.76101,-1.03366 -2.1466,-1.55048 -4.15678,-1.55048 l -1.33532,0 0,-3.82272 1.33532,0 c 2.02455,0 3.41731,-0.50791 4.17831,-1.52375 0.761,-1.01582 1.1415,-2.86035 1.1415,-5.53358 l 0,-6.41576 c 0,-3.93855 0.60305,-6.55833 1.80916,-7.8593 1.22047,-1.31879 3.61833,-1.97819 7.19358,-1.97819 l 1.37842,0 0,3.82272 -1.50764,0 c -2.01017,0 -3.32399,0.39207 -3.9414,1.17622 -0.60304,0.76633 -0.90456,2.41482 -0.90456,4.94549 l 0,6.62961 c 0,2.79799 -0.33026,4.82963 -0.99077,6.09497 -0.64612,1.26532 -1.75887,2.12075 -3.33832,2.56629 1.59379,0.48119 2.71376,1.35445 3.35988,2.61976 0.64613,1.26534 0.96921,3.28808 0.96921,6.06825 l 0,6.62961 c 0,2.54845 0.30152,4.20589 0.90456,4.9722 0.61741,0.76632 1.93123,1.1495 3.9414,1.1495 l 1.50764,0 z"
     id="path5676"
     style="font-size:12px;font-weight:normal;fill:#000000;fill-opacity:1;stroke:none;marker-end:none;font-family:Bitstream Vera Sans Mono"
     class="punch_line_bottom_set punch_line_non_focus" />
  <path
     inkscape:connector-curvature="0"
     d="m 271.36551,682.68509 0,3.84946 1.37841,0 c 3.57526,0 5.97311,-0.6594 7.19358,-1.97823 1.20613,-1.31878 1.80917,-3.94745 1.80917,-7.88601 l 0,-6.38903 c 0,-2.69104 0.38767,-4.55339 1.16304,-5.58704 0.761,-1.03365 2.14658,-1.55049 4.15675,-1.55049 l 1.33535,0 0,-3.82271 -1.33535,0 c -2.02454,0 -3.41729,-0.50791 -4.17828,-1.52374 -0.76103,-1.01584 -1.14151,-2.86036 -1.14151,-5.53359 l 0,-6.41575 c 0,-3.93856 -0.60305,-6.55833 -1.80918,-7.8593 -1.22045,-1.3188 -3.61831,-1.97819 -7.19357,-1.97819 l -1.37841,0 0,3.82273 1.50764,0 c 2.01017,0 3.32397,0.39205 3.94138,1.17621 0.60304,0.76633 0.9046,2.41481 0.9046,4.94547 l 0,6.62961 c 0,2.79799 0.33023,4.82964 0.99074,6.09498 0.64612,1.26532 1.75888,2.12076 3.33832,2.5663 -1.59377,0.48118 -2.71375,1.35444 -3.35986,2.61976 -0.64613,1.26533 -0.9692,3.28807 -0.9692,6.06825 l 0,6.6296 c 0,2.54845 -0.30156,4.2059 -0.9046,4.97219 -0.61741,0.76633 -1.93121,1.14952 -3.94138,1.14952 l -1.50764,0 z"
     id="path5678"
     style="font-size:12px;font-weight:normal;fill:#000000;fill-opacity:1;stroke:none;marker-end:none;font-family:Bitstream Vera Sans Mono"
     class="punch_line_bottom_set punch_line_non_focus" />
  <text
     xml:space="preserve"
     style="font-size:40px;font-style:normal;font-variant:normal;font-weight:normal;font-stretch:normal;text-align:start;line-height:125%;letter-spacing:0px;word-spacing:0px;writing-mode:lr-tb;text-anchor:start;fill:#000000;fill-opacity:1;stroke:none;font-family:Arial;-inkscape-font-specification:Arial"
     x="246.88373"
     y="676.75696"
     id="text5680"
     sodipodi:linespacing="125%"><tspan
       sodipodi:role="line"
       id="tspan5682"
       x="246.88373"
       y="676.75696">0</tspan></text>
  <path
     transform="matrix(1.331,0,0,1.331,86.20436,45.43794)"
     d="m 98.722116,461.67108 a 5.3232512,5.3232512 0 1 1 -10.646503,0 5.3232512,5.3232512 0 1 1 10.646503,0 z"
     sodipodi:ry="5.3232512"
     sodipodi:rx="5.3232512"
     sodipodi:cy="461.67108"
     sodipodi:cx="93.398865"
     id="path5684"
     style="fill:#000000;fill-opacity:1;stroke:none"
     sodipodi:type="arc" />
  <g
     id="g5686"
     transform="translate(142.45019,361.38399)">
    <path
       style="fill:none;stroke:#000000;stroke-width:4;stroke-linecap:butt;stroke-linejoin:miter;stroke-miterlimit:4;stroke-opacity:1;stroke-dasharray:none"
       d="m 186.43763,291.88852 21.90026,0"
       id="path5688"
       inkscape:connector-curvature="0" />
    <path
       inkscape:connector-curvature="0"
       id="path5690"
       d="m 186.43763,307.88852 21.90026,0"
       style="fill:none;stroke:#000000;stroke-width:4;stroke-linecap:butt;stroke-linejoin:miter;stroke-miterlimit:4;stroke-opacity:1;stroke-dasharray:none" />
  </g>
  <text
     xml:space="preserve"
     style="font-size:36px;font-style:normal;font-variant:normal;font-weight:normal;font-stretch:normal;text-align:start;line-height:125%;letter-spacing:0px;word-spacing:0px;writing-mode:lr-tb;text-anchor:start;fill:#000000;fill-opacity:1;stroke:none;font-family:Arial;-inkscape-font-specification:Arial"
     x="374.48395"
     y="672.27368"
     id="text5692"
     sodipodi:linespacing="125%"><tspan
       sodipodi:role="line"
       id="tspan5694"
       x="374.48395"
       y="672.27368">the set of all strings containing</tspan><tspan
       id="tspan5696"
       sodipodi:role="line"
       x="374.48395"
       y="717.27368">a single 1 and the rest 0</tspan></text>
  <g
     id="g5738"
     transform="translate(62.45019,279.38399)">
    <path
       style="fill:none;stroke:#000000;stroke-width:4;stroke-linecap:butt;stroke-linejoin:miter;stroke-miterlimit:4;stroke-opacity:1;stroke-dasharray:none"
       d="m 186.43763,291.88852 21.90026,0"
       id="path5740"
       inkscape:connector-curvature="0" />
    <path
       inkscape:connector-curvature="0"
       id="path5742"
       d="m 186.43763,307.88852 21.90026,0"
       style="fill:none;stroke:#000000;stroke-width:4;stroke-linecap:butt;stroke-linejoin:miter;stroke-miterlimit:4;stroke-opacity:1;stroke-dasharray:none" />
  </g>
  <text
     sodipodi:linespacing="125%"
     id="text5744"
     y="593.94592"
     x="85.64743"
     style="font-size:58.56400299px;font-style:normal;font-variant:normal;font-weight:normal;font-stretch:normal;text-align:start;line-height:125%;letter-spacing:0px;word-spacing:0px;writing-mode:lr-tb;text-anchor:start;fill:#000000;fill-opacity:1;stroke:none;font-family:Arial;-inkscape-font-specification:Arial"
     xml:space="preserve"><tspan
       y="593.94592"
       x="85.64743"
       id="tspan5746"
       sodipodi:role="line">*</tspan></text>
  <g
     id="g5780"
     transform="translate(-80,-6)">
    <path
       inkscape:connector-curvature="0"
       d="m 123.67096,606.68509 0,3.84946 -1.37842,0 c -3.57525,0 -5.97311,-0.65939 -7.19358,-1.97823 -1.20611,-1.31877 -1.80916,-3.94745 -1.80916,-7.886 l 0,-6.38903 c 0,-2.69106 -0.38768,-4.55339 -1.16303,-5.58704 -0.76101,-1.03366 -2.1466,-1.55048 -4.15678,-1.55048 l -1.33532,0 0,-3.82272 1.33532,0 c 2.02455,0 3.41731,-0.50791 4.17831,-1.52375 0.761,-1.01582 1.1415,-2.86035 1.1415,-5.53358 l 0,-6.41576 c 0,-3.93855 0.60305,-6.55833 1.80916,-7.8593 1.22047,-1.31879 3.61833,-1.97819 7.19358,-1.97819 l 1.37842,0 0,3.82272 -1.50764,0 c -2.01017,0 -3.32399,0.39207 -3.9414,1.17622 -0.60304,0.76633 -0.90456,2.41482 -0.90456,4.94549 l 0,6.62961 c 0,2.79799 -0.33026,4.82963 -0.99077,6.09497 -0.64612,1.26532 -1.75887,2.12075 -3.33832,2.56629 1.59379,0.48119 2.71376,1.35445 3.35988,2.61976 0.64613,1.26534 0.96921,3.28808 0.96921,6.06825 l 0,6.62961 c 0,2.54845 0.30152,4.20589 0.90456,4.9722 0.61741,0.76632 1.93123,1.1495 3.9414,1.1495 l 1.50764,0 z"
       id="path5754"
       style="font-size:12px;font-weight:normal;fill:#000000;fill-opacity:1;stroke:none;marker-end:none;font-family:Bitstream Vera Sans Mono"
       class="punch_line_bottom_set punch_line_non_focus" />
    <path
       inkscape:connector-curvature="0"
       d="m 151.36551,606.68509 0,3.84946 1.37841,0 c 3.57526,0 5.97311,-0.6594 7.19358,-1.97823 1.20613,-1.31878 1.80917,-3.94745 1.80917,-7.88601 l 0,-6.38903 c 0,-2.69104 0.38767,-4.55339 1.16304,-5.58704 0.761,-1.03365 2.14658,-1.55049 4.15675,-1.55049 l 1.33535,0 0,-3.82271 -1.33535,0 c -2.02454,0 -3.41729,-0.50791 -4.17828,-1.52374 -0.76103,-1.01584 -1.14151,-2.86036 -1.14151,-5.53359 l 0,-6.41575 c 0,-3.93856 -0.60305,-6.55833 -1.80918,-7.8593 -1.22045,-1.3188 -3.61831,-1.97819 -7.19357,-1.97819 l -1.37841,0 0,3.82273 1.50764,0 c 2.01017,0 3.32397,0.39205 3.94138,1.17621 0.60304,0.76633 0.9046,2.41481 0.9046,4.94547 l 0,6.62961 c 0,2.79799 0.33023,4.82964 0.99074,6.09498 0.64612,1.26532 1.75888,2.12076 3.33832,2.5663 -1.59377,0.48118 -2.71375,1.35444 -3.35986,2.61976 -0.64613,1.26533 -0.9692,3.28807 -0.9692,6.06825 l 0,6.6296 c 0,2.54845 -0.30156,4.2059 -0.9046,4.97219 -0.61741,0.76633 -1.93121,1.14952 -3.94138,1.14952 l -1.50764,0 z"
       id="path5756"
       style="font-size:12px;font-weight:normal;fill:#000000;fill-opacity:1;stroke:none;marker-end:none;font-family:Bitstream Vera Sans Mono"
       class="punch_line_bottom_set punch_line_non_focus" />
    <text
       xml:space="preserve"
       style="font-size:40px;font-style:normal;font-variant:normal;font-weight:normal;font-stretch:normal;text-align:start;line-height:125%;letter-spacing:0px;word-spacing:0px;writing-mode:lr-tb;text-anchor:start;fill:#000000;fill-opacity:1;stroke:none;font-family:Arial;-inkscape-font-specification:Arial"
       x="126.88374"
       y="600.75696"
       id="text5758"
       sodipodi:linespacing="125%"><tspan
         sodipodi:role="line"
         id="tspan5760"
         x="126.88374"
         y="600.75696">0</tspan></text>
  </g>
  <path
     inkscape:connector-curvature="0"
     d="m 161.67096,600.68509 0,3.84946 -1.37842,0 c -3.57525,0 -5.97311,-0.65939 -7.19358,-1.97823 -1.20611,-1.31877 -1.80916,-3.94745 -1.80916,-7.886 l 0,-6.38903 c 0,-2.69106 -0.38768,-4.55339 -1.16303,-5.58704 -0.76101,-1.03366 -2.1466,-1.55048 -4.15678,-1.55048 l -1.33532,0 0,-3.82272 1.33532,0 c 2.02455,0 3.41731,-0.50791 4.17831,-1.52375 0.761,-1.01582 1.1415,-2.86035 1.1415,-5.53358 l 0,-6.41576 c 0,-3.93855 0.60305,-6.55833 1.80916,-7.8593 1.22047,-1.31879 3.61833,-1.97819 7.19358,-1.97819 l 1.37842,0 0,3.82272 -1.50764,0 c -2.01017,0 -3.32399,0.39207 -3.9414,1.17622 -0.60304,0.76633 -0.90456,2.41482 -0.90456,4.94549 l 0,6.62961 c 0,2.79799 -0.33026,4.82963 -0.99077,6.09497 -0.64612,1.26532 -1.75887,2.12075 -3.33832,2.56629 1.59379,0.48119 2.71376,1.35445 3.35988,2.61976 0.64613,1.26534 0.96921,3.28808 0.96921,6.06825 l 0,6.62961 c 0,2.54845 0.30152,4.20589 0.90456,4.9722 0.61741,0.76632 1.93123,1.1495 3.9414,1.1495 l 1.50764,0 z"
     id="path5762"
     style="font-size:12px;font-weight:normal;fill:#000000;fill-opacity:1;stroke:none;marker-end:none;font-family:Bitstream Vera Sans Mono"
     class="punch_line_bottom_set punch_line_non_focus" />
  <path
     inkscape:connector-curvature="0"
     d="m 189.36551,600.68509 0,3.84946 1.37841,0 c 3.57526,0 5.97311,-0.6594 7.19358,-1.97823 1.20613,-1.31878 1.80917,-3.94745 1.80917,-7.88601 l 0,-6.38903 c 0,-2.69104 0.38767,-4.55339 1.16304,-5.58704 0.761,-1.03365 2.14658,-1.55049 4.15675,-1.55049 l 1.33535,0 0,-3.82271 -1.33535,0 c -2.02454,0 -3.41729,-0.50791 -4.17828,-1.52374 -0.76103,-1.01584 -1.14151,-2.86036 -1.14151,-5.53359 l 0,-6.41575 c 0,-3.93856 -0.60305,-6.55833 -1.80918,-7.8593 -1.22045,-1.3188 -3.61831,-1.97819 -7.19357,-1.97819 l -1.37841,0 0,3.82273 1.50764,0 c 2.01017,0 3.32397,0.39205 3.94138,1.17621 0.60304,0.76633 0.9046,2.41481 0.9046,4.94547 l 0,6.62961 c 0,2.79799 0.33023,4.82964 0.99074,6.09498 0.64612,1.26532 1.75888,2.12076 3.33832,2.5663 -1.59377,0.48118 -2.71375,1.35444 -3.35986,2.61976 -0.64613,1.26533 -0.9692,3.28807 -0.9692,6.06825 l 0,6.6296 c 0,2.54845 -0.30156,4.2059 -0.9046,4.97219 -0.61741,0.76633 -1.93121,1.14952 -3.94138,1.14952 l -1.50764,0 z"
     id="path5764"
     style="font-size:12px;font-weight:normal;fill:#000000;fill-opacity:1;stroke:none;marker-end:none;font-family:Bitstream Vera Sans Mono"
     class="punch_line_bottom_set punch_line_non_focus" />
  <text
     xml:space="preserve"
     style="font-size:40px;font-style:normal;font-variant:normal;font-weight:normal;font-stretch:normal;text-align:start;line-height:125%;letter-spacing:0px;word-spacing:0px;writing-mode:lr-tb;text-anchor:start;fill:#000000;fill-opacity:1;stroke:none;font-family:Arial;-inkscape-font-specification:Arial"
     x="164.88373"
     y="594.75696"
     id="text5766"
     sodipodi:linespacing="125%"><tspan
       sodipodi:role="line"
       id="tspan5768"
       x="164.88373"
       y="594.75696">1</tspan></text>
  <text
     xml:space="preserve"
     style="font-size:36px;font-style:normal;font-variant:normal;font-weight:normal;font-stretch:normal;text-align:start;line-height:125%;letter-spacing:0px;word-spacing:0px;writing-mode:lr-tb;text-anchor:start;fill:#000000;fill-opacity:1;stroke:none;font-family:Arial;-inkscape-font-specification:Arial"
     x="294.48395"
     y="590.27368"
     id="text5774"
     sodipodi:linespacing="125%"><tspan
       id="tspan5778"
       sodipodi:role="line"
       x="294.48395"
       y="590.27368">the set of all strings containing (only) 0 or 1</tspan></text>
  <g
     id="g4340"
     transform="translate(24.457283,281.68639)">
    <path
       inkscape:connector-curvature="0"
       id="path4281"
       d="m 93.882797,311.16824 0,-20.32514 0,22.26087"
       style="fill:none;stroke:#000000;stroke-width:3;stroke-linecap:butt;stroke-linejoin:miter;stroke-miterlimit:4;stroke-opacity:1;stroke-dasharray:none" />
    <path
       style="fill:none;stroke:#000000;stroke-width:3;stroke-linecap:butt;stroke-linejoin:miter;stroke-miterlimit:4;stroke-opacity:1;stroke-dasharray:none"
       d="m 84.688092,301.97354 20.325138,0 -22.260868,0"
       id="path4283"
       inkscape:connector-curvature="0" />
  </g>
  <text
     sodipodi:linespacing="125%"
     id="text5834"
     y="593.94592"
     x="205.64743"
     style="font-size:58.56400299px;font-style:normal;font-variant:normal;font-weight:normal;font-stretch:normal;text-align:start;line-height:125%;letter-spacing:0px;word-spacing:0px;writing-mode:lr-tb;text-anchor:start;fill:#000000;fill-opacity:1;stroke:none;font-family:Arial;-inkscape-font-specification:Arial"
     xml:space="preserve"><tspan
       y="593.94592"
       x="205.64743"
       id="tspan5836"
       sodipodi:role="line">*</tspan></text>
  <path
     style="fill:none;stroke:#000000;stroke-width:1;stroke-linecap:butt;stroke-linejoin:miter;stroke-opacity:1;stroke-miterlimit:4;stroke-dasharray:3,1;stroke-dashoffset:0"
     d="m -1.2050005,293.21475 1029.0705005,0"
     id="path5838"
     inkscape:connector-curvature="0" />
  <path
     inkscape:connector-curvature="0"
     id="path5840"
     d="m -1.2050005,213.21475 1029.0705005,0"
     style="fill:none;stroke:#000000;stroke-width:1;stroke-linecap:butt;stroke-linejoin:miter;stroke-opacity:1;stroke-miterlimit:4;stroke-dasharray:3,1;stroke-dashoffset:0" />
  <path
     style="fill:none;stroke:#000000;stroke-width:1;stroke-linecap:butt;stroke-linejoin:miter;stroke-opacity:1;stroke-miterlimit:4;stroke-dasharray:3,1;stroke-dashoffset:0"
     d="m -1.2050005,373.21475 1029.0705005,0"
     id="path5842"
     inkscape:connector-curvature="0" />
  <path
     inkscape:connector-curvature="0"
     id="path5844"
     d="m -1.2050005,453.21475 1029.0705005,0"
     style="fill:none;stroke:#000000;stroke-width:1;stroke-linecap:butt;stroke-linejoin:miter;stroke-opacity:1;stroke-miterlimit:4;stroke-dasharray:3,1;stroke-dashoffset:0" />
  <path
     style="fill:none;stroke:#000000;stroke-width:1;stroke-linecap:butt;stroke-linejoin:miter;stroke-miterlimit:4;stroke-opacity:1;stroke-dasharray:3, 1;stroke-dashoffset:0"
     d="m -1.2050005,535.21475 1029.0705005,0"
     id="path5846"
     inkscape:connector-curvature="0" />
  <path
     inkscape:connector-curvature="0"
     id="path5848"
     d="m -1.2050005,617.21475 1029.0705005,0"
     style="fill:none;stroke:#000000;stroke-width:1;stroke-linecap:butt;stroke-linejoin:miter;stroke-miterlimit:4;stroke-opacity:1;stroke-dasharray:3, 1;stroke-dashoffset:0" />
  <text
     sodipodi:linespacing="125%"
     id="text5864"
     y="346.58893"
     x="154.48393"
     style="font-size:36px;font-style:normal;font-variant:normal;font-weight:normal;font-stretch:normal;text-align:start;line-height:125%;letter-spacing:0px;word-spacing:0px;writing-mode:lr-tb;text-anchor:start;fill:#000000;fill-opacity:1;stroke:none;font-family:Arial;-inkscape-font-specification:Arial"
     xml:space="preserve"><tspan
       y="346.58893"
       x="154.48393"
       id="tspan5866"
       sodipodi:role="line">the set containing the string &quot;0&quot;</tspan></text>
  <g
     transform="translate(-77.549814,35.38399)"
     id="g5868">
    <path
       inkscape:connector-curvature="0"
       id="path5870"
       d="m 186.43763,291.88852 21.90026,0"
       style="fill:none;stroke:#000000;stroke-width:4;stroke-linecap:butt;stroke-linejoin:miter;stroke-miterlimit:4;stroke-opacity:1;stroke-dasharray:none" />
    <path
       style="fill:none;stroke:#000000;stroke-width:4;stroke-linecap:butt;stroke-linejoin:miter;stroke-miterlimit:4;stroke-opacity:1;stroke-dasharray:none"
       d="m 186.43763,307.88852 21.90026,0"
       id="path5872"
       inkscape:connector-curvature="0" />
  </g>
  <g
     id="g5882"
     transform="translate(0,-10)">
    <path
       inkscape:connector-curvature="0"
       d="m 43.67096,364.18763 0,3.84946 -1.37842,0 c -3.57525,0 -5.97311,-0.65939 -7.19358,-1.97823 -1.20611,-1.31877 -1.80916,-3.94745 -1.80916,-7.886 l 0,-6.38903 c 0,-2.69106 -0.38768,-4.55339 -1.16303,-5.58704 -0.76101,-1.03366 -2.1466,-1.55048 -4.15678,-1.55048 l -1.33532,0 0,-3.82272 1.33532,0 c 2.02455,0 3.41731,-0.50791 4.17831,-1.52375 0.761,-1.01582 1.1415,-2.86035 1.1415,-5.53358 l 0,-6.41576 c 0,-3.93855 0.60305,-6.55833 1.80916,-7.8593 1.22047,-1.31879 3.61833,-1.97819 7.19358,-1.97819 l 1.37842,0 0,3.82272 -1.50764,0 c -2.01017,0 -3.32399,0.39207 -3.9414,1.17622 -0.60304,0.76633 -0.90456,2.41482 -0.90456,4.94549 l 0,6.62961 c 0,2.79799 -0.33026,4.82963 -0.99077,6.09497 -0.64612,1.26532 -1.75887,2.12075 -3.33832,2.56629 1.59379,0.48119 2.71376,1.35445 3.35988,2.61976 0.64613,1.26534 0.96921,3.28808 0.96921,6.06825 l 0,6.62961 c 0,2.54845 0.30152,4.20589 0.90456,4.9722 0.61741,0.76632 1.93123,1.1495 3.9414,1.1495 l 1.50764,0 z"
       id="path5439"
       style="font-size:12px;font-weight:normal;fill:#000000;fill-opacity:1;stroke:none;marker-end:none;font-family:Bitstream Vera Sans Mono"
       class="punch_line_bottom_set punch_line_non_focus" />
    <path
       inkscape:connector-curvature="0"
       d="m 71.36551,364.18763 0,3.84946 1.37841,0 c 3.57526,0 5.97311,-0.6594 7.19358,-1.97823 1.20613,-1.31878 1.80917,-3.94745 1.80917,-7.88601 l 0,-6.38903 c 0,-2.69104 0.38767,-4.55339 1.16304,-5.58704 0.761,-1.03365 2.14658,-1.55049 4.15675,-1.55049 l 1.33535,0 0,-3.82271 -1.33535,0 c -2.02454,0 -3.41729,-0.50791 -4.17828,-1.52374 -0.76103,-1.01584 -1.14151,-2.86036 -1.14151,-5.53359 l 0,-6.41575 c 0,-3.93856 -0.60305,-6.55833 -1.80918,-7.8593 -1.22045,-1.3188 -3.61831,-1.97819 -7.19357,-1.97819 l -1.37841,0 0,3.82273 1.50764,0 c 2.01017,0 3.32397,0.39205 3.94138,1.17621 0.60304,0.76633 0.9046,2.41481 0.9046,4.94547 l 0,6.62961 c 0,2.79799 0.33023,4.82964 0.99074,6.09498 0.64612,1.26532 1.75888,2.12076 3.33832,2.5663 -1.59377,0.48118 -2.71375,1.35444 -3.35986,2.61976 -0.64613,1.26533 -0.9692,3.28807 -0.9692,6.06825 l 0,6.6296 c 0,2.54845 -0.30156,4.2059 -0.9046,4.97219 -0.61741,0.76633 -1.93121,1.14952 -3.94138,1.14952 l -1.50764,0 z"
       id="path5441"
       style="font-size:12px;font-weight:normal;fill:#000000;fill-opacity:1;stroke:none;marker-end:none;font-family:Bitstream Vera Sans Mono"
       class="punch_line_bottom_set punch_line_non_focus" />
    <text
       sodipodi:linespacing="125%"
       id="text5878"
       y="358.75693"
       x="46.883743"
       style="font-size:40px;font-style:normal;font-variant:normal;font-weight:normal;font-stretch:normal;text-align:start;line-height:125%;letter-spacing:0px;word-spacing:0px;writing-mode:lr-tb;text-anchor:start;fill:#000000;fill-opacity:1;stroke:none;font-family:Arial;-inkscape-font-specification:Arial"
       xml:space="preserve"><tspan
         y="358.75693"
         x="46.883743"
         id="tspan5880"
         sodipodi:role="line">0</tspan></text>
  </g>
  <text
     xml:space="preserve"
     style="font-size:36px;font-style:normal;font-variant:normal;font-weight:normal;font-stretch:normal;text-align:start;line-height:125%;letter-spacing:0px;word-spacing:0px;writing-mode:lr-tb;text-anchor:start;fill:#000000;fill-opacity:1;stroke:none;font-family:Arial;-inkscape-font-specification:Arial"
     x="132.48393"
     y="266.58893"
     id="text5894"
     sodipodi:linespacing="125%"><tspan
       sodipodi:role="line"
       id="tspan5896"
       x="132.48393"
       y="266.58893">the empty set</tspan></text>
  <g
     id="g5898"
     transform="translate(-99.549814,-44.61601)">
    <path
       style="fill:none;stroke:#000000;stroke-width:4;stroke-linecap:butt;stroke-linejoin:miter;stroke-miterlimit:4;stroke-opacity:1;stroke-dasharray:none"
       d="m 186.43763,291.88852 21.90026,0"
       id="path5900"
       inkscape:connector-curvature="0" />
    <path
       inkscape:connector-curvature="0"
       id="path5902"
       d="m 186.43763,307.88852 21.90026,0"
       style="fill:none;stroke:#000000;stroke-width:4;stroke-linecap:butt;stroke-linejoin:miter;stroke-miterlimit:4;stroke-opacity:1;stroke-dasharray:none" />
  </g>
  <path
     style="fill:none;stroke:#000000;stroke-width:1;stroke-linecap:butt;stroke-linejoin:miter;stroke-miterlimit:4;stroke-opacity:1;stroke-dasharray:3, 1;stroke-dashoffset:0"
     d="m -1.2050005,739.21475 1029.0705005,0"
     id="path5904"
     inkscape:connector-curvature="0" />
</svg>
