<?xml version="1.0" encoding="UTF-8" standalone="no"?>
<svg
   xmlns:dc="http://purl.org/dc/elements/1.1/"
   xmlns:cc="http://creativecommons.org/ns#"
   xmlns:rdf="http://www.w3.org/1999/02/22-rdf-syntax-ns#"
   xmlns:svg="http://www.w3.org/2000/svg"
   xmlns="http://www.w3.org/2000/svg"
   xmlns:sodipodi="http://sodipodi.sourceforge.net/DTD/sodipodi-0.dtd"
   xmlns:inkscape="http://www.inkscape.org/namespaces/inkscape"
   height="768"
   width="1024"
   id="svg2"
   version="1.1"
   inkscape:version="0.48.2 r9819"
   sodipodi:docname="weighted_languages.svg">
  <metadata
     id="metadata26767">
    <rdf:RDF>
      <cc:Work
         rdf:about="">
        <dc:format>image/svg+xml</dc:format>
        <dc:type
           rdf:resource="http://purl.org/dc/dcmitype/StillImage" />
        <dc:title />
      </cc:Work>
    </rdf:RDF>
  </metadata>
  <defs
     id="defs26765">
    <marker
       inkscape:stockid="Arrow1Mend"
       orient="auto"
       refY="0.0"
       refX="0.0"
       id="Arrow1Mend"
       style="overflow:visible;">
      <path
         id="path4343"
         d="M 0.0,0.0 L 5.0,-5.0 L -12.5,0.0 L 5.0,5.0 L 0.0,0.0 z "
         style="fill-rule:evenodd;stroke:#000000;stroke-width:1.0pt;marker-start:none;"
         transform="scale(0.4) rotate(180) translate(10,0)" />
    </marker>
    <marker
       inkscape:stockid="Arrow1Lend"
       orient="auto"
       refY="0.0"
       refX="0.0"
       id="Arrow1Lend"
       style="overflow:visible;">
      <path
         id="path4337"
         d="M 0.0,0.0 L 5.0,-5.0 L -12.5,0.0 L 5.0,5.0 L 0.0,0.0 z "
         style="fill-rule:evenodd;stroke:#000000;stroke-width:1.0pt;marker-start:none;"
         transform="scale(0.8) rotate(180) translate(12.5,0)" />
    </marker>
  </defs>
  <sodipodi:namedview
     pagecolor="#ffffff"
     bordercolor="#666666"
     borderopacity="1"
     objecttolerance="10"
     gridtolerance="10"
     guidetolerance="10"
     inkscape:pageopacity="0"
     inkscape:pageshadow="2"
     inkscape:window-width="1920"
     inkscape:window-height="1152"
     id="namedview26763"
     showgrid="true"
     inkscape:zoom="1"
     inkscape:cx="554.65906"
     inkscape:cy="284.40768"
     inkscape:window-x="0"
     inkscape:window-y="0"
     inkscape:window-maximized="1"
     inkscape:current-layer="svg2"
     showguides="true"
     inkscape:guide-bbox="true" />
  <rect
     y="-3.0517578e-05"
     x="2"
     width="1022"
     style="fill:#000000;fill-opacity:1;stroke:none;display:inline"
     id="rect3686"
     height="130" />
  <path
     style="font-size:12px;fill:#000000;fill-opacity:1;stroke:none"
     id="path608"
     d="m 360.79587,167.66187 c 3.66089,3.30643 25.12918,28.48007 31.49786,35.74692 -6.36868,6.63271 -24.13406,26.58919 -29.02204,32.54208 l 64.59646,0 0,-17.25716 c -5.72881,3.26065 -9.52652,6.821 -15.08001,10.47509 l -32.86092,0.12573 25.65852,-28.59756 0,-0.24654 -23.63287,-26.13223 c 7.4016,-0.28097 29.15249,0.37889 32.63585,0.13904 3.5689,2.98035 8.59236,7.30279 12.82929,10.21523 l 0,-17.0106 -66.62214,0 z"
     inkscape:connector-curvature="0" />
  <text
     xml:space="preserve"
     style="font-size:32.40000153px;font-style:normal;font-variant:normal;font-weight:normal;font-stretch:normal;text-align:center;line-height:125%;letter-spacing:0px;word-spacing:0px;writing-mode:lr-tb;text-anchor:middle;fill:#000000;fill-opacity:1;stroke:none;font-family:Sans;-inkscape-font-specification:Sans"
     x="582.77588"
     y="210.74484"
     id="text3376"
     sodipodi:linespacing="125%"><tspan
       sodipodi:role="line"
       x="582.77588"
       y="210.74484"
       id="tspan3415">alphabet</tspan></text>
  <path
     sodipodi:nodetypes="cc"
     inkscape:connector-curvature="0"
     id="path3401"
     d="m 1026.999,331.75305 -1027.997981,0"
     style="fill:none;stroke:#000000;stroke-width:2;stroke-linecap:butt;stroke-linejoin:miter;stroke-miterlimit:4;stroke-opacity:1;stroke-dasharray:none" />
  <path
     style="fill:none;stroke:#000000;stroke-width:2;stroke-linecap:butt;stroke-linejoin:miter;stroke-miterlimit:4;stroke-opacity:1;stroke-dasharray:none"
     d="m 1026.999,548.20157 -1027.997981,0"
     id="path3403"
     inkscape:connector-curvature="0"
     sodipodi:nodetypes="cc" />
  <g
     id="g9666">
    <path
       style="font-size:12px;fill:#000000;fill-opacity:1;stroke:none"
       id="path3425"
       d="m 172.16464,369.45583 c 3.66089,3.30643 25.12918,28.48007 31.49786,35.74692 -6.36868,6.63271 -24.13406,26.58919 -29.02204,32.54208 l 64.59646,0 0,-17.25716 c -5.72881,3.26065 -9.52652,6.821 -15.08001,10.47509 l -32.86092,0.12573 25.65852,-28.59756 0,-0.24654 -23.63287,-26.13223 c 7.4016,-0.28097 29.15249,0.37889 32.63584,0.13904 3.56891,2.98035 8.59237,7.30279 12.8293,10.21523 l 0,-17.0106 -66.62214,0 z"
       inkscape:connector-curvature="0" />
    <text
       sodipodi:linespacing="125%"
       id="text3427"
       y="405.99481"
       x="243.94617"
       style="font-size:74px;font-style:normal;font-variant:normal;font-weight:normal;font-stretch:normal;text-align:start;line-height:125%;letter-spacing:0px;word-spacing:0px;writing-mode:lr-tb;text-anchor:start;fill:#000000;fill-opacity:1;stroke:none;font-family:Sans;-inkscape-font-specification:Sans"
       xml:space="preserve"><tspan
         y="405.99481"
         x="243.94617"
         id="tspan3429"
         sodipodi:role="line">*</tspan></text>
  </g>
  <text
     sodipodi:linespacing="100%"
     id="text3431"
     y="378.33881"
     x="343.36121"
     style="font-size:32.40000153px;font-style:normal;font-variant:normal;font-weight:normal;font-stretch:normal;text-align:start;line-height:100%;letter-spacing:0px;word-spacing:0px;writing-mode:lr-tb;text-anchor:start;fill:#000000;fill-opacity:1;stroke:none;font-family:Sans;-inkscape-font-specification:Sans"
     xml:space="preserve"><tspan
       y="378.33881"
       x="343.36121"
       sodipodi:role="line"
       id="tspan4309">weighted words are</tspan><tspan
       y="410.7388"
       x="343.36121"
       sodipodi:role="line"
       id="tspan9648">pairs of the form (s,w)</tspan><tspan
       y="443.13879"
       x="343.36121"
       sodipodi:role="line"
       id="tspan9685">where</tspan></text>
  <text
     xml:space="preserve"
     style="font-size:22.68000031px;font-style:normal;font-variant:normal;font-weight:normal;font-stretch:normal;text-align:center;line-height:125%;letter-spacing:0px;word-spacing:0px;writing-mode:lr-tb;text-anchor:middle;fill:#000000;fill-opacity:1;stroke:none;font-family:Sans;-inkscape-font-specification:Sans"
     x="583.76855"
     y="280"
     id="text3439"
     sodipodi:linespacing="125%"><tspan
       sodipodi:role="line"
       x="583.76855"
       y="280"
       id="tspan4229">set of objects called</tspan><tspan
       sodipodi:role="line"
       x="583.76855"
       y="308.35001"
       id="tspan4295">letters or symbols</tspan></text>
  <g
     id="g4297"
     transform="translate(326.1191,9.33237)">
    <path
       sodipodi:nodetypes="cc"
       inkscape:connector-curvature="0"
       id="path3445"
       d="m 126.79,187.474 30.97181,0"
       style="fill:none;stroke:#000000;stroke-width:4;stroke-linecap:butt;stroke-linejoin:miter;stroke-miterlimit:4;stroke-opacity:1;stroke-dasharray:none" />
    <path
       style="fill:none;stroke:#000000;stroke-width:4;stroke-linecap:butt;stroke-linejoin:miter;stroke-miterlimit:4;stroke-opacity:1;stroke-dasharray:none"
       d="m 126.79,197.474 30.97181,0"
       id="path3447"
       inkscape:connector-curvature="0"
       sodipodi:nodetypes="cc" />
  </g>
  <g
     id="g5911"
     transform="translate(136,0.60033)">
    <path
       sodipodi:nodetypes="cc"
       inkscape:connector-curvature="0"
       id="path4223"
       d="m 180,388 c -30,0 -30,30 0,30"
       style="fill:none;stroke:#000000;stroke-width:4;stroke-linecap:butt;stroke-linejoin:miter;stroke-miterlimit:4;stroke-opacity:1;stroke-dasharray:none" />
    <path
       sodipodi:nodetypes="cc"
       inkscape:connector-curvature="0"
       id="path4225"
       d="m 157.75,403 22,0"
       style="fill:none;stroke:#000000;stroke-width:4;stroke-linecap:butt;stroke-linejoin:miter;stroke-miterlimit:4;stroke-opacity:1;stroke-dasharray:none" />
  </g>
  <text
     xml:space="preserve"
     style="font-size:40px;font-style:normal;font-weight:normal;line-height:125%;letter-spacing:0px;word-spacing:0px;fill:#000000;fill-opacity:1;stroke:none;font-family:Sans"
     x="420.05292"
     y="385.69376"
     id="text4285"
     sodipodi:linespacing="125%"><tspan
       sodipodi:role="line"
       x="420.05292"
       y="385.69376"
       id="tspan4289" /></text>
  <path
     style="fill:none;stroke:#000000;stroke-width:2;stroke-linecap:butt;stroke-linejoin:miter;stroke-miterlimit:4;stroke-opacity:1;stroke-dasharray:none;marker-end:url(#Arrow1Mend)"
     d="m 583.35329,222 0,30"
     id="path4329"
     inkscape:connector-curvature="0" />
  <path
     sodipodi:nodetypes="cc"
     inkscape:connector-curvature="0"
     id="path5893"
     d="m 719.81651,127.38608 2.3e-4,643.48498"
     style="fill:none;stroke:#000000;stroke-width:2;stroke-linecap:butt;stroke-linejoin:miter;stroke-miterlimit:4;stroke-opacity:1;stroke-dasharray:none" />
  <path
     transform="matrix(0.60050772,0,0,0.4003385,473.76645,218.67882)"
     d="m 470,373 a 10,15 0 1 1 -20,0 10,15 0 1 1 20,0 z"
     sodipodi:ry="15"
     sodipodi:rx="10"
     sodipodi:cy="373"
     sodipodi:cx="460"
     id="path6315"
     style="fill:#000000;fill-opacity:1;stroke:none;stroke-width:2;marker-end:none"
     sodipodi:type="arc" />
  <text
     sodipodi:linespacing="125%"
     id="text6317"
     y="378.9328"
     x="780"
     style="font-size:40px;font-style:normal;font-weight:normal;line-height:125%;letter-spacing:0px;word-spacing:0px;fill:#000000;fill-opacity:1;stroke:none;font-family:Sans"
     xml:space="preserve"><tspan
       y="378.9328"
       x="780"
       id="tspan6319"
       sodipodi:role="line">(42,ε)</tspan></text>
  <text
     sodipodi:linespacing="125%"
     id="text6321"
     y="448.92303"
     x="780.19531"
     style="font-size:40px;font-style:normal;font-weight:normal;line-height:125%;letter-spacing:0px;word-spacing:0px;fill:#000000;fill-opacity:1;stroke:none;font-family:Sans"
     xml:space="preserve"><tspan
       y="448.92303"
       x="780.19531"
       id="tspan6323"
       sodipodi:role="line">(3,aab)</tspan></text>
  <text
     sodipodi:linespacing="125%"
     id="text6325"
     y="522.91718"
     x="780.19531"
     style="font-size:40px;font-style:normal;font-weight:normal;line-height:125%;letter-spacing:0px;word-spacing:0px;fill:#000000;fill-opacity:1;stroke:none;font-family:Sans"
     xml:space="preserve"><tspan
       y="522.91718"
       x="780.19531"
       id="tspan6327"
       sodipodi:role="line">(25,april)</tspan></text>
  <path
     sodipodi:type="arc"
     style="fill:#000000;fill-opacity:1;stroke:none;stroke-width:2;marker-end:none"
     id="path6329"
     sodipodi:cx="460"
     sodipodi:cy="373"
     sodipodi:rx="10"
     sodipodi:ry="15"
     d="m 470,373 a 10,15 0 1 1 -20,0 10,15 0 1 1 20,0 z"
     transform="matrix(0.60050772,0,0,0.4003385,473.76645,288.67882)" />
  <path
     transform="matrix(0.60050772,0,0,0.4003385,473.76645,358.67882)"
     d="m 470,373 a 10,15 0 1 1 -20,0 10,15 0 1 1 20,0 z"
     sodipodi:ry="15"
     sodipodi:rx="10"
     sodipodi:cy="373"
     sodipodi:cx="460"
     id="path6331"
     style="fill:#000000;fill-opacity:1;stroke:none;stroke-width:2;marker-end:none"
     sodipodi:type="arc" />
  <path
     sodipodi:type="arc"
     style="fill:#000000;fill-opacity:1;stroke:none;stroke-width:2;marker-end:none"
     id="path6351"
     sodipodi:cx="460"
     sodipodi:cy="373"
     sodipodi:rx="10"
     sodipodi:ry="15"
     d="m 470,373 a 10,15 0 1 1 -20,0 10,15 0 1 1 20,0 z"
     transform="matrix(0.60050772,0,0,0.4003385,473.76645,438.67882)" />
  <path
     transform="matrix(0.60050772,0,0,0.4003385,473.76645,508.67882)"
     d="m 470,373 a 10,15 0 1 1 -20,0 10,15 0 1 1 20,0 z"
     sodipodi:ry="15"
     sodipodi:rx="10"
     sodipodi:cy="373"
     sodipodi:cx="460"
     id="path6365"
     style="fill:#000000;fill-opacity:1;stroke:none;stroke-width:2;marker-end:none"
     sodipodi:type="arc" />
  <text
     xml:space="preserve"
     style="font-size:22px;font-style:normal;font-variant:normal;font-weight:normal;font-stretch:normal;text-align:start;line-height:110.00000238%;letter-spacing:0px;word-spacing:0px;writing-mode:lr-tb;text-anchor:start;fill:#000000;fill-opacity:1;stroke:none;font-family:Sans;-inkscape-font-specification:Sans"
     x="780.19531"
     y="654.10675"
     id="text6412"
     sodipodi:linespacing="110%"><tspan
       sodipodi:role="line"
       x="780.19531"
       y="654.10675"
       id="tspan4134">set of pairs such that</tspan><tspan
       sodipodi:role="line"
       x="780.19531"
       y="678.30676"
       id="tspan4150">the first member</tspan><tspan
       sodipodi:role="line"
       x="780.19531"
       y="702.50677"
       id="tspan4163">counts the number of</tspan><tspan
       sodipodi:role="line"
       x="780.19531"
       y="726.70673"
       id="tspan4165">letters in the second</tspan><tspan
       sodipodi:role="line"
       x="780.19531"
       y="750.90674"
       id="tspan4136">member</tspan></text>
  <text
     xml:space="preserve"
     style="font-size:29.15999985px;font-style:normal;font-weight:normal;line-height:125%;letter-spacing:0px;word-spacing:0px;fill:#000000;fill-opacity:1;stroke:none;font-family:Sans"
     x="803.3551"
     y="599.22711"
     id="text6446"
     sodipodi:linespacing="125%"><tspan
       sodipodi:role="line"
       id="tspan6448"
       x="803.3551"
       y="599.22711">(0,ε), (1,a)</tspan></text>
  <path
     inkscape:connector-curvature="0"
     d="m 795.94894,607.44455 0,3.11805 -1.11652,0 c -2.89595,0 -4.83821,-0.5341 -5.8268,-1.60235 -0.97695,-1.06821 -1.46542,-3.19744 -1.46542,-6.38767 l 0,-5.17511 c 0,-2.17976 -0.31402,-3.68825 -0.94205,-4.52551 -0.61642,-0.83726 -1.73875,-1.25588 -3.367,-1.25588 l -1.08161,0 0,-3.09641 1.08161,0 c 1.63989,0 2.76803,-0.4114 3.38443,-1.23423 0.61642,-0.82282 0.92462,-2.31689 0.92462,-4.48221 l 0,-5.19676 c 0,-3.19022 0.48847,-5.31225 1.46542,-6.36603 0.98859,-1.06823 2.93085,-1.60234 5.8268,-1.60234 l 1.11652,0 0,3.0964 -1.22119,0 c -1.62824,0 -2.69243,0.31758 -3.19253,0.95275 -0.48847,0.62072 -0.7327,1.956 -0.7327,4.00584 l 0,5.36999 c 0,2.26636 -0.2675,3.91199 -0.80252,4.93692 -0.52336,1.02491 -1.42469,1.71781 -2.70404,2.07869 1.29097,0.38976 2.19815,1.09711 2.7215,2.12201 0.52337,1.02493 0.78506,2.66335 0.78506,4.91528 l 0,5.36999 c 0,2.06424 0.24423,3.40677 0.7327,4.02748 0.5001,0.62072 1.56429,0.9311 3.19253,0.9311 l 1.22119,0 z"
     id="path6450"
     style="font-size:12px;font-weight:normal;fill:#000000;fill-opacity:1;stroke:none;marker-end:none;font-family:Bitstream Vera Sans Mono"
     class="punch_line_bottom_set punch_line_non_focus" />
  <path
     inkscape:connector-curvature="0"
     d="m 961.03352,607.44455 0,3.11805 1.11652,0 c 2.89596,0 4.83822,-0.53411 5.8268,-1.60236 0.97696,-1.06821 1.46543,-3.19743 1.46543,-6.38767 l 0,-5.17511 c 0,-2.17975 0.31401,-3.68825 0.94205,-4.52551 0.61642,-0.83725 1.73874,-1.25589 3.36697,-1.25589 l 1.08164,0 0,-3.0964 -1.08164,0 c -1.63988,0 -2.768,-0.4114 -3.3844,-1.23422 -0.61644,-0.82283 -0.92462,-2.3169 -0.92462,-4.48222 l 0,-5.19675 c 0,-3.19024 -0.48848,-5.31225 -1.46544,-6.36603 -0.98857,-1.06823 -2.93083,-1.60234 -5.8268,-1.60234 l -1.11651,0 0,3.09641 1.22119,0 c 1.62824,0 2.69241,0.31757 3.19252,0.95273 0.48847,0.62073 0.73273,1.956 0.73273,4.00583 l 0,5.36999 c 0,2.26637 0.26748,3.912 0.80249,4.93694 0.52336,1.02491 1.4247,1.7178 2.70405,2.07869 -1.29096,0.38976 -2.19814,1.0971 -2.7215,2.12201 -0.52336,1.02492 -0.78504,2.66334 -0.78504,4.91528 l 0,5.36998 c 0,2.06425 -0.24426,3.40678 -0.73273,4.02747 -0.50011,0.62073 -1.56428,0.93112 -3.19252,0.93112 l -1.22119,0 z"
     id="path6452"
     style="font-size:12px;font-weight:normal;fill:#000000;fill-opacity:1;stroke:none;marker-end:none;font-family:Bitstream Vera Sans Mono"
     class="punch_line_bottom_set punch_line_non_focus" />
  <text
     sodipodi:linespacing="125%"
     id="text9084"
     y="210.74484"
     x="242.77588"
     style="font-size:32.40000153px;font-style:normal;font-variant:normal;font-weight:normal;font-stretch:normal;text-align:center;line-height:125%;letter-spacing:0px;word-spacing:0px;writing-mode:lr-tb;text-anchor:middle;fill:#000000;fill-opacity:1;stroke:none;font-family:Sans;-inkscape-font-specification:Sans"
     xml:space="preserve"><tspan
       id="tspan9086"
       y="210.74484"
       x="242.77588"
       sodipodi:role="line">semiring</tspan></text>
  <g
     transform="translate(-15.8809,9.33237)"
     id="g9088">
    <path
       style="fill:none;stroke:#000000;stroke-width:4;stroke-linecap:butt;stroke-linejoin:miter;stroke-miterlimit:4;stroke-opacity:1;stroke-dasharray:none"
       d="m 126.79,187.474 30.97181,0"
       id="path9090"
       inkscape:connector-curvature="0"
       sodipodi:nodetypes="cc" />
    <path
       sodipodi:nodetypes="cc"
       inkscape:connector-curvature="0"
       id="path9092"
       d="m 126.79,197.474 30.97181,0"
       style="fill:none;stroke:#000000;stroke-width:4;stroke-linecap:butt;stroke-linejoin:miter;stroke-miterlimit:4;stroke-opacity:1;stroke-dasharray:none" />
  </g>
  <text
     sodipodi:linespacing="125%"
     id="text9094"
     y="280"
     x="243.76855"
     style="font-size:22.68000031px;font-style:normal;font-variant:normal;font-weight:normal;font-stretch:normal;text-align:center;line-height:125%;letter-spacing:0px;word-spacing:0px;writing-mode:lr-tb;text-anchor:middle;fill:#000000;fill-opacity:1;stroke:none;font-family:Sans;-inkscape-font-specification:Sans"
     xml:space="preserve"><tspan
       id="tspan9098"
       y="280"
       x="243.76855"
       sodipodi:role="line">a ring without an</tspan><tspan
       y="308.35001"
       x="243.76855"
       sodipodi:role="line"
       id="tspan10594">additive inverse</tspan></text>
  <path
     inkscape:connector-curvature="0"
     id="path9100"
     d="m 243.35329,222 0,30"
     style="fill:none;stroke:#000000;stroke-width:2;stroke-linecap:butt;stroke-linejoin:miter;stroke-miterlimit:4;stroke-opacity:1;stroke-dasharray:none;marker-end:url(#Arrow1Mend)" />
  <text
     xml:space="preserve"
     style="font-size:94.31790924px;font-style:normal;font-variant:normal;font-weight:normal;font-stretch:normal;text-align:start;line-height:125%;letter-spacing:0px;word-spacing:0px;writing-mode:lr-tb;text-anchor:start;fill:#000000;fill-opacity:1;stroke:none;font-family:Arial;-inkscape-font-specification:Arial"
     x="23.222748"
     y="235.56371"
     id="text9102"
     sodipodi:linespacing="125%"><tspan
       sodipodi:role="line"
       id="tspan9104"
       x="23.222748"
       y="235.56371">S</tspan></text>
  <text
     sodipodi:linespacing="125%"
     id="text9106"
     y="435.56372"
     x="26.558935"
     style="font-size:94.31790924px;font-style:normal;font-variant:normal;font-weight:normal;font-stretch:normal;text-align:start;line-height:125%;letter-spacing:0px;word-spacing:0px;writing-mode:lr-tb;text-anchor:start;fill:#000000;fill-opacity:1;stroke:none;font-family:Arial;-inkscape-font-specification:Arial"
     xml:space="preserve"><tspan
       y="435.56372"
       x="26.558935"
       id="tspan9108"
       sodipodi:role="line">S</tspan></text>
  <g
     id="g9634"
     transform="translate(-20,0)">
    <path
       inkscape:connector-curvature="0"
       id="path9110"
       d="m 133.8949,381.8949 32.2102,32.2102"
       style="fill:none;stroke:#000000;stroke-width:6.44204044;stroke-linecap:butt;stroke-linejoin:miter;stroke-miterlimit:4;stroke-opacity:1;stroke-dasharray:none" />
    <path
       inkscape:connector-curvature="0"
       id="path9112"
       d="m 133.8949,414.1051 32.2102,-32.2102"
       style="fill:none;stroke:#000000;stroke-width:6.44204044;stroke-linecap:butt;stroke-linejoin:miter;stroke-miterlimit:4;stroke-opacity:1;stroke-dasharray:none" />
  </g>
  <g
     transform="translate(390,59.644043)"
     id="g9656">
    <path
       style="fill:none;stroke:#000000;stroke-width:4;stroke-linecap:butt;stroke-linejoin:miter;stroke-miterlimit:4;stroke-opacity:1;stroke-dasharray:none"
       d="m 180,388 c -30,0 -30,30 0,30"
       id="path9658"
       inkscape:connector-curvature="0"
       sodipodi:nodetypes="cc" />
    <path
       style="fill:none;stroke:#000000;stroke-width:4;stroke-linecap:butt;stroke-linejoin:miter;stroke-miterlimit:4;stroke-opacity:1;stroke-dasharray:none"
       d="m 157.75,403 22,0"
       id="path9660"
       inkscape:connector-curvature="0"
       sodipodi:nodetypes="cc" />
  </g>
  <text
     xml:space="preserve"
     style="font-size:40.60077286px;font-style:normal;font-variant:normal;font-weight:normal;font-stretch:normal;text-align:start;line-height:125%;letter-spacing:0px;word-spacing:0px;writing-mode:lr-tb;text-anchor:start;fill:#000000;fill-opacity:1;stroke:none;font-family:Arial;-inkscape-font-specification:Arial"
     x="590.06183"
     y="477.17548"
     id="text9662"
     sodipodi:linespacing="125%"><tspan
       sodipodi:role="line"
       id="tspan9664"
       x="590.06183"
       y="477.17548">S</tspan></text>
  <g
     id="g9671"
     transform="matrix(0.43046721,0,0,0.43046721,512.40308,338.6288)">
    <path
       inkscape:connector-curvature="0"
       d="m 172.16464,369.45583 c 3.66089,3.30643 25.12918,28.48007 31.49786,35.74692 -6.36868,6.63271 -24.13406,26.58919 -29.02204,32.54208 l 64.59646,0 0,-17.25716 c -5.72881,3.26065 -9.52652,6.821 -15.08001,10.47509 l -32.86092,0.12573 25.65852,-28.59756 0,-0.24654 -23.63287,-26.13223 c 7.4016,-0.28097 29.15249,0.37889 32.63584,0.13904 3.56891,2.98035 8.59237,7.30279 12.8293,10.21523 l 0,-17.0106 -66.62214,0 z"
       id="path9673"
       style="font-size:12px;fill:#000000;fill-opacity:1;stroke:none" />
    <text
       xml:space="preserve"
       style="font-size:74px;font-style:normal;font-variant:normal;font-weight:normal;font-stretch:normal;text-align:start;line-height:125%;letter-spacing:0px;word-spacing:0px;writing-mode:lr-tb;text-anchor:start;fill:#000000;fill-opacity:1;stroke:none;font-family:Sans;-inkscape-font-specification:Sans"
       x="243.94617"
       y="405.99481"
       id="text9675"
       sodipodi:linespacing="125%"><tspan
         sodipodi:role="line"
         id="tspan9677"
         x="243.94617"
         y="405.99481">*</tspan></text>
  </g>
  <text
     xml:space="preserve"
     style="font-size:40px;font-style:normal;font-variant:normal;font-weight:normal;font-stretch:normal;text-align:start;line-height:125%;letter-spacing:0px;word-spacing:0px;writing-mode:lr-tb;text-anchor:start;fill:#000000;fill-opacity:1;stroke:none;font-family:Arial;-inkscape-font-specification:Arial"
     x="511.90369"
     y="473.01514"
     id="text9687"
     sodipodi:linespacing="125%"><tspan
       sodipodi:role="line"
       id="tspan9689"
       x="511.90369"
       y="473.01514">s</tspan></text>
  <text
     sodipodi:linespacing="125%"
     id="text9691"
     y="521.01514"
     x="507.90369"
     style="font-size:40px;font-style:normal;font-variant:normal;font-weight:normal;font-stretch:normal;text-align:start;line-height:125%;letter-spacing:0px;word-spacing:0px;writing-mode:lr-tb;text-anchor:start;fill:#000000;fill-opacity:1;stroke:none;font-family:Arial;-inkscape-font-specification:Arial"
     xml:space="preserve"><tspan
       y="521.01514"
       x="507.90369"
       id="tspan9693"
       sodipodi:role="line">w</tspan></text>
  <g
     id="g9695"
     transform="translate(390,107.64404)">
    <path
       sodipodi:nodetypes="cc"
       inkscape:connector-curvature="0"
       id="path9697"
       d="m 180,388 c -30,0 -30,30 0,30"
       style="fill:none;stroke:#000000;stroke-width:4;stroke-linecap:butt;stroke-linejoin:miter;stroke-miterlimit:4;stroke-opacity:1;stroke-dasharray:none" />
    <path
       sodipodi:nodetypes="cc"
       inkscape:connector-curvature="0"
       id="path9699"
       d="m 157.75,403 22,0"
       style="fill:none;stroke:#000000;stroke-width:4;stroke-linecap:butt;stroke-linejoin:miter;stroke-miterlimit:4;stroke-opacity:1;stroke-dasharray:none" />
  </g>
  <flowRoot
     xml:space="preserve"
     id="flowRoot10506"
     style="fill:black;stroke:none;stroke-opacity:1;stroke-width:1px;stroke-linejoin:miter;stroke-linecap:butt;fill-opacity:1;font-family:Arial;font-style:normal;font-weight:normal;font-size:40px;line-height:125%;letter-spacing:0px;word-spacing:0px;-inkscape-font-specification:Arial;font-stretch:normal;font-variant:normal;text-anchor:start;text-align:start;writing-mode:lr"><flowRegion
       id="flowRegion10508"><rect
         id="rect10510"
         width="9.8994951"
         height="84.852814"
         x="1120.0571"
         y="174.0303" /></flowRegion><flowPara
       id="flowPara10512" /></flowRoot>  <path
     inkscape:connector-curvature="0"
     d="m 882.6682,298.25566 0,5.28046 -1.8908,0 c -4.9044,0 -8.1936,-0.90451 -9.8678,-2.71361 -1.6545,-1.80902 -2.4817,-5.41488 -2.4817,-10.81757 l 0,-8.76409 c 0,-3.69144 -0.5318,-6.24609 -1.5954,-7.66399 -1.0439,-1.41791 -2.9445,-2.12685 -5.702,-2.12685 l -1.8317,0 0,-5.24379 1.8317,0 c 2.7772,0 4.6877,-0.69672 5.7316,-2.09019 1.0439,-1.39344 1.5658,-3.92366 1.5658,-7.59065 l 0,-8.80076 c 0,-5.40268 0.8272,-8.99633 2.4817,-10.78093 1.6742,-1.80905 4.9634,-2.71357 9.8678,-2.71357 l 1.8908,0 0,5.24378 -2.0681,0 c -2.7574,0 -4.5597,0.53783 -5.4066,1.61348 -0.8272,1.0512 -1.2408,3.31251 -1.2408,6.78393 l 0,9.09412 c 0,3.83811 -0.453,6.625 -1.3591,8.36072 -0.8863,1.7357 -2.4127,2.90913 -4.5793,3.52029 2.1863,0.66006 3.7226,1.85795 4.6089,3.59364 0.8863,1.73572 1.3295,4.5104 1.3295,8.32406 l 0,9.09412 c 0,3.49583 0.4136,5.76941 1.2408,6.82057 0.8469,1.0512 2.6492,1.57683 5.4066,1.57683 l 2.0681,0 z"
     id="path627"
     style="font-size:12px;font-weight:normal;fill:#000000;fill-opacity:1;stroke:none;marker-end:none;font-family:Bitstream Vera Sans Mono"
     class="punch_line_bottom_set punch_line_non_focus" />
  <path
     inkscape:connector-curvature="0"
     d="m 989.2451,298.25566 0,5.28046 1.8908,0 c 4.9043,0 8.1936,-0.90452 9.8677,-2.71362 1.6545,-1.80902 2.4817,-5.41488 2.4817,-10.81757 l 0,-8.76409 c 0,-3.69142 0.5318,-6.24609 1.5954,-7.66399 1.0439,-1.4179 2.9446,-2.12686 5.702,-2.12686 l 1.8318,0 0,-5.24378 -1.8318,0 c -2.7771,0 -4.6876,-0.69672 -5.7315,-2.09018 -1.0439,-1.39346 -1.5659,-3.92368 -1.5659,-7.59066 l 0,-8.80075 c 0,-5.4027 -0.8272,-8.99633 -2.4817,-10.78093 -1.6741,-1.80906 -4.9634,-2.71357 -9.8677,-2.71357 l -1.8908,0 0,5.24379 2.0681,0 c 2.7574,0 4.5596,0.5378 5.4065,1.61346 0.8272,1.05121 1.2409,3.31251 1.2409,6.78392 l 0,9.09412 c 0,3.83811 0.453,6.62501 1.359,8.36073 0.8863,1.7357 2.4128,2.90913 4.5794,3.5203 -2.1863,0.66005 -3.7226,1.85794 -4.6089,3.59364 -0.8863,1.73571 -1.3295,4.51039 -1.3295,8.32406 l 0,9.09411 c 0,3.49583 -0.4137,5.76941 -1.2409,6.82056 -0.8469,1.05121 -2.6491,1.57685 -5.4065,1.57685 l -2.0681,0 z"
     id="path626"
     style="font-size:12px;font-weight:normal;fill:#000000;fill-opacity:1;stroke:none;marker-end:none;font-family:Bitstream Vera Sans Mono"
     class="punch_line_bottom_set punch_line_non_focus" />
  <text
     xml:space="preserve"
     style="font-size:40px;font-style:normal;font-weight:normal;line-height:125%;letter-spacing:0px;word-spacing:0px;fill:#000000;fill-opacity:1;stroke:none;font-family:Sans"
     x="889.10468"
     y="279.80109"
     id="text4281"
     sodipodi:linespacing="125%"><tspan
       sodipodi:role="line"
       x="889.10468"
       y="279.80109"
       id="tspan5883">a</tspan></text>
  <text
     sodipodi:linespacing="125%"
     id="text5887"
     y="279.82062"
     x="960.02173"
     style="font-size:40px;font-style:normal;font-weight:normal;line-height:125%;letter-spacing:0px;word-spacing:0px;fill:#000000;fill-opacity:1;stroke:none;font-family:Sans"
     xml:space="preserve"><tspan
       id="tspan5889"
       y="279.82062"
       x="960.02173"
       sodipodi:role="line">z</tspan></text>
  <path
     style="fill:none;stroke:#000000;stroke-width:4;stroke-linecap:butt;stroke-linejoin:miter;stroke-miterlimit:4;stroke-opacity:1;stroke-dasharray:none"
     d="m 924.9524,268.209 20,0"
     id="path5891"
     inkscape:connector-curvature="0" />
  <path
     style="fill:none;stroke:#000000;stroke-width:2;stroke-linecap:butt;stroke-linejoin:miter;stroke-opacity:1;stroke-miterlimit:4;stroke-dasharray:none"
     d="m 451.13413,435.65981 21.92031,0 0,26.99138 26.72792,0"
     id="path10588"
     inkscape:connector-curvature="0"
     sodipodi:nodetypes="cccc" />
  <path
     style="fill:none;stroke:#000000;stroke-width:2;stroke-linecap:butt;stroke-linejoin:miter;stroke-opacity:1;stroke-miterlimit:4;stroke-dasharray:none"
     d="m 473.05444,461.3583 0,52.08326 28.14213,0"
     id="path10590"
     inkscape:connector-curvature="0"
     sodipodi:nodetypes="ccc" />
  <path
     inkscape:connector-curvature="0"
     d="m 903.16773,154.14932 c 2.96533,2.67822 20.35465,23.06886 25.51328,28.95501 -5.15863,5.3725 -19.5486,21.53724 -23.50786,26.35908 l 52.32314,0 0,-13.97829 c -4.64034,2.64112 -7.71649,5.52501 -12.21481,8.48482 l -26.61735,0.10184 20.7834,-23.16402 0,-0.19971 -19.14263,-21.1671 c 5.9953,-0.22759 23.61352,0.3069 26.43505,0.11262 2.89081,2.41409 6.9598,5.91526 10.39172,8.27434 l 0,-13.77859 -53.96394,0 z"
     id="path3090"
     style="font-size:12px;fill:#000000;fill-opacity:1;stroke:none" />
  <text
     sodipodi:linespacing="125%"
     id="text3092"
     y="209.14981"
     x="759.13348"
     style="font-size:76.39750671px;font-style:normal;font-variant:normal;font-weight:normal;font-stretch:normal;text-align:start;line-height:125%;letter-spacing:0px;word-spacing:0px;writing-mode:lr-tb;text-anchor:start;fill:#000000;fill-opacity:1;stroke:none;font-family:Arial;-inkscape-font-specification:Arial"
     xml:space="preserve"><tspan
       y="209.14981"
       x="759.13348"
       id="tspan3094"
       sodipodi:role="line">S</tspan></text>
  <text
     xml:space="preserve"
     style="font-size:23.6196022px;font-style:normal;font-variant:normal;font-weight:normal;font-stretch:normal;text-align:center;line-height:125%;letter-spacing:0px;word-spacing:0px;writing-mode:lr-tb;text-anchor:middle;fill:#000000;fill-opacity:1;stroke:none;font-family:Arial;-inkscape-font-specification:Arial"
     x="784.00903"
     y="262.43616"
     id="text3104"
     sodipodi:linespacing="125%"><tspan
       sodipodi:role="line"
       id="tspan3106"
       x="784.00903"
       y="262.43616">natural</tspan><tspan
       sodipodi:role="line"
       x="784.00903"
       y="291.96066"
       id="tspan3108">numbers</tspan></text>
  <g
     id="g3138"
     transform="translate(-180,-16)">
    <g
       transform="translate(180,260)"
       id="g3110">
      <path
         style="font-size:12px;fill:#000000;fill-opacity:1;stroke:none"
         id="path3112"
         d="m 172.16464,369.45583 c 3.66089,3.30643 25.12918,28.48007 31.49786,35.74692 -6.36868,6.63271 -24.13406,26.58919 -29.02204,32.54208 l 64.59646,0 0,-17.25716 c -5.72881,3.26065 -9.52652,6.821 -15.08001,10.47509 l -32.86092,0.12573 25.65852,-28.59756 0,-0.24654 -23.63287,-26.13223 c 7.4016,-0.28097 29.15249,0.37889 32.63584,0.13904 3.56891,2.98035 8.59237,7.30279 12.8293,10.21523 l 0,-17.0106 -66.62214,0 z"
         inkscape:connector-curvature="0" />
      <text
         sodipodi:linespacing="125%"
         id="text3114"
         y="405.99481"
         x="243.94617"
         style="font-size:74px;font-style:normal;font-variant:normal;font-weight:normal;font-stretch:normal;text-align:start;line-height:125%;letter-spacing:0px;word-spacing:0px;writing-mode:lr-tb;text-anchor:start;fill:#000000;fill-opacity:1;stroke:none;font-family:Sans;-inkscape-font-specification:Sans"
         xml:space="preserve"><tspan
           y="405.99481"
           x="243.94617"
           id="tspan3116"
           sodipodi:role="line">*</tspan></text>
    </g>
    <text
       sodipodi:linespacing="125%"
       id="text3118"
       y="695.56372"
       x="206.55893"
       style="font-size:94.31790924px;font-style:normal;font-variant:normal;font-weight:normal;font-stretch:normal;text-align:start;line-height:125%;letter-spacing:0px;word-spacing:0px;writing-mode:lr-tb;text-anchor:start;fill:#000000;fill-opacity:1;stroke:none;font-family:Arial;-inkscape-font-specification:Arial"
       xml:space="preserve"><tspan
         y="695.56372"
         x="206.55893"
         id="tspan3120"
         sodipodi:role="line">S</tspan></text>
    <g
       id="g3122"
       transform="translate(160,260)">
      <path
         inkscape:connector-curvature="0"
         id="path3124"
         d="m 133.8949,381.8949 32.2102,32.2102"
         style="fill:none;stroke:#000000;stroke-width:6.44204044;stroke-linecap:butt;stroke-linejoin:miter;stroke-miterlimit:4;stroke-opacity:1;stroke-dasharray:none" />
      <path
         inkscape:connector-curvature="0"
         id="path3126"
         d="m 133.8949,414.1051 32.2102,-32.2102"
         style="fill:none;stroke:#000000;stroke-width:6.44204044;stroke-linecap:butt;stroke-linejoin:miter;stroke-miterlimit:4;stroke-opacity:1;stroke-dasharray:none" />
    </g>
  </g>
  <text
     xml:space="preserve"
     style="font-size:32.40000153px;font-style:normal;font-variant:normal;font-weight:normal;font-stretch:normal;text-align:start;line-height:125%;letter-spacing:0px;word-spacing:0px;writing-mode:lr-tb;text-anchor:start;fill:#000000;fill-opacity:1;stroke:none;font-family:Arial;-inkscape-font-specification:Arial"
     x="30.843328"
     y="585.98865"
     id="text3134"
     sodipodi:linespacing="125%"><tspan
       sodipodi:role="line"
       id="tspan3136"
       x="30.843328"
       y="585.98865">A power series is a subset of</tspan></text>
  <text
     sodipodi:linespacing="110%"
     id="text3149"
     y="715.51318"
     x="29.799187"
     style="font-size:32.40000153px;font-style:normal;font-variant:normal;font-weight:normal;font-stretch:normal;text-align:start;line-height:110.00000238%;letter-spacing:0px;word-spacing:0px;writing-mode:lr-tb;text-anchor:start;fill:#000000;fill-opacity:1;stroke:none;font-family:Arial;-inkscape-font-specification:Arial"
     xml:space="preserve"><tspan
       y="715.51318"
       x="29.799187"
       sodipodi:role="line"
       id="tspan3153">such that the first member of every pair is</tspan><tspan
       y="751.1532"
       x="29.799187"
       sodipodi:role="line"
       id="tspan3157">strictly a function of the second member.</tspan></text>
  <rect
     style="fill:#d87a00;fill-opacity:0.19230772;stroke:none"
     id="rect5329"
     width="187.87265"
     height="32.325439"
     x="57.06366"
     y="559.83728" />
</svg>
